<?xml version="1.0" standalone="no"?>
<!DOCTYPE svg PUBLIC "-//W3C//DTD SVG 1.1//EN" "http://www.w3.org/Graphics/SVG/1.1/DTD/svg11.dtd" >
<svg>
<metadata>
Created by FontForge 20090622 at Wed Nov  1 08:04:52 2017
 By deploy user
Copyright (c) 1990 Adobe Systems Incorporated. All rights reserved. Digitized data &#194;&#169; 2002 The Monotype Corporation. All rights reserved.
</metadata>
<defs>
<font id="TwCenMTStd" horiz-adv-x="500" >
  <font-face 
    font-family="Tw Cen MT Std"
    font-weight="500"
    font-stretch="normal"
    units-per-em="1000"
    panose-1="2 11 5 2 2 1 4 2 6 3"
    ascent="800"
    descent="-200"
    x-height="403"
    cap-height="622"
    bbox="-183 -232 1053 841"
    underline-thickness="50"
    underline-position="-75"
    unicode-range="U+0020-U+FB02"
  />
<missing-glyph 
d="M12 0v665h475v-665h-475zM88 618l162 -243l161 243h-323zM60 575v-484l40 61l80 120l41 61zM440 575l-162 -242l162 -243v485zM411 48l-161 242l-162 -242h323z" />
    <glyph glyph-name="fi" unicode="fi" 
d="M449 468h-83q-2 45 -27.5 70t-68.5 25q-36 0 -63.5 -30.5t-27.5 -70.5v-58h115v-77h-115v-327h-82v327h-77v77h77v69q0 72 51.5 122t125.5 50q79 0 131 -57q24 -26 33 -50t11 -70zM367 405h82v-405h-82v405z" />
    <glyph glyph-name="fl" unicode="fl" 
d="M448 0h-82v467q0 40 -27 67.5t-67 27.5q-38 0 -66 -31t-28 -73v-55h116v-77h-116v-326h-82v326h-76v77h77v70q0 71 50.5 121t122.5 50t125 -48t53 -113v-483z" />
    <glyph glyph-name=".notdef" 
d="M12 0v665h475v-665h-475zM88 618l162 -243l161 243h-323zM60 575v-484l40 61l80 120l41 61zM440 575l-162 -242l162 -243v485zM411 48l-161 242l-162 -242h323z" />
    <glyph glyph-name=".notdef" 
d="M12 0v665h475v-665h-475zM88 618l162 -243l161 243h-323zM60 575v-484l40 61l80 120l41 61zM440 575l-162 -242l162 -243v485zM411 48l-161 242l-162 -242h323z" />
    <glyph glyph-name=".null" horiz-adv-x="0" 
 />
    <glyph glyph-name="nonmarkingreturn" horiz-adv-x="333" 
 />
    <glyph glyph-name="space" unicode=" " horiz-adv-x="276" 
 />
    <glyph glyph-name="exclam" unicode="!" horiz-adv-x="219" 
d="M66 622h82v-468h-82v468zM109 97q22 0 37.5 -15.5t15.5 -37.5t-15.5 -37.5t-37.5 -15.5t-37.5 15.5t-15.5 37.5t15.5 37.5t37.5 15.5z" />
    <glyph glyph-name="quotedbl" unicode="&#x22;" horiz-adv-x="355" 
d="M71 462l-25 137v117h101v-117l-23 -137h-53zM232 462l-23 137v117h100v-117l-24 -137h-53z" />
    <glyph glyph-name="numbersign" unicode="#" horiz-adv-x="668" 
d="M44 475h159l42 197h59l-42 -197h206l41 197h60l-42 -197h97v-60h-109l-37 -181h146v-60h-158l-41 -196h-60l42 196h-207l-41 -196h-60l41 196h-96v60h109l38 181h-147v60zM250 415l-38 -180h207l37 180h-206z" />
    <glyph glyph-name="dollar" unicode="$" horiz-adv-x="552" 
d="M261 401v150q-32 -7 -51 -25t-19 -43q0 -53 70 -82zM305 282v-211q44 5 69.5 30.5t25.5 65.5q0 72 -95 115zM261 718h44v-75q65 -10 112 -38q29 -17 57 -53l-69 -55q-40 51 -100 56v-172q88 -40 120 -71q65 -63 65 -144q0 -53 -27.5 -97t-75.5 -67q-29 -15 -82 -21v-95
h-44v95q-49 10 -79 25.5t-58 46.5q-30 34 -59 98l88 23q23 -49 45.5 -70t62.5 -29v227q-71 29 -107 64q-51 50 -51 118q0 84 81 132q29 17 77 27v75z" />
    <glyph glyph-name="percent" unicode="%" horiz-adv-x="833" 
d="M171 577q-76 0 -76 -114q0 -53 19 -81.5t54 -28.5q37 0 54.5 28t17.5 88q0 108 -69 108zM169 642q65 0 102 -48t37 -131q0 -80 -37.5 -127t-101.5 -47q-65 0 -102.5 47t-37.5 128q0 82 38 130t102 48zM606 642h64l-436 -686h-65zM667 244q-74 0 -74 -105q0 -63 17 -91.5
t55 -28.5q72 0 72 111q0 114 -70 114zM668 308q61 0 98 -47t37 -125q0 -86 -36 -133t-102 -47q-62 0 -99.5 44.5t-37.5 120.5q0 91 36 139t104 48z" />
    <glyph glyph-name="ampersand" unicode="&#x26;" horiz-adv-x="667" 
d="M267 396q49 34 67.5 56t18.5 45q0 30 -20.5 48t-54.5 18q-32 0 -53 -17.5t-21 -44.5q0 -39 63 -105zM400 139l-146 155q-87 -58 -109 -86q-18 -24 -18 -49q0 -41 36.5 -70.5t87.5 -29.5q36 0 68.5 17.5t80.5 62.5zM324 337l130 -138l70 77l60 -54l-74 -83l131 -138h-111
l-74 78q-52 -47 -82 -65q-62 -36 -123 -36q-86 0 -148.5 53t-62.5 127q0 58 34 97q23 23 42 38.5t80 58.5l-16 22q-35 45 -46 69t-13 57q4 64 48.5 104t111.5 40q64 0 108 -42.5t44 -104.5q0 -51 -35 -95q-23 -30 -74 -65z" />
    <glyph glyph-name="quotesingle" unicode="'" horiz-adv-x="191" 
d="M68 462l-23 134v120h101v-120l-24 -134h-54z" />
    <glyph glyph-name="parenleft" unicode="(" horiz-adv-x="271" 
d="M153 642l68 -31q-53 -105 -73 -184q-20 -81 -20 -184q0 -122 20 -206q18 -79 69 -191l-64 -36q-52 107 -74 195q-26 107 -26 216q0 127 23 220q20 87 77 201z" />
    <glyph glyph-name="parenright" unicode=")" horiz-adv-x="271" 
d="M43 611l67 31q49 -88 71 -170q33 -122 33 -250q0 -97 -24 -205q-15 -63 -29.5 -103t-45.5 -107l-67 36q59 138 75 213q15 74 15 174q0 119 -23 207q-19 75 -72 174z" />
    <glyph glyph-name="asterisk" unicode="*" horiz-adv-x="438" 
d="M229 528l15 -8q28 21 53 50l16 19q23 20 43 20q17 0 28.5 -11.5t11.5 -28.5q0 -21 -15.5 -31.5t-56.5 -17.5q-43 -8 -69 -20l-1 -16q35 -15 75 -22q37 -5 52 -16t15 -33q0 -17 -12 -28.5t-29 -11.5q-24 0 -57 40q-34 40 -55 52l-14 -7q2 -29 16 -65q13 -36 13 -52
q0 -20 -11 -32.5t-29 -12.5t-29.5 12.5t-11.5 31.5q0 15 13 49q15 42 16 69l-13 7q-27 -22 -56 -56q-30 -37 -55 -37q-16 0 -28 12t-12 28q0 41 73 53q39 6 66 20l1 15q-29 13 -68 19q-27 5 -37 8.5t-25 15.5q-10 10 -10 26q0 17 11 29.5t27 12.5q15 0 26.5 -7.5t28.5 -28.5
q28 -32 58 -54l13 8q-2 29 -16 68q-13 33 -13 48q0 18 11.5 30t28.5 12q18 0 29.5 -11.5t11.5 -30.5q0 -15 -12 -47q-14 -42 -17 -70z" />
    <glyph glyph-name="plus" unicode="+" horiz-adv-x="667" 
d="M67 355h233v234h64v-234h235v-64h-235v-232h-64v232h-233v64z" />
    <glyph glyph-name="comma" unicode="," horiz-adv-x="219" 
d="M99 123l105 -41l-115 -250l-76 30z" />
    <glyph glyph-name="hyphen" unicode="-" horiz-adv-x="333" 
d="M53 243h227v-83h-227v83z" />
    <glyph glyph-name="hyphen" unicode="&#xad;" horiz-adv-x="333" 
d="M53 243h227v-83h-227v83z" />
    <glyph glyph-name="period" unicode="." horiz-adv-x="219" 
d="M108 123q27 0 46.5 -19.5t19.5 -46.5q0 -28 -19.5 -47t-46.5 -19q-28 0 -47 19t-19 47q0 27 19 46.5t47 19.5z" />
    <glyph glyph-name="slash" unicode="/" 
d="M433 725h56l-405 -945h-58z" />
    <glyph glyph-name="zero" unicode="0" horiz-adv-x="552" 
d="M275 554q-66 0 -106.5 -67t-40.5 -177q0 -109 41 -175t108 -66q64 0 104 67.5t40 176.5q0 105 -41 173t-105 68zM279 643q104 -5 167.5 -95.5t63.5 -235.5q0 -174 -89 -266q-67 -67 -146 -67q-102 0 -168 92.5t-66 235.5q0 218 129 305q48 31 104 31h5z" />
    <glyph glyph-name="one" unicode="1" horiz-adv-x="552" 
d="M158 620h162v-620h-84v538h-106z" />
    <glyph glyph-name="two" unicode="2" horiz-adv-x="552" 
d="M241 83h237v-83h-425l317 337q36 39 36 86q0 55 -37.5 95.5t-88.5 40.5q-48 0 -85 -32q-18 -16 -26 -31.5t-16 -46.5h-82q8 49 23 80t45 59q60 55 146 55q82 0 142.5 -64t60.5 -152q0 -81 -70 -155z" />
    <glyph glyph-name="three" unicode="3" horiz-adv-x="552" 
d="M169 482h-91q9 71 54 113q53 48 136 48q86 0 143 -49t57 -124q0 -92 -94 -141q42 -22 66 -47q44 -47 44 -109q0 -79 -60 -136t-142 -57q-118 0 -182 79q-25 33 -40 93h93q30 -97 124 -97q48 0 83.5 33t35.5 77q0 53 -39 90q-19 18 -40 25t-61 9v77q55 1 88.5 27.5
t33.5 70.5t-30 74t-74 30q-40 0 -64.5 -20t-40.5 -66z" />
    <glyph glyph-name="four" unicode="4" horiz-adv-x="552" 
d="M359 443l-198 -248h200v248h-2zM437 641v-446h60v-73h-60v-122h-76v122h-349z" />
    <glyph glyph-name="five" unicode="5" horiz-adv-x="552" 
d="M197 623h280v-84h-215l-33 -119q40 4 43 4q82 0 143 -65t61 -154q0 -95 -69.5 -160t-169.5 -65q-84 0 -147 48q-27 21 -59 63l76 48q57 -70 133 -70q64 0 105.5 39.5t41.5 100.5q0 59 -43 99t-106 40q-35 0 -62.5 -12t-64.5 -44z" />
    <glyph glyph-name="six" unicode="6" horiz-adv-x="552" 
d="M275 345q-56 0 -97.5 -41.5t-41.5 -97.5q0 -58 40 -97.5t99 -39.5q57 0 97 39.5t40 97.5q0 57 -40.5 98t-96.5 41zM312 656l65 -45l-137 -200q18 2 24 2q7 1 18 1q88 0 153.5 -61.5t65.5 -143.5q0 -97 -65 -163.5t-160 -66.5t-161.5 65.5t-66.5 158.5q0 71 42 132z" />
    <glyph glyph-name="seven" unicode="7" horiz-adv-x="552" 
d="M26 624h513l-438 -654l-65 43l352 529h-362v82z" />
    <glyph glyph-name="eight" unicode="8" horiz-adv-x="552" 
d="M274 569q-44 0 -75.5 -31t-31.5 -75t31.5 -75t75.5 -31t75.5 31t31.5 75t-31.5 75t-75.5 31zM272 283q-52 0 -87 -33.5t-35 -82.5t36.5 -81t92.5 -32q51 0 86.5 33t35.5 82q0 47 -38 80.5t-91 33.5zM395 322q36 -23 52 -42q43 -51 43 -113q0 -78 -62.5 -132.5
t-151.5 -54.5q-91 0 -153 54t-62 133q0 61 39 109q19 23 52 46q-40 35 -57 67.5t-17 75.5q0 72 58.5 125t137.5 53t137.5 -52.5t58.5 -123.5q0 -81 -75 -145z" />
    <glyph glyph-name="nine" unicode="9" horiz-adv-x="552" 
d="M277 556q-60 0 -100 -40.5t-40 -101.5q0 -56 42.5 -95.5t102.5 -39.5q56 0 94 39.5t38 97.5t-40.5 99t-96.5 41zM240 -32l-66 46l137 199q-29 -4 -44 -4q-92 0 -154.5 62t-62.5 154q0 89 68 154.5t159 65.5q90 0 157.5 -67t67.5 -156q0 -72 -46 -139z" />
    <glyph glyph-name="colon" unicode=":" horiz-adv-x="219" 
d="M108 339q27 0 46.5 -19t19.5 -47t-19 -47t-47 -19t-47 19t-19 47t19 47t47 19zM108 125q27 0 46.5 -19.5t19.5 -47.5q0 -27 -19.5 -46.5t-46.5 -19.5q-28 0 -47 19.5t-19 46.5q0 28 19 47.5t47 19.5z" />
    <glyph glyph-name="semicolon" unicode=";" horiz-adv-x="271" 
d="M124 125l105 -42l-119 -250l-75 32zM158 341q28 0 47 -19.5t19 -46.5q0 -28 -19 -47.5t-47 -19.5t-47 19.5t-19 47.5q0 27 19 46.5t47 19.5z" />
    <glyph glyph-name="semicolon" unicode="&#x37e;" horiz-adv-x="271" 
d="M124 125l105 -42l-119 -250l-75 32zM158 341q28 0 47 -19.5t19 -46.5q0 -28 -19 -47.5t-47 -19.5t-47 19.5t-19 47.5q0 27 19 46.5t47 19.5z" />
    <glyph glyph-name="less" unicode="&#x3c;" horiz-adv-x="667" 
d="M598 72l-529 223v58l529 223v-70l-443 -182l443 -183v-69z" />
    <glyph glyph-name="equal" unicode="=" horiz-adv-x="667" 
d="M68 472h531v-65h-531v65zM68 243h531v-64h-531v64z" />
    <glyph glyph-name="greater" unicode="&#x3e;" horiz-adv-x="667" 
d="M68 576l530 -224v-57l-530 -223v69l444 182l-444 183v70z" />
    <glyph glyph-name="question" unicode="?" horiz-adv-x="385" 
d="M248 290h83q-15 -73 -58 -111q-40 -35 -95 -35q-57 0 -92.5 33t-35.5 85q0 53 38 89q21 21 78 48q51 23 78 47q23 26 23 49q0 28 -22 48t-53 20q-77 0 -88 -96h-80q6 52 19 82.5t39 54.5q40 39 104 39q69 0 116 -41.5t47 -102.5q0 -63 -44 -107q-29 -29 -104 -65
q-40 -19 -56.5 -33.5t-16.5 -30.5q0 -17 14 -27t37 -10q50 0 69 64zM193 97q22 0 37.5 -15.5t15.5 -37.5t-15.5 -37.5t-37.5 -15.5t-38 15.5t-16 37.5t16 37.5t38 15.5z" />
    <glyph glyph-name="at" unicode="@" horiz-adv-x="1015" 
d="M893 9h88q-30 -64 -106 -121q-130 -98 -325 -98q-230 0 -361.5 117t-131.5 322q0 133 59.5 250t159.5 180q110 70 264 70q116 0 207 -44t147 -128q64 -93 64 -201q0 -147 -97 -256q-33 -37 -76 -66q-56 -36 -118 -36q-50 0 -71.5 18t-25.5 64q-71 -81 -148 -81t-128 62.5
t-51 158.5q0 114 77 212q36 46 82.5 71.5t93.5 25.5q92 0 148 -90l16 76h88l-78 -362q-7 -33 -7 -42q0 -13 10.5 -22.5t24.5 -9.5q16 0 43.5 15t49.5 36q44 42 69 100t25 120q0 133 -99.5 220.5t-250.5 87.5q-175 0 -290.5 -119.5t-115.5 -301.5q0 -178 111 -276.5
t312 -98.5q149 0 255 67q34 21 50 36t36 44zM333 212q0 -63 30 -102t78 -39q30 0 64 22t59 58q52 73 52 164q0 65 -31 103.5t-84 38.5q-64 0 -116 -75.5t-52 -169.5z" />
    <glyph glyph-name="A" unicode="A" horiz-adv-x="604" 
d="M297 451l-100 -221h200zM297 646l294 -646h-89l-73 159h-264l-71 -159h-88z" />
    <glyph glyph-name="B" unicode="B" 
d="M161 547v-184q69 1 107 26.5t38 71.5q0 40 -33.5 63.5t-90.5 23.5q-12 0 -21 -1zM161 289v-213h7q77 0 116 16q34 14 54 38.5t20 52.5q0 49 -45 77.5t-123 28.5h-29zM77 622h99q97 0 158.5 -42t61.5 -107q0 -78 -91 -131q62 -23 95 -52q46 -43 46 -111q0 -81 -73 -130
t-194 -49h-102v622z" />
    <glyph glyph-name="C" unicode="C" horiz-adv-x="604" 
d="M568 601v-96q-102 49 -185 49q-109 0 -183 -69.5t-74 -172.5q0 -105 76 -174t190 -69q82 0 176 52v-97q-87 -45 -183 -45q-145 0 -247.5 97.5t-102.5 236.5q0 136 100.5 232.5t243.5 96.5q89 0 189 -41z" />
    <glyph glyph-name="D" unicode="D" horiz-adv-x="604" 
d="M151 539v-455h5q136 0 193 24q62 26 98 80.5t36 122.5t-37.5 125t-98.5 82q-50 21 -153 21h-43zM66 622h151q171 0 263 -91q43 -42 67 -100.5t24 -119.5q0 -92 -51 -169t-136 -113q-70 -29 -166 -29h-152v622z" />
    <glyph glyph-name="E" unicode="E" horiz-adv-x="438" 
d="M58 622h345v-85h-261v-155h261v-84h-261v-214h261v-84h-345v622z" />
    <glyph glyph-name="F" unicode="F" horiz-adv-x="438" 
d="M58 622h345v-85h-261v-155h261v-84h-260v-298h-85v622z" />
    <glyph glyph-name="G" unicode="G" horiz-adv-x="771" 
d="M666 523l-63 -62q-36 33 -66 51q-72 42 -154 42q-110 0 -182.5 -70t-72.5 -176q0 -94 69 -165q75 -75 196 -75q91 0 151 41.5t83 120.5h-168v85h265q0 -54 -4 -81t-18 -61q-23 -59 -71 -106q-47 -47 -103 -67.5t-137 -20.5q-159 0 -257 101q-45 46 -70.5 107t-25.5 125
q0 138 98 234t238 96q89 0 158 -28q38 -16 64.5 -34t69.5 -57z" />
    <glyph glyph-name="H" unicode="H" horiz-adv-x="604" 
d="M68 622h85v-239h297v239h84v-622h-84v299h-297v-299h-85v622z" />
    <glyph glyph-name="I" unicode="I" horiz-adv-x="219" 
d="M64 622h84v-622h-84v622z" />
    <glyph glyph-name="J" unicode="J" horiz-adv-x="385" 
d="M210 621h85v-456q0 -186 -155 -186q-51 0 -106 28l42 69q42 -14 67 -14q67 0 67 90v469z" />
    <glyph glyph-name="K" unicode="K" horiz-adv-x="552" 
d="M65 622h85v-253l263 253h119l-300 -289l302 -333h-108l-276 303v-303h-85v622z" />
    <glyph glyph-name="L" unicode="L" horiz-adv-x="385" 
d="M77 622h84v-538h203v-84h-287v622z" />
    <glyph glyph-name="M" unicode="M" horiz-adv-x="771" 
d="M578 648l170 -648h-83l-103 396h-2l-175 -420l-176 423h-2l-104 -399h-83l170 648l195 -464z" />
    <glyph glyph-name="N" unicode="N" horiz-adv-x="667" 
d="M60 647l460 -473v448h85v-651l-460 471v-442h-85v647z" />
    <glyph glyph-name="O" unicode="O" horiz-adv-x="771" 
d="M378 555q-104 0 -177 -71.5t-73 -172.5q0 -103 75 -173t185 -70q101 0 174 71.5t73 171.5q0 103 -74 173.5t-183 70.5zM385 642q140 0 240 -96.5t100 -230.5q0 -142 -99 -239t-244 -97q-143 0 -243 98t-100 238q0 136 101.5 231.5t244.5 95.5z" />
    <glyph glyph-name="P" unicode="P" 
d="M169 548v-218q98 1 143 28t45 83q0 66 -63 91q-41 16 -125 16zM85 622h125q106 0 171 -49.5t65 -129.5q0 -54 -31.5 -97t-88.5 -66q-53 -23 -157 -24v-256h-84v622z" />
    <glyph glyph-name="Q" unicode="Q" horiz-adv-x="771" 
d="M486 89l-137 146h111l96 -102q28 28 43 52q36 57 36 127q0 104 -74 173.5t-183 69.5q-104 0 -177 -71t-73 -173t74.5 -172.5t182.5 -70.5q43 0 101 21zM617 68l98 -106h-111l-55 58q-90 -41 -168 -41q-144 0 -243.5 98t-99.5 238q0 136 101 231.5t244 95.5
q140 0 241 -95.5t101 -228.5q0 -104 -52 -184q-20 -31 -56 -66z" />
    <glyph glyph-name="R" unicode="R" 
d="M163 547v-217q87 1 122 16q66 26 66 93q0 68 -63 93q-39 15 -125 15zM78 622h135q100 0 163.5 -49.5t63.5 -128.5q0 -82 -65 -133q-34 -27 -104 -45l181 -266h-97l-173 256h-19v-256h-85v622z" />
    <glyph glyph-name="S" unicode="S" 
d="M445 553l-69 -55q-34 34 -56 45t-58 11q-46 0 -74.5 -20.5t-28.5 -53.5q0 -28 24.5 -50t84.5 -47q54 -23 77.5 -37t59.5 -46q55 -58 55 -134q0 -78 -56.5 -132.5t-136.5 -54.5q-102 0 -171 72q-33 35 -59 99l85 24q47 -105 142 -105q47 0 77.5 27.5t30.5 70.5
q0 42 -38 78q-25 25 -93 53q-49 20 -69.5 31.5t-51.5 39.5q-49 52 -49 112q0 67 53.5 114t130.5 47q62 0 117 -29q38 -19 73 -60z" />
    <glyph glyph-name="T" unicode="T" horiz-adv-x="438" 
d="M27 622h380v-85h-148v-537h-84v537h-148v85z" />
    <glyph glyph-name="U" unicode="U" horiz-adv-x="604" 
d="M62 621h85v-382q0 -85 40.5 -131.5t115.5 -46.5t116 43t41 120v397h85v-391q0 -115 -65 -183t-174 -68q-107 0 -171 64q-39 39 -56 87.5t-17 122.5v368z" />
    <glyph glyph-name="V" unicode="V" horiz-adv-x="604" 
d="M13 621h90l195 -440l196 440h91l-288 -642z" />
    <glyph glyph-name="W" unicode="W" horiz-adv-x="1000" 
d="M499 646l200 -459l188 434h88l-276 -640l-200 460l-200 -460l-276 640h88l189 -438z" />
    <glyph glyph-name="X" unicode="X" horiz-adv-x="552" 
d="M41 622h94l139 -227l137 227h95l-185 -304l190 -318h-94l-143 239l-145 -239h-95l192 318z" />
    <glyph glyph-name="Y" unicode="Y" horiz-adv-x="552" 
d="M28 622h94l153 -250l151 250h94l-204 -337v-285h-85v284z" />
    <glyph glyph-name="Z" unicode="Z" 
d="M47 622h420l-297 -538h291v-84h-429l295 537h-280v85z" />
    <glyph glyph-name="bracketleft" unicode="[" horiz-adv-x="271" 
d="M65 632h180v-61h-112v-668h112v-61h-180v790z" />
    <glyph glyph-name="backslash" unicode="\" 
d="M33 724h55l406 -944h-55z" />
    <glyph glyph-name="bracketright" unicode="]" horiz-adv-x="271" 
d="M16 632h181v-790h-179v61h111v668h-113v61z" />
    <glyph glyph-name="asciicircum" unicode="^" horiz-adv-x="469" 
d="M116 337h-90l173 391h71l173 -391h-89l-120 292z" />
    <glyph glyph-name="underscore" unicode="_" 
d="M-7 -124v50h514v-50h-514z" />
    <glyph glyph-name="grave" unicode="`" horiz-adv-x="333" 
d="M227 477h-71l-113 136h118z" />
    <glyph glyph-name="a" unicode="a" horiz-adv-x="552" 
d="M273 334q-54 0 -94 -39t-40 -92q0 -57 39 -97t95 -40q55 0 94.5 39.5t39.5 94.5q0 56 -39.5 95t-94.5 39zM396 321v82h85v-403h-85v80h-2q-23 -33 -48 -54q-48 -37 -104 -37q-80 0 -136 62.5t-56 151.5q0 85 56.5 148t133.5 63q62 0 111 -41q24 -19 43 -52h2z" />
    <glyph glyph-name="b" unicode="b" horiz-adv-x="552" 
d="M277 337q-55 0 -94.5 -39.5t-39.5 -94.5q0 -57 39.5 -95.5t98.5 -38.5q53 0 92 39.5t39 94.5q0 56 -39.5 95t-95.5 39zM70 634h84v-311h2q23 37 48 57q44 34 105 34q79 0 136 -62.5t57 -148.5t-56 -150t-132 -64q-67 0 -117 44q-21 17 -41 52h-2v-85h-84v634z" />
    <glyph glyph-name="c" unicode="c" horiz-adv-x="385" 
d="M359 123v-97q-67 -37 -126 -37q-84 0 -146.5 62.5t-62.5 145.5q0 94 62 155.5t157 61.5q55 0 116 -29v-95q-64 41 -121 41q-53 0 -92.5 -37t-39.5 -87q0 -56 37 -94.5t91 -38.5t125 49z" />
    <glyph glyph-name="d" unicode="d" horiz-adv-x="552" 
d="M270 336q-57 0 -96 -39t-39 -95q0 -54 40 -94t93 -40q57 0 96.5 39t39.5 95q0 55 -39.5 94.5t-94.5 39.5zM394 634h84v-634h-83v84h-2q-58 -95 -155 -95q-79 0 -135 62.5t-56 151.5q0 87 56.5 149t136.5 62q60 0 106 -39q26 -20 46 -56h2v315z" />
    <glyph glyph-name="e" unicode="e" 
d="M124 253h246q-41 83 -121 83q-88 0 -125 -83zM459 185h-344q12 -57 46 -86q39 -33 92 -33q71 0 121 60l62 -47q-20 -26 -41 -43q-63 -47 -146 -47q-90 0 -150.5 61.5t-60.5 152.5q0 87 62 149t149 62q66 -1 118.5 -37.5t76.5 -99.5q14 -36 15 -92z" />
    <glyph glyph-name="f" unicode="f" horiz-adv-x="333" 
d="M300 628v-86q-38 25 -64 25q-23 0 -35.5 -16.5t-12.5 -46.5v-101h112v-78h-112v-325h-85v325h-74v78h74v95q0 69 35.5 110t94.5 41q28 0 67 -21z" />
    <glyph glyph-name="g" unicode="g" horiz-adv-x="552" 
d="M267 335q-53 0 -93.5 -39.5t-40.5 -91.5q0 -56 40 -96.5t95 -40.5q56 0 96 39.5t40 95.5q0 57 -39 95t-98 38zM392 318v85h83v-387q0 -86 -58.5 -145.5t-142.5 -59.5q-93 0 -154 67q-21 24 -41 72h88q41 -65 110 -65q48 0 81.5 34t33.5 83v76h-2q-60 -89 -153 -89
q-78 0 -135 63.5t-57 150.5t55.5 149t133.5 62q63 0 112 -41q23 -19 44 -55h2z" />
    <glyph glyph-name="h" unicode="h" horiz-adv-x="438" 
d="M38 634h85v-297q38 44 68.5 60.5t71.5 16.5q52 0 89 -39t37 -94v-281h-85v257q0 38 -19 61t-51 23q-46 0 -78.5 -34.5t-32.5 -84.5v-222h-85v634z" />
    <glyph glyph-name="i" unicode="i" horiz-adv-x="219" 
d="M65 403h84v-403h-84v403zM107 600q26 0 45.5 -19t19.5 -46t-19.5 -46t-45.5 -19q-27 0 -46.5 19t-19.5 46t19.5 46t46.5 19z" />
    <glyph glyph-name="j" unicode="j" horiz-adv-x="219" 
d="M66 403h85v-592h-85v592zM108 600q27 0 46.5 -19.5t19.5 -46.5t-19.5 -46.5t-46.5 -19.5t-46.5 19.5t-19.5 46.5t19.5 46.5t46.5 19.5z" />
    <glyph glyph-name="k" unicode="k" horiz-adv-x="438" 
d="M52 634h84v-408l167 177h110l-174 -186l176 -217h-105l-172 213h-2v-213h-84v634z" />
    <glyph glyph-name="l" unicode="l" horiz-adv-x="219" 
d="M69 634h85v-634h-85v634z" />
    <glyph glyph-name="m" unicode="m" horiz-adv-x="667" 
d="M133 403v-62h2q29 40 56 56.5t61 16.5q44 0 70.5 -19t45.5 -65q34 46 63.5 65t66.5 19q48 0 82.5 -35.5t34.5 -85.5v-293h-84v271q0 67 -66 67q-38 0 -64 -34.5t-26 -84.5v-219h-85v260q0 79 -65 79q-39 0 -65.5 -32.5t-26.5 -79.5v-227h-84v403h84z" />
    <glyph glyph-name="n" unicode="n" horiz-adv-x="438" 
d="M124 403v-67q40 44 69.5 61t63.5 17q55 0 93.5 -36t38.5 -87v-291h-85v266q0 33 -21 54.5t-54 21.5q-43 0 -73.5 -36t-30.5 -87v-219h-84v403h83z" />
    <glyph glyph-name="o" unicode="o" 
d="M252 330q-56 0 -95.5 -38t-39.5 -92q0 -51 40 -89t95 -38q53 0 92.5 39t39.5 91t-39 89.5t-93 37.5zM249 414q88 0 152.5 -63t64.5 -148t-63.5 -149.5t-147.5 -64.5q-90 0 -155.5 63.5t-65.5 150.5q0 83 65 147t150 64z" />
    <glyph glyph-name="p" unicode="p" horiz-adv-x="552" 
d="M276 336q-55 0 -95.5 -39.5t-40.5 -93.5q0 -56 39.5 -96t94.5 -40q56 0 96 40t40 96q0 54 -40 93.5t-94 39.5zM152 403v-81h2q60 92 154 92q79 0 135 -62t56 -149q0 -88 -57 -151t-135 -63q-59 0 -109 39q-24 20 -43 52h-2v-269h-85v592h84z" />
    <glyph glyph-name="q" unicode="q" horiz-adv-x="552" 
d="M267 335q-53 0 -92 -40t-39 -95q0 -54 40 -93.5t95 -39.5q56 0 95 39.5t39 96.5q0 54 -40.5 93t-97.5 39zM394 320v83h84v-592h-84v268h-2q-25 -35 -47 -52q-46 -38 -105 -38q-79 0 -136 63t-57 149t57 149.5t135 63.5q59 0 108 -40q25 -19 45 -54h2z" />
    <glyph glyph-name="r" unicode="r" horiz-adv-x="333" 
d="M151 403v-83h2q29 53 56 73.5t68 20.5q11 0 35 -6l-26 -85q-25 5 -32 5q-43 0 -72 -30t-29 -75v-223h-85v403h83z" />
    <glyph glyph-name="s" unicode="s" horiz-adv-x="333" 
d="M300 355l-57 -50q-44 32 -76 32q-52 0 -52 -38q0 -28 68 -54q64 -25 92.5 -55.5t28.5 -74.5q0 -51 -41.5 -88.5t-97.5 -37.5q-85 0 -140 79l67 32q34 -34 73 -34q26 0 46 14.5t20 33.5q0 34 -77 63q-62 24 -88.5 52t-26.5 68q0 50 37.5 83.5t95.5 33.5q56 0 128 -59z" />
    <glyph glyph-name="t" unicode="t" horiz-adv-x="271" 
d="M84 520h85v-117h84v-78h-84v-325h-85v325h-67v79h67v116z" />
    <glyph glyph-name="u" unicode="u" horiz-adv-x="438" 
d="M42 403h85v-227q0 -105 92 -105q41 0 65 28t24 77v227h84v-241q0 -76 -49 -124.5t-126 -48.5q-79 0 -127 48.5t-48 127.5v238z" />
    <glyph glyph-name="v" unicode="v" horiz-adv-x="438" 
d="M15 403h89l115 -233l112 233h90l-203 -418z" />
    <glyph glyph-name="w" unicode="w" horiz-adv-x="667" 
d="M332 420l113 -267l119 250h74l-198 -414l-108 256l-108 -253l-197 411h74l119 -247z" />
    <glyph glyph-name="x" unicode="x" 
d="M57 403h103l90 -115l88 115h102l-140 -182l169 -221h-101l-119 154l-120 -154h-100l170 221z" />
    <glyph glyph-name="y" unicode="y" 
d="M31 403h96l146 -219l101 219h88l-272 -592h-89l133 288z" />
    <glyph glyph-name="z" unicode="z" horiz-adv-x="438" 
d="M25 403h381l-243 -329h241v-74h-384l245 329h-240v74z" />
    <glyph glyph-name="braceleft" unicode="{" horiz-adv-x="334" 
d="M28 197v80q28 0 47 11q33 18 43.5 52.5t10.5 125.5q1 100 6.5 134t27.5 62q19 25 44.5 34.5t76.5 9.5h27v-76h-15q-52 0 -68 -19t-16 -82v-72q0 -143 -53 -190q-21 -17 -49 -30q57 -24 79.5 -72.5t22.5 -148.5v-71q0 -63 16 -82t68 -19h15v-76h-27q-50 0 -76.5 9.5
t-44.5 34.5q-22 28 -27.5 62t-6.5 134q0 91 -10.5 125.5t-43.5 52.5q-19 11 -47 11z" />
    <glyph glyph-name="bar" unicode="|" horiz-adv-x="527" 
d="M231 696h65v-831h-65v831z" />
    <glyph glyph-name="braceright" unicode="}" horiz-adv-x="334" 
d="M306 277v-80q-28 0 -47 -11q-33 -18 -43.5 -52.5t-10.5 -125.5q-1 -100 -6.5 -134t-27.5 -62q-19 -25 -44.5 -34.5t-76.5 -9.5h-27v76h15q52 0 68 19t16 82v71q0 100 22.5 148.5t79.5 72.5q-63 30 -82 78q-20 53 -20 142v72q0 63 -16 82t-68 19h-15v76h27q50 0 76.5 -9.5
t44.5 -34.5q22 -28 27.5 -62t6.5 -134q0 -91 10.5 -125.5t43.5 -52.5q19 -11 47 -11z" />
    <glyph glyph-name="asciitilde" unicode="~" horiz-adv-x="656" 
d="M592 413v-71q-74 -62 -139 -62q-31 0 -59 9.5t-96 41.5q-59 28 -92 28q-62 0 -142 -67v70q75 61 143 61q47 0 144 -47q68 -32 100 -32q62 0 141 69z" />
    <glyph glyph-name="uni00A0" unicode="&#xa0;" horiz-adv-x="276" 
 />
    <glyph glyph-name="exclamdown" unicode="&#xa1;" horiz-adv-x="219" 
d="M110 550q22 0 37.5 -15.5t15.5 -37.5t-15.5 -38t-37.5 -16t-37.5 16t-15.5 38t15.5 37.5t37.5 15.5zM69 385h83v-467h-83v467z" />
    <glyph glyph-name="cent" unicode="&#xa2;" horiz-adv-x="438" 
d="M175 106l78 219q-53 -2 -89 -38.5t-36 -88.5q0 -29 10 -48t37 -44zM344 584h43l-61 -177q36 -11 70 -34v-107q-50 42 -101 56l-82 -235q26 -6 44 -6q65 0 138 45v-101q-69 -34 -132 -34q-31 0 -80 13l-66 -185h-44l72 203q-47 34 -67.5 58.5t-30.5 60.5q-9 27 -9 58
q0 90 64.5 152.5t157.5 62.5h24z" />
    <glyph glyph-name="sterling" unicode="&#xa3;" horiz-adv-x="552" 
d="M179 80q-36 22 -59 22q-16 0 -26 -10t-10 -24t10 -24t24 -10q29 0 61 46zM476 482h-90q-7 89 -73 89q-33 0 -52 -22.5t-19 -60.5q0 -32 21 -122h130v-71h-114q6 -28 6 -49q0 -55 -25 -125q60 -35 85 -46.5t43 -11.5q58 0 63 89v10h76q0 -94 -47 -144q-35 -38 -96 -38
q-31 0 -59 12t-101 57q-51 -67 -105 -67q-34 0 -58 25.5t-24 62.5q0 40 27 66.5t66 26.5q26 0 71 -18q5 25 5 43q0 48 -20 108h-135v70h121q-12 71 -12 101q0 103 71 150q42 28 89 28q97 0 139 -91q12 -26 17 -72z" />
    <glyph glyph-name="currency" unicode="&#xa4;" horiz-adv-x="667" 
d="M95 518l43 44l63 -63q37 28 63 36.5t75 8.5q39 0 64.5 -9t62.5 -36l62 63l43 -44l-62 -62q28 -40 36.5 -66t8.5 -70q0 -42 -9 -67t-36 -61l62 -63l-43 -43l-62 62q-39 -27 -65 -36t-68 -9q-45 0 -70.5 8.5t-61.5 36.5l-62 -62l-44 43l63 63q-27 42 -35.5 68t-8.5 67
t8.5 66.5t35.5 62.5zM175 323q0 -65 46.5 -112t111.5 -47q66 0 112.5 47t46.5 112q0 66 -46 112.5t-111 46.5q-66 0 -113 -46.5t-47 -112.5z" />
    <glyph glyph-name="yen" unicode="&#xa5;" horiz-adv-x="552" 
d="M189 525h187l58 96h94l-58 -96h41v-58h-76l-77 -126h153v-58h-188v-283h-81v283h-189v58h154l-77 126h-77v58h41l-58 96h94zM341 467h-117l59 -97z" />
    <glyph glyph-name="brokenbar" unicode="&#xa6;" horiz-adv-x="527" 
d="M231 218h65v-353h-65v353zM231 696h65v-354h-65v354z" />
    <glyph glyph-name="section" unicode="&#xa7;" horiz-adv-x="438" 
d="M199 128l35 -21q91 35 91 113q0 39 -39 72q-21 18 -87 59q-91 -39 -91 -110q0 -32 19 -56t72 -57zM384 507h-85q-18 64 -86 64q-32 0 -51.5 -15t-19.5 -40q0 -22 21.5 -42.5t72.5 -48.5q86 -47 124 -95t38 -109q0 -56 -39 -98q-21 -24 -70 -50q47 -32 67.5 -63t20.5 -71
q0 -52 -45.5 -90t-107.5 -38q-70 0 -116 36.5t-58 101.5h84q14 -35 33.5 -49t52.5 -14q31 0 51.5 15t20.5 38t-22.5 45.5t-75.5 51.5q-85 46 -122.5 92t-37.5 105q0 58 41 102q23 25 70 49q-88 56 -88 131q0 56 46 93t115 37q67 0 115 -42q21 -19 31.5 -38.5t19.5 -57.5z
" />
    <glyph glyph-name="dieresis" unicode="&#xa8;" horiz-adv-x="333" 
d="M68 587q21 0 36 -15t15 -36q0 -22 -15 -37t-36 -15q-22 0 -37 15t-15 37q0 21 15 36t37 15zM265 587q22 0 37 -15t15 -36q0 -22 -15 -37t-37 -15q-21 0 -36 15t-15 37q0 21 15 36t36 15z" />
    <glyph glyph-name="copyright" unicode="&#xa9;" horiz-adv-x="738" 
d="M487 300l60 -18q-15 -62 -62.5 -98t-114.5 -36q-91 0 -142.5 58t-51.5 159q0 91 54 146t143 55q64 0 107 -30t59 -85l-58 -14q-29 75 -114 75q-56 0 -90.5 -43t-34.5 -113t34 -110t93 -40q43 0 75 25.5t43 68.5zM369 728q152 0 260 -108t108 -260q0 -153 -108 -261
t-260 -108q-153 0 -261 108t-108 261q0 152 108 260t261 108zM369 667q-127 0 -217.5 -90t-90.5 -217q0 -128 90.5 -218t217.5 -90t217 90.5t90 217.5t-90 217t-217 90z" />
    <glyph glyph-name="ordfeminine" unicode="&#xaa;" horiz-adv-x="365" 
d="M184 591q-36 0 -62.5 -25.5t-26.5 -59.5q0 -38 25.5 -64t62.5 -26q36 0 62 26t26 61q0 37 -25.5 62.5t-61.5 25.5zM264 374v51h-2q-43 -58 -99 -58q-53 0 -89 40.5t-36 98.5q0 56 37 96t88 40q58 0 98 -59h2v52h54v-261h-53z" />
    <glyph glyph-name="guillemotleft" unicode="&#xab;" 
d="M135 501h90l-95 -230l93 -231h-89l-93 229zM371 500h92l-96 -230l93 -231h-90l-93 231z" />
    <glyph glyph-name="logicalnot" unicode="&#xac;" horiz-adv-x="667" 
d="M68 476h531v-302h-64v238h-467v64z" />
    <glyph glyph-name="registered" unicode="&#xae;" horiz-adv-x="738" 
d="M207 156v396h136q75 0 108 -13q26 -11 44 -37t18 -54q0 -48 -31.5 -79.5t-81.5 -34.5v-2q22 -8 42 -29.5t50 -69.5l48 -77h-78l-35 62q-38 67 -59.5 86.5t-58.5 19.5h-38v-168h-64zM271 379h78q96 0 96 60q0 33 -22.5 46t-78.5 13h-73v-119zM369 728q152 0 260 -108
t108 -260q0 -153 -108 -261t-260 -108q-153 0 -261 108t-108 261q0 152 108 260t261 108zM369 667q-127 0 -217.5 -90t-90.5 -217q0 -128 90.5 -218t217.5 -90t217 90.5t90 217.5t-90 217t-217 90z" />
    <glyph glyph-name="macron" unicode="&#xaf;" horiz-adv-x="333" 
d="M14 493v72h305v-72h-305z" />
    <glyph glyph-name="macron" unicode="&#x2c9;" horiz-adv-x="333" 
d="M14 493v72h305v-72h-305z" />
    <glyph glyph-name="degree" unicode="&#xb0;" horiz-adv-x="400" 
d="M65 593q0 56 39.5 95.5t95.5 39.5t95.5 -39.5t39.5 -95.5t-39.5 -96t-95.5 -40t-95.5 40t-39.5 96zM118 593q0 -34 24 -58.5t58 -24.5t58 24t24 59q0 34 -24 58t-58 24t-58 -24t-24 -58z" />
    <glyph glyph-name="plusminus" unicode="&#xb1;" horiz-adv-x="667" 
d="M68 437h233v234h64v-234h234v-64h-234v-233h-64v233h-233v64zM68 42h531v-64h-531v64z" />
    <glyph glyph-name="twosuperior" unicode="&#xb2;" horiz-adv-x="385" 
d="M179 299h154v-60h-293l203 212q33 35 33 73q0 28 -22.5 45.5t-60.5 17.5q-40 0 -59 -14t-24 -48h-60q3 60 39 91.5t103 31.5q64 0 104.5 -36t40.5 -93q0 -59 -41 -100z" />
    <glyph glyph-name="threesuperior" unicode="&#xb3;" horiz-adv-x="385" 
d="M124 548h-65v3q0 43 36 70.5t91 27.5q62 0 99.5 -28.5t37.5 -76.5q0 -30 -14 -49.5t-51 -40.5q42 -23 57.5 -45.5t15.5 -59.5q0 -53 -39 -85.5t-102 -32.5q-70 0 -107 36q-15 13 -21.5 28.5t-11.5 45.5h64q4 -29 22 -42t55 -13q34 0 55 18t21 47q0 70 -90 73v57
q43 1 62 16t19 47q0 23 -18 36.5t-49 13.5q-57 0 -67 -46z" />
    <glyph glyph-name="acute" unicode="&#xb4;" horiz-adv-x="333" 
d="M109 477l65 136h115l-108 -136h-72z" />
    <glyph glyph-name="mu" unicode="&#xb5;" horiz-adv-x="556" 
d="M487 518v-518h-78v61h-2q-25 -40 -54 -56.5t-76 -16.5q-40 0 -66.5 14t-53.5 50h-2v-251h-87v717h87v-252q0 -70 7.5 -104t29.5 -58q32 -37 81 -37q47 0 80 28q29 25 38.5 59t9.5 110v254h86z" />
    <glyph glyph-name="mu" unicode="&#x3bc;" horiz-adv-x="556" 
d="M487 518v-518h-78v61h-2q-25 -40 -54 -56.5t-76 -16.5q-40 0 -66.5 14t-53.5 50h-2v-251h-87v717h87v-252q0 -70 7.5 -104t29.5 -58q32 -37 81 -37q47 0 80 28q29 25 38.5 59t9.5 110v254h86z" />
    <glyph glyph-name="paragraph" unicode="&#xb6;" horiz-adv-x="538" 
d="M196 -199v510q-92 5 -145 59.5t-53 142.5q0 61 28.5 108.5t79.5 71.5q51 23 123 23h309v-85h-70v-830h-83v830h-109v-830h-80z" />
    <glyph glyph-name="periodcentered" unicode="&#xb7;" horiz-adv-x="219" 
d="M110 383q29 0 50 -20.5t21 -49.5t-21 -50t-50 -21t-50 21t-21 50t21 49.5t50 20.5z" />
    <glyph glyph-name="periodcentered" unicode="&#x2219;" horiz-adv-x="219" 
d="M110 383q29 0 50 -20.5t21 -49.5t-21 -50t-50 -21t-50 21t-21 50t21 49.5t50 20.5z" />
    <glyph glyph-name="cedilla" unicode="&#xb8;" horiz-adv-x="333" 
d="M105 -75l26 86h65l-16 -52q39 -4 61 -23.5t22 -48.5q0 -42 -39.5 -67.5t-105.5 -25.5q-30 0 -66 6l5 57h11q5 0 11.5 -0.5t10 -1t5.5 -0.5q87 0 87 37q0 32 -69 33h-8z" />
    <glyph glyph-name="onesuperior" unicode="&#xb9;" horiz-adv-x="385" 
d="M109 638h115v-399h-60v339h-77z" />
    <glyph glyph-name="ordmasculine" unicode="&#xba;" horiz-adv-x="323" 
d="M161 642q57 0 99.5 -41t42.5 -96q0 -56 -41.5 -97.5t-97.5 -41.5q-58 0 -100.5 41.5t-42.5 97.5q0 54 42.5 95.5t97.5 41.5zM162 588q-35 0 -61 -25.5t-26 -59.5q0 -32 27 -57.5t61 -25.5q35 0 60.5 25t25.5 60q0 34 -25.5 58.5t-61.5 24.5z" />
    <glyph glyph-name="guillemotright" unicode="&#xbb;" 
d="M38 501h91l94 -231l-94 -230h-91l95 231zM276 501h89l95 -229l-95 -232h-90l94 229z" />
    <glyph glyph-name="onequarter" unicode="&#xbc;" horiz-adv-x="906" 
d="M740 233l-115 -137h115v137zM796 381v-285h38v-54h-38v-73h-55v73h-228zM95 637h115v-398h-60v339h-77zM623 642h65l-436 -686h-65z" />
    <glyph glyph-name="onehalf" unicode="&#xbd;" horiz-adv-x="906" 
d="M92 637h115v-398h-60v339h-77zM678 28h154v-59h-292l203 213q33 35 33 70q0 28 -23.5 46.5t-60.5 18.5q-41 0 -60 -14.5t-23 -48.5h-60q6 124 144 124q64 0 103.5 -35.5t39.5 -92.5q0 -59 -40 -101zM598 642h64l-436 -686h-64z" />
    <glyph glyph-name="threequarters" unicode="&#xbe;" horiz-adv-x="906" 
d="M758 233l-115 -137h115v137zM814 381v-285h38v-54h-38v-73h-55v73h-228zM127 548h-64v3q0 43 35.5 70t91.5 27q62 0 99 -28.5t37 -75.5q0 -30 -13.5 -49.5t-50.5 -40.5q42 -22 57.5 -44.5t15.5 -60.5q0 -53 -39 -85.5t-102 -32.5q-70 0 -107 36q-15 13 -21.5 28.5
t-11.5 45.5h64q4 -29 22 -42t55 -13q33 0 54 18t21 47q0 36 -21.5 54t-67.5 19v57q42 2 61.5 17t19.5 46q0 22 -18.5 36t-48.5 14q-57 0 -68 -46zM665 642h63l-436 -686h-64z" />
    <glyph glyph-name="questiondown" unicode="&#xbf;" horiz-adv-x="385" 
d="M275 75h81q-8 -89 -56 -137q-44 -41 -107 -41q-68 0 -115 42.5t-47 103.5q0 54 33.5 93t108.5 74q79 35 79 68q0 16 -13.5 26.5t-34.5 10.5q-29 0 -45 -14t-29 -50h-81q14 73 56 110q41 35 98 35q56 0 91.5 -32.5t35.5 -83.5q0 -46 -27.5 -78t-94.5 -63q-52 -23 -73 -44
t-21 -50q0 -28 22.5 -47.5t53.5 -19.5q77 0 85 97zM186 550q22 0 37.5 -15.5t15.5 -37.5t-15.5 -37.5t-37.5 -15.5t-37.5 15.5t-15.5 37.5t15.5 37.5t37.5 15.5z" />
    <glyph glyph-name="Agrave" unicode="&#xc0;" horiz-adv-x="604" 
d="M297 451l-100 -221h200zM297 646l294 -646h-89l-73 159h-264l-71 -159h-88zM363 684h-71l-113 136h118z" />
    <glyph glyph-name="Aacute" unicode="&#xc1;" horiz-adv-x="604" 
d="M297 451l-100 -221h200zM297 646l294 -646h-89l-73 159h-264l-71 -159h-88zM245 684l65 136h115l-108 -136h-72z" />
    <glyph glyph-name="Acircumflex" unicode="&#xc2;" horiz-adv-x="604" 
d="M297 451l-100 -221h200zM297 646l294 -646h-89l-73 159h-264l-71 -159h-88zM304 767l-56 -83h-100l106 136h93l110 -136h-100z" />
    <glyph glyph-name="Atilde" unicode="&#xc3;" horiz-adv-x="604" 
d="M297 451l-100 -221h200zM297 646l294 -646h-89l-73 159h-264l-71 -159h-88zM204 696h-65v6q0 46 28 75.5t72 29.5q31 0 74 -23l15 -7q24 -11 39 -11q16 0 24 9.5t11 32.5h64q-2 -53 -27 -82t-68 -29q-33 0 -73 23l-18 10q-23 12 -39 12q-17 0 -27 -11.5t-10 -30.5v-4z
" />
    <glyph glyph-name="Adieresis" unicode="&#xc4;" horiz-adv-x="604" 
d="M297 451l-100 -221h200zM297 646l294 -646h-89l-73 159h-264l-71 -159h-88zM204 794q21 0 36 -15t15 -36q0 -22 -15 -37t-36 -15q-22 0 -37 15t-15 37q0 21 15 36t37 15zM401 794q22 0 37 -15t15 -36q0 -22 -15 -37t-37 -15q-21 0 -36 15t-15 37q0 21 15 36t36 15z" />
    <glyph glyph-name="Aring" unicode="&#xc5;" horiz-adv-x="604" 
d="M297 451l-100 -221h200zM297 646l294 -646h-89l-73 159h-264l-71 -159h-88zM215 754q0 35 26 61t62 26q37 0 62.5 -26t25.5 -63q0 -38 -25.5 -64t-62.5 -26t-62.5 27t-25.5 65zM252 753q0 -23 15 -38.5t37 -15.5q21 0 36.5 15.5t15.5 37.5t-15 37.5t-37 15.5
q-21 0 -36.5 -15t-15.5 -37z" />
    <glyph glyph-name="AE" unicode="&#xc6;" horiz-adv-x="771" 
d="M402 537l-150 -273h152v273h-2zM359 622h384v-84h-255v-156h255v-84h-255v-214h254v-84h-338v194h-191l-108 -194h-94z" />
    <glyph glyph-name="Ccedilla" unicode="&#xc7;" horiz-adv-x="604" 
d="M568 601v-96q-102 49 -185 49q-109 0 -183 -69.5t-74 -172.5q0 -105 76 -174t190 -69q82 0 176 52v-97q-87 -45 -183 -45q-145 0 -247.5 97.5t-102.5 236.5q0 136 100.5 232.5t243.5 96.5q89 0 189 -41zM241 -75l26 86h65l-16 -52q39 -4 61 -23.5t22 -48.5
q0 -42 -39.5 -67.5t-105.5 -25.5q-30 0 -66 6l5 57h11q5 0 11.5 -0.5t10 -1t5.5 -0.5q87 0 87 37q0 32 -69 33h-8z" />
    <glyph glyph-name="Egrave" unicode="&#xc8;" horiz-adv-x="438" 
d="M58 622h345v-85h-261v-155h261v-84h-261v-214h261v-84h-345v622zM280 684h-71l-113 136h118z" />
    <glyph glyph-name="Eacute" unicode="&#xc9;" horiz-adv-x="438" 
d="M58 622h345v-85h-261v-155h261v-84h-261v-214h261v-84h-345v622zM162 684l65 136h115l-108 -136h-72z" />
    <glyph glyph-name="Ecircumflex" unicode="&#xca;" horiz-adv-x="438" 
d="M58 622h345v-85h-261v-155h261v-84h-261v-214h261v-84h-345v622zM221 767l-56 -83h-100l106 136h93l110 -136h-100z" />
    <glyph glyph-name="Edieresis" unicode="&#xcb;" horiz-adv-x="438" 
d="M58 622h345v-85h-261v-155h261v-84h-261v-214h261v-84h-345v622zM121 794q21 0 36 -15t15 -36q0 -22 -15 -37t-36 -15q-22 0 -37 15t-15 37q0 21 15 36t37 15zM318 794q22 0 37 -15t15 -36q0 -22 -15 -37t-37 -15q-21 0 -36 15t-15 37q0 21 15 36t36 15z" />
    <glyph glyph-name="Igrave" unicode="&#xcc;" horiz-adv-x="219" 
d="M64 622h84v-622h-84v622zM170 684h-71l-113 136h118z" />
    <glyph glyph-name="Iacute" unicode="&#xcd;" horiz-adv-x="219" 
d="M64 622h84v-622h-84v622zM52 684l65 136h115l-108 -136h-72z" />
    <glyph glyph-name="Icircumflex" unicode="&#xce;" horiz-adv-x="219" 
d="M64 622h84v-622h-84v622zM111 767l-56 -83h-100l106 136h93l110 -136h-100z" />
    <glyph glyph-name="Idieresis" unicode="&#xcf;" horiz-adv-x="219" 
d="M64 622h84v-622h-84v622zM11 794q21 0 36 -15t15 -36q0 -22 -15 -37t-36 -15q-22 0 -37 15t-15 37q0 21 15 36t37 15zM208 794q22 0 37 -15t15 -36q0 -22 -15 -37t-37 -15q-21 0 -36 15t-15 37q0 21 15 36t36 15z" />
    <glyph glyph-name="Eth" unicode="&#xd0;" horiz-adv-x="604" 
d="M158 538v-191h159v-74h-159v-190h50q131 0 206.5 60.5t75.5 165.5q0 101 -70 165t-180 64h-82zM77 621h151q168 0 258 -90q43 -43 67.5 -102.5t24.5 -118.5q0 -129 -93 -219q-92 -91 -253 -91h-155v272h-64v74h64v275z" />
    <glyph glyph-name="Ntilde" unicode="&#xd1;" horiz-adv-x="667" 
d="M60 647l460 -473v448h85v-651l-460 471v-442h-85v647zM235 696h-65v6q0 46 28 75.5t72 29.5q31 0 74 -23l15 -7q24 -11 39 -11q16 0 24 9.5t11 32.5h64q-2 -53 -27 -82t-68 -29q-33 0 -73 23l-18 10q-23 12 -39 12q-17 0 -27 -11.5t-10 -30.5v-4z" />
    <glyph glyph-name="Ograve" unicode="&#xd2;" horiz-adv-x="771" 
d="M378 555q-104 0 -177 -71.5t-73 -172.5q0 -103 75 -173t185 -70q101 0 174 71.5t73 171.5q0 103 -74 173.5t-183 70.5zM385 642q140 0 240 -96.5t100 -230.5q0 -142 -99 -239t-244 -97q-143 0 -243 98t-100 238q0 136 101.5 231.5t244.5 95.5zM446 684h-71l-113 136h118z
" />
    <glyph glyph-name="Oacute" unicode="&#xd3;" horiz-adv-x="771" 
d="M378 555q-104 0 -177 -71.5t-73 -172.5q0 -103 75 -173t185 -70q101 0 174 71.5t73 171.5q0 103 -74 173.5t-183 70.5zM385 642q140 0 240 -96.5t100 -230.5q0 -142 -99 -239t-244 -97q-143 0 -243 98t-100 238q0 136 101.5 231.5t244.5 95.5zM328 684l65 136h115
l-108 -136h-72z" />
    <glyph glyph-name="Ocircumflex" unicode="&#xd4;" horiz-adv-x="771" 
d="M378 555q-104 0 -177 -71.5t-73 -172.5q0 -103 75 -173t185 -70q101 0 174 71.5t73 171.5q0 103 -74 173.5t-183 70.5zM385 642q140 0 240 -96.5t100 -230.5q0 -142 -99 -239t-244 -97q-143 0 -243 98t-100 238q0 136 101.5 231.5t244.5 95.5zM387 767l-56 -83h-100
l106 136h93l110 -136h-100z" />
    <glyph glyph-name="Otilde" unicode="&#xd5;" horiz-adv-x="771" 
d="M378 555q-104 0 -177 -71.5t-73 -172.5q0 -103 75 -173t185 -70q101 0 174 71.5t73 171.5q0 103 -74 173.5t-183 70.5zM385 642q140 0 240 -96.5t100 -230.5q0 -142 -99 -239t-244 -97q-143 0 -243 98t-100 238q0 136 101.5 231.5t244.5 95.5zM287 696h-65v6
q0 46 28 75.5t72 29.5q31 0 74 -23l15 -7q24 -11 39 -11q16 0 24 9.5t11 32.5h64q-2 -53 -27 -82t-68 -29q-33 0 -73 23l-18 10q-23 12 -39 12q-17 0 -27 -11.5t-10 -30.5v-4z" />
    <glyph glyph-name="Odieresis" unicode="&#xd6;" horiz-adv-x="771" 
d="M378 555q-104 0 -177 -71.5t-73 -172.5q0 -103 75 -173t185 -70q101 0 174 71.5t73 171.5q0 103 -74 173.5t-183 70.5zM385 642q140 0 240 -96.5t100 -230.5q0 -142 -99 -239t-244 -97q-143 0 -243 98t-100 238q0 136 101.5 231.5t244.5 95.5zM287 794q21 0 36 -15
t15 -36q0 -22 -15 -37t-36 -15q-22 0 -37 15t-15 37q0 21 15 36t37 15zM484 794q22 0 37 -15t15 -36q0 -22 -15 -37t-37 -15q-21 0 -36 15t-15 37q0 21 15 36t36 15z" />
    <glyph glyph-name="multiply" unicode="&#xd7;" horiz-adv-x="667" 
d="M90 523l45 45l199 -200l200 200l45 -46l-199 -199l197 -198l-45 -45l-198 198l-198 -198l-45 45l198 198z" />
    <glyph glyph-name="Oslash" unicode="&#xd8;" horiz-adv-x="771" 
d="M199 146l324 376q-64 32 -124 32q-108 0 -184 -72t-76 -175q0 -49 11.5 -80.5t48.5 -80.5zM582 475l-327 -375q62 -31 121 -31q111 0 186.5 73t75.5 181q0 42 -11.5 72.5t-44.5 79.5zM671 694l56 -50l-86 -100q49 -60 67 -109q19 -51 19 -113q0 -145 -100.5 -243.5
t-248.5 -98.5q-53 0 -91.5 10.5t-90.5 39.5l-93 -106l-53 50l89 103q-45 50 -65 101q-24 58 -24 124q0 144 102 243t251 99q50 0 89 -11t93 -40z" />
    <glyph glyph-name="Ugrave" unicode="&#xd9;" horiz-adv-x="604" 
d="M62 621h85v-382q0 -85 40.5 -131.5t115.5 -46.5t116 43t41 120v397h85v-391q0 -115 -65 -183t-174 -68q-107 0 -171 64q-39 39 -56 87.5t-17 122.5v368zM363 684h-71l-113 136h118z" />
    <glyph glyph-name="Uacute" unicode="&#xda;" horiz-adv-x="604" 
d="M62 621h85v-382q0 -85 40.5 -131.5t115.5 -46.5t116 43t41 120v397h85v-391q0 -115 -65 -183t-174 -68q-107 0 -171 64q-39 39 -56 87.5t-17 122.5v368zM245 684l65 136h115l-108 -136h-72z" />
    <glyph glyph-name="Ucircumflex" unicode="&#xdb;" horiz-adv-x="604" 
d="M62 621h85v-382q0 -85 40.5 -131.5t115.5 -46.5t116 43t41 120v397h85v-391q0 -115 -65 -183t-174 -68q-107 0 -171 64q-39 39 -56 87.5t-17 122.5v368zM304 767l-56 -83h-100l106 136h93l110 -136h-100z" />
    <glyph glyph-name="Udieresis" unicode="&#xdc;" horiz-adv-x="604" 
d="M62 621h85v-382q0 -85 40.5 -131.5t115.5 -46.5t116 43t41 120v397h85v-391q0 -115 -65 -183t-174 -68q-107 0 -171 64q-39 39 -56 87.5t-17 122.5v368zM204 794q21 0 36 -15t15 -36q0 -22 -15 -37t-36 -15q-22 0 -37 15t-15 37q0 21 15 36t37 15zM401 794q22 0 37 -15
t15 -36q0 -22 -15 -37t-37 -15q-21 0 -36 15t-15 37q0 21 15 36t36 15z" />
    <glyph glyph-name="Yacute" unicode="&#xdd;" horiz-adv-x="552" 
d="M28 622h94l153 -250l151 250h94l-204 -337v-285h-85v284zM219 684l65 136h115l-108 -136h-72z" />
    <glyph glyph-name="Thorn" unicode="&#xde;" 
d="M177 420v-218q68 2 104 12t58 32q25 25 25 69q0 51 -40 78t-116 27h-31zM177 622v-127h33q110 0 176.5 -49t66.5 -130q0 -83 -70.5 -135.5t-180.5 -52.5h-25v-128h-83v622h83z" />
    <glyph glyph-name="germandbls" unicode="&#xdf;" horiz-adv-x="552" 
d="M77 1v414q0 103 55.5 165t148.5 62q89 0 145 -47.5t56 -122.5q0 -59 -44 -97q-32 -27 -90 -45v-2q82 -17 118 -60q36 -44 36 -115q0 -77 -47.5 -120t-133.5 -43q-52 0 -101 26v74q47 -26 94 -26t76.5 31.5t29.5 81.5q0 46 -37 81t-87 35h-42v72h47q42 0 71 28t29 68
q0 44 -33 73t-82 28q-54 0 -89.5 -36.5t-35.5 -91.5v-433h-84z" />
    <glyph glyph-name="agrave" unicode="&#xe0;" horiz-adv-x="552" 
d="M273 334q-54 0 -94 -39t-40 -92q0 -57 39 -97t95 -40q55 0 94.5 39.5t39.5 94.5q0 56 -39.5 95t-94.5 39zM396 321v82h85v-403h-85v80h-2q-23 -33 -48 -54q-48 -37 -104 -37q-80 0 -136 62.5t-56 151.5q0 85 56.5 148t133.5 63q62 0 111 -41q24 -19 43 -52h2zM337 477
h-71l-113 136h118z" />
    <glyph glyph-name="aacute" unicode="&#xe1;" horiz-adv-x="552" 
d="M273 334q-54 0 -94 -39t-40 -92q0 -57 39 -97t95 -40q55 0 94.5 39.5t39.5 94.5q0 56 -39.5 95t-94.5 39zM396 321v82h85v-403h-85v80h-2q-23 -33 -48 -54q-48 -37 -104 -37q-80 0 -136 62.5t-56 151.5q0 85 56.5 148t133.5 63q62 0 111 -41q24 -19 43 -52h2zM219 477
l65 136h115l-108 -136h-72z" />
    <glyph glyph-name="acircumflex" unicode="&#xe2;" horiz-adv-x="552" 
d="M273 334q-54 0 -94 -39t-40 -92q0 -57 39 -97t95 -40q55 0 94.5 39.5t39.5 94.5q0 56 -39.5 95t-94.5 39zM396 321v82h85v-403h-85v80h-2q-23 -33 -48 -54q-48 -37 -104 -37q-80 0 -136 62.5t-56 151.5q0 85 56.5 148t133.5 63q62 0 111 -41q24 -19 43 -52h2zM278 560
l-56 -83h-100l106 136h93l110 -136h-100z" />
    <glyph glyph-name="atilde" unicode="&#xe3;" horiz-adv-x="552" 
d="M273 334q-54 0 -94 -39t-40 -92q0 -57 39 -97t95 -40q55 0 94.5 39.5t39.5 94.5q0 56 -39.5 95t-94.5 39zM396 321v82h85v-403h-85v80h-2q-23 -33 -48 -54q-48 -37 -104 -37q-80 0 -136 62.5t-56 151.5q0 85 56.5 148t133.5 63q62 0 111 -41q24 -19 43 -52h2zM178 489
h-65v6q0 46 28 75.5t72 29.5q31 0 74 -23l15 -7q24 -11 39 -11q16 0 24 9.5t11 32.5h64q-2 -53 -27 -82t-68 -29q-33 0 -73 23l-18 10q-23 12 -39 12q-17 0 -27 -11.5t-10 -30.5v-4z" />
    <glyph glyph-name="adieresis" unicode="&#xe4;" horiz-adv-x="552" 
d="M273 334q-54 0 -94 -39t-40 -92q0 -57 39 -97t95 -40q55 0 94.5 39.5t39.5 94.5q0 56 -39.5 95t-94.5 39zM396 321v82h85v-403h-85v80h-2q-23 -33 -48 -54q-48 -37 -104 -37q-80 0 -136 62.5t-56 151.5q0 85 56.5 148t133.5 63q62 0 111 -41q24 -19 43 -52h2zM178 587
q21 0 36 -15t15 -36q0 -22 -15 -37t-36 -15q-22 0 -37 15t-15 37q0 21 15 36t37 15zM375 587q22 0 37 -15t15 -36q0 -22 -15 -37t-37 -15q-21 0 -36 15t-15 37q0 21 15 36t36 15z" />
    <glyph glyph-name="aring" unicode="&#xe5;" horiz-adv-x="552" 
d="M273 334q-54 0 -94 -39t-40 -92q0 -57 39 -97t95 -40q55 0 94.5 39.5t39.5 94.5q0 56 -39.5 95t-94.5 39zM396 321v82h85v-403h-85v80h-2q-23 -33 -48 -54q-48 -37 -104 -37q-80 0 -136 62.5t-56 151.5q0 85 56.5 148t133.5 63q62 0 111 -41q24 -19 43 -52h2zM189 547
q0 35 26 61t62 26q37 0 62.5 -26t25.5 -63q0 -38 -25.5 -64t-62.5 -26t-62.5 27t-25.5 65zM226 546q0 -23 15 -38.5t37 -15.5q21 0 36.5 15.5t15.5 37.5t-15 37.5t-37 15.5q-21 0 -36.5 -15t-15.5 -37z" />
    <glyph glyph-name="ae" unicode="&#xe6;" horiz-adv-x="823" 
d="M464 254h237q-38 82 -119 82t-118 -82zM251 334q-57 0 -97 -39t-40 -95q0 -54 40 -93.5t94 -39.5t92.5 39t38.5 94q0 56 -37.5 95t-90.5 39zM369 331v72h83v-33q39 27 64.5 35.5t64.5 8.5q86 0 147.5 -64t61.5 -152v-15h-336q11 -54 47 -84.5t87 -30.5q69 0 118 58
l62 -45q-23 -31 -43 -46q-59 -45 -143 -45q-63 0 -129 43v-32h-83v75h-2q-63 -87 -157 -87q-74 0 -130 64.5t-56 149.5q0 86 55.5 148.5t132.5 62.5q90 0 154 -83h2z" />
    <glyph glyph-name="ccedilla" unicode="&#xe7;" horiz-adv-x="385" 
d="M359 123v-97q-67 -37 -126 -37q-84 0 -146.5 62.5t-62.5 145.5q0 94 62 155.5t157 61.5q55 0 116 -29v-95q-64 41 -121 41q-53 0 -92.5 -37t-39.5 -87q0 -56 37 -94.5t91 -38.5t125 49zM131 -75l26 86h65l-16 -52q39 -4 61 -23.5t22 -48.5q0 -42 -39.5 -67.5
t-105.5 -25.5q-30 0 -66 6l5 57h11q5 0 11.5 -0.5t10 -1t5.5 -0.5q87 0 87 37q0 32 -69 33h-8z" />
    <glyph glyph-name="egrave" unicode="&#xe8;" 
d="M124 253h246q-41 83 -121 83q-88 0 -125 -83zM459 185h-344q12 -57 46 -86q39 -33 92 -33q71 0 121 60l62 -47q-20 -26 -41 -43q-63 -47 -146 -47q-90 0 -150.5 61.5t-60.5 152.5q0 87 62 149t149 62q66 -1 118.5 -37.5t76.5 -99.5q14 -36 15 -92zM311 477h-71l-113 136
h118z" />
    <glyph glyph-name="eacute" unicode="&#xe9;" 
d="M124 253h246q-41 83 -121 83q-88 0 -125 -83zM459 185h-344q12 -57 46 -86q39 -33 92 -33q71 0 121 60l62 -47q-20 -26 -41 -43q-63 -47 -146 -47q-90 0 -150.5 61.5t-60.5 152.5q0 87 62 149t149 62q66 -1 118.5 -37.5t76.5 -99.5q14 -36 15 -92zM193 477l65 136h115
l-108 -136h-72z" />
    <glyph glyph-name="ecircumflex" unicode="&#xea;" 
d="M124 253h246q-41 83 -121 83q-88 0 -125 -83zM459 185h-344q12 -57 46 -86q39 -33 92 -33q71 0 121 60l62 -47q-20 -26 -41 -43q-63 -47 -146 -47q-90 0 -150.5 61.5t-60.5 152.5q0 87 62 149t149 62q66 -1 118.5 -37.5t76.5 -99.5q14 -36 15 -92zM252 560l-56 -83h-100
l106 136h93l110 -136h-100z" />
    <glyph glyph-name="edieresis" unicode="&#xeb;" 
d="M124 253h246q-41 83 -121 83q-88 0 -125 -83zM459 185h-344q12 -57 46 -86q39 -33 92 -33q71 0 121 60l62 -47q-20 -26 -41 -43q-63 -47 -146 -47q-90 0 -150.5 61.5t-60.5 152.5q0 87 62 149t149 62q66 -1 118.5 -37.5t76.5 -99.5q14 -36 15 -92zM152 587q21 0 36 -15
t15 -36q0 -22 -15 -37t-36 -15q-22 0 -37 15t-15 37q0 21 15 36t37 15zM349 587q22 0 37 -15t15 -36q0 -22 -15 -37t-37 -15q-21 0 -36 15t-15 37q0 21 15 36t36 15z" />
    <glyph glyph-name="igrave" unicode="&#xec;" horiz-adv-x="219" 
d="M65 403h84v-403h-84v403zM170 477h-71l-113 136h118z" />
    <glyph glyph-name="iacute" unicode="&#xed;" horiz-adv-x="219" 
d="M65 403h84v-403h-84v403zM52 477l65 136h115l-108 -136h-72z" />
    <glyph glyph-name="icircumflex" unicode="&#xee;" horiz-adv-x="219" 
d="M65 403h84v-403h-84v403zM111 560l-56 -83h-100l106 136h93l110 -136h-100z" />
    <glyph glyph-name="idieresis" unicode="&#xef;" horiz-adv-x="219" 
d="M65 403h84v-403h-84v403zM11 587q21 0 36 -15t15 -36q0 -22 -15 -37t-36 -15q-22 0 -37 15t-15 37q0 21 15 36t37 15zM208 587q22 0 37 -15t15 -36q0 -22 -15 -37t-37 -15q-21 0 -36 15t-15 37q0 21 15 36t36 15z" />
    <glyph glyph-name="eth" unicode="&#xf0;" 
d="M262 330q-54 0 -93 -38.5t-39 -91.5q0 -49 39 -87t90 -38q56 0 94 37.5t38 92.5q0 51 -38 88t-91 37zM138 593l40 56q45 -13 100 -45l92 44l27 -56l-62 -32q45 -41 66 -69.5t42 -72.5q36 -81 36 -176q0 -111 -61.5 -182t-156.5 -71q-87 0 -151 64t-64 151q0 83 64.5 146
t149.5 63q35 0 58.5 -8.5t49.5 -32.5l2 2q-11 40 -32 74q-15 24 -29 39.5t-43 38.5l-137 -68l-29 57l104 51q-11 5 -19.5 8.5l-21 8.5z" />
    <glyph glyph-name="ntilde" unicode="&#xf1;" horiz-adv-x="438" 
d="M124 403v-67q40 44 69.5 61t63.5 17q55 0 93.5 -36t38.5 -87v-291h-85v266q0 33 -21 54.5t-54 21.5q-43 0 -73.5 -36t-30.5 -87v-219h-84v403h83zM121 489h-65v6q0 46 28 75.5t72 29.5q31 0 74 -23l15 -7q24 -11 39 -11q16 0 24 9.5t11 32.5h64q-2 -53 -27 -82t-68 -29
q-33 0 -73 23l-18 10q-23 12 -39 12q-17 0 -27 -11.5t-10 -30.5v-4z" />
    <glyph glyph-name="ograve" unicode="&#xf2;" 
d="M252 330q-56 0 -95.5 -38t-39.5 -92q0 -51 40 -89t95 -38q53 0 92.5 39t39.5 91t-39 89.5t-93 37.5zM249 414q88 0 152.5 -63t64.5 -148t-63.5 -149.5t-147.5 -64.5q-90 0 -155.5 63.5t-65.5 150.5q0 83 65 147t150 64zM311 477h-71l-113 136h118z" />
    <glyph glyph-name="oacute" unicode="&#xf3;" 
d="M252 330q-56 0 -95.5 -38t-39.5 -92q0 -51 40 -89t95 -38q53 0 92.5 39t39.5 91t-39 89.5t-93 37.5zM249 414q88 0 152.5 -63t64.5 -148t-63.5 -149.5t-147.5 -64.5q-90 0 -155.5 63.5t-65.5 150.5q0 83 65 147t150 64zM193 477l65 136h115l-108 -136h-72z" />
    <glyph glyph-name="ocircumflex" unicode="&#xf4;" 
d="M252 330q-56 0 -95.5 -38t-39.5 -92q0 -51 40 -89t95 -38q53 0 92.5 39t39.5 91t-39 89.5t-93 37.5zM249 414q88 0 152.5 -63t64.5 -148t-63.5 -149.5t-147.5 -64.5q-90 0 -155.5 63.5t-65.5 150.5q0 83 65 147t150 64zM252 560l-56 -83h-100l106 136h93l110 -136h-100z
" />
    <glyph glyph-name="otilde" unicode="&#xf5;" 
d="M252 330q-56 0 -95.5 -38t-39.5 -92q0 -51 40 -89t95 -38q53 0 92.5 39t39.5 91t-39 89.5t-93 37.5zM249 414q88 0 152.5 -63t64.5 -148t-63.5 -149.5t-147.5 -64.5q-90 0 -155.5 63.5t-65.5 150.5q0 83 65 147t150 64zM152 489h-65v6q0 46 28 75.5t72 29.5q31 0 74 -23
l15 -7q24 -11 39 -11q16 0 24 9.5t11 32.5h64q-2 -53 -27 -82t-68 -29q-33 0 -73 23l-18 10q-23 12 -39 12q-17 0 -27 -11.5t-10 -30.5v-4z" />
    <glyph glyph-name="odieresis" unicode="&#xf6;" 
d="M252 330q-56 0 -95.5 -38t-39.5 -92q0 -51 40 -89t95 -38q53 0 92.5 39t39.5 91t-39 89.5t-93 37.5zM249 414q88 0 152.5 -63t64.5 -148t-63.5 -149.5t-147.5 -64.5q-90 0 -155.5 63.5t-65.5 150.5q0 83 65 147t150 64zM152 587q21 0 36 -15t15 -36q0 -22 -15 -37
t-36 -15q-22 0 -37 15t-15 37q0 21 15 36t37 15zM349 587q22 0 37 -15t15 -36q0 -22 -15 -37t-37 -15q-21 0 -36 15t-15 37q0 21 15 36t36 15z" />
    <glyph glyph-name="divide" unicode="&#xf7;" horiz-adv-x="667" 
d="M291 529q1 16 13 27.5t29 11.5q16 0 28 -12t12 -29t-12 -29.5t-28 -12.5q-17 0 -29.5 13t-12.5 31zM291 123q0 17 12.5 29.5t29.5 12.5t29 -12t12 -29t-12 -29.5t-29 -12.5t-29.5 12t-12.5 29zM68 354h532v-62h-532v62z" />
    <glyph glyph-name="oslash" unicode="&#xf8;" 
d="M145 130l164 189q-35 12 -56 12q-55 0 -94 -38t-39 -92q0 -31 25 -71zM359 278l-165 -188q32 -14 56 -14q55 0 94.5 38.5t39.5 92.5q0 32 -25 71zM419 446l48 -41l-54 -63q55 -68 55 -132q0 -90 -63.5 -154t-152.5 -64q-58 0 -114 33l-55 -63l-48 42l54 63
q-30 38 -41.5 68t-11.5 71q0 83 65 146t151 63q55 0 113 -32z" />
    <glyph glyph-name="ugrave" unicode="&#xf9;" horiz-adv-x="438" 
d="M42 403h85v-227q0 -105 92 -105q41 0 65 28t24 77v227h84v-241q0 -76 -49 -124.5t-126 -48.5q-79 0 -127 48.5t-48 127.5v238zM280 477h-71l-113 136h118z" />
    <glyph glyph-name="uacute" unicode="&#xfa;" horiz-adv-x="438" 
d="M42 403h85v-227q0 -105 92 -105q41 0 65 28t24 77v227h84v-241q0 -76 -49 -124.5t-126 -48.5q-79 0 -127 48.5t-48 127.5v238zM162 477l65 136h115l-108 -136h-72z" />
    <glyph glyph-name="ucircumflex" unicode="&#xfb;" horiz-adv-x="438" 
d="M42 403h85v-227q0 -105 92 -105q41 0 65 28t24 77v227h84v-241q0 -76 -49 -124.5t-126 -48.5q-79 0 -127 48.5t-48 127.5v238zM221 560l-56 -83h-100l106 136h93l110 -136h-100z" />
    <glyph glyph-name="udieresis" unicode="&#xfc;" horiz-adv-x="438" 
d="M42 403h85v-227q0 -105 92 -105q41 0 65 28t24 77v227h84v-241q0 -76 -49 -124.5t-126 -48.5q-79 0 -127 48.5t-48 127.5v238zM121 587q21 0 36 -15t15 -36q0 -22 -15 -37t-36 -15q-22 0 -37 15t-15 37q0 21 15 36t37 15zM318 587q22 0 37 -15t15 -36q0 -22 -15 -37
t-37 -15q-21 0 -36 15t-15 37q0 21 15 36t36 15z" />
    <glyph glyph-name="yacute" unicode="&#xfd;" 
d="M31 403h96l146 -219l101 219h88l-272 -592h-89l133 288zM193 477l65 136h115l-108 -136h-72z" />
    <glyph glyph-name="thorn" unicode="&#xfe;" horiz-adv-x="552" 
d="M160 634v-313h2q15 29 35 47q52 46 117 46q80 0 136 -61.5t56 -148.5t-56 -150t-133 -63q-65 0 -115 41q-22 18 -40 49h-2v-270h-82v823h82zM282 336q-56 0 -95.5 -39.5t-39.5 -94.5t40 -94.5t95 -39.5t95 39.5t40 94.5t-40 94.5t-95 39.5z" />
    <glyph glyph-name="ydieresis" unicode="&#xff;" 
d="M31 403h96l146 -219l101 219h88l-272 -592h-89l133 288zM152 587q21 0 36 -15t15 -36q0 -22 -15 -37t-36 -15q-22 0 -37 15t-15 37q0 21 15 36t37 15zM349 587q22 0 37 -15t15 -36q0 -22 -15 -37t-37 -15q-21 0 -36 15t-15 37q0 21 15 36t36 15z" />
    <glyph glyph-name="dotlessi" unicode="&#x131;" horiz-adv-x="219" 
d="M65 403h84v-403h-84v403z" />
    <glyph glyph-name="Lslash" unicode="&#x141;" horiz-adv-x="385" 
d="M85 622h83v-222l84 97v-99l-84 -96v-219h204v-83h-287v205l-57 -67v99l57 66v319z" />
    <glyph glyph-name="lslash" unicode="&#x142;" horiz-adv-x="219" 
d="M78 635h82v-244l56 47v-82l-56 -48v-308h-82v240l-55 -46v81l55 47v313z" />
    <glyph glyph-name="OE" unicode="&#x152;" horiz-adv-x="771" 
d="M407 84v453h-35q-69 0 -110 -14t-77 -50q-65 -65 -65 -163q0 -91 64 -157q53 -56 122 -66q26 -3 61 -3h18h17h5zM736 621v-84h-247v-155h246v-83h-246v-215h245v-84h-381q-140 0 -231 88t-91 224q0 128 89 218.5t215 90.5h401z" />
    <glyph glyph-name="oe" unicode="&#x153;" horiz-adv-x="823" 
d="M463 256h240q-43 81 -118 81q-87 0 -122 -81zM249 331q-57 0 -96 -38t-39 -93q0 -50 39 -87t93 -37q52 0 90 38t38 89q0 53 -36.5 90.5t-88.5 37.5zM705 128l64 -47q-40 -46 -83 -67q-46 -23 -98 -23t-93 20q-25 12 -40 25t-38 41q-37 -46 -78 -65q-43 -22 -93 -22
q-87 0 -152.5 65t-65.5 151q0 85 66.5 147t157.5 62q43 0 85 -20q25 -13 40.5 -25.5t37.5 -39.5q24 28 39.5 40.5t41.5 24.5q41 20 91 20q87 0 145.5 -66t58.5 -164h-335q26 -117 133 -117q73 0 116 60z" />
    <glyph glyph-name="Scaron" unicode="&#x160;" 
d="M445 553l-69 -55q-34 34 -56 45t-58 11q-46 0 -74.5 -20.5t-28.5 -53.5q0 -28 24.5 -50t84.5 -47q54 -23 77.5 -37t59.5 -46q55 -58 55 -134q0 -78 -56.5 -132.5t-136.5 -54.5q-102 0 -171 72q-33 35 -59 99l85 24q47 -105 142 -105q47 0 77.5 27.5t30.5 70.5
q0 42 -38 78q-25 25 -93 53q-49 20 -69.5 31.5t-51.5 39.5q-49 52 -49 112q0 67 53.5 114t130.5 47q62 0 117 -29q38 -19 73 -60zM259 737l54 83h100l-110 -136h-94l-105 136h100z" />
    <glyph glyph-name="scaron" unicode="&#x161;" horiz-adv-x="333" 
d="M300 355l-57 -50q-44 32 -76 32q-52 0 -52 -38q0 -28 68 -54q64 -25 92.5 -55.5t28.5 -74.5q0 -51 -41.5 -88.5t-97.5 -37.5q-85 0 -140 79l67 32q34 -34 73 -34q26 0 46 14.5t20 33.5q0 34 -77 63q-62 24 -88.5 52t-26.5 68q0 50 37.5 83.5t95.5 33.5q56 0 128 -59z
M175 530l54 83h100l-110 -136h-94l-105 136h100z" />
    <glyph glyph-name="Ydieresis" unicode="&#x178;" horiz-adv-x="552" 
d="M28 622h94l153 -250l151 250h94l-204 -337v-285h-85v284zM178 794q21 0 36 -15t15 -36q0 -22 -15 -37t-36 -15q-22 0 -37 15t-15 37q0 21 15 36t37 15zM375 794q22 0 37 -15t15 -36q0 -22 -15 -37t-37 -15q-21 0 -36 15t-15 37q0 21 15 36t36 15z" />
    <glyph glyph-name="Zcaron" unicode="&#x17d;" 
d="M47 622h420l-297 -538h291v-84h-429l295 537h-280v85zM259 737l54 83h100l-110 -136h-94l-105 136h100z" />
    <glyph glyph-name="zcaron" unicode="&#x17e;" horiz-adv-x="438" 
d="M25 403h381l-243 -329h241v-74h-384l245 329h-240v74zM228 530l54 83h100l-110 -136h-94l-105 136h100z" />
    <glyph glyph-name="florin" unicode="&#x192;" horiz-adv-x="556" 
d="M25 -198l16 76q50 -11 76 -11q28 0 41 16t20 59l87 508h-98l11 68h99l11 66q13 72 36 102q36 43 107 43q33 0 92 -17l9 -2l-17 -75q-49 12 -78 12q-28 0 -40.5 -16t-20.5 -62l-10 -51h100l-12 -68h-100l-93 -533q-12 -69 -41.5 -98t-86.5 -29q-48 0 -108 12z" />
    <glyph glyph-name="circumflex" unicode="&#x2c6;" horiz-adv-x="333" 
d="M168 560l-56 -83h-100l106 136h93l110 -136h-100z" />
    <glyph glyph-name="caron" unicode="&#x2c7;" horiz-adv-x="333" 
d="M175 530l54 83h100l-110 -136h-94l-105 136h100z" />
    <glyph glyph-name="breve" unicode="&#x2d8;" horiz-adv-x="333" 
d="M251 608h60q-8 -61 -45 -93.5t-98 -32.5q-64 0 -101.5 32.5t-44.5 93.5h60q14 -65 84 -65q71 0 85 65z" />
    <glyph glyph-name="dotaccent" unicode="&#x2d9;" horiz-adv-x="333" 
d="M166 579q22 0 37 -15t15 -37q0 -21 -15 -36t-37 -15q-21 0 -36 15t-15 36q0 22 15 37t36 15z" />
    <glyph glyph-name="ring" unicode="&#x2da;" horiz-adv-x="333" 
d="M79 547q0 35 26 61t62 26q37 0 62.5 -26t25.5 -63q0 -38 -25.5 -64t-62.5 -26t-62.5 27t-25.5 65zM116 546q0 -23 15 -38.5t37 -15.5q21 0 36.5 15.5t15.5 37.5t-15 37.5t-37 15.5q-21 0 -36.5 -15t-15.5 -37z" />
    <glyph glyph-name="ogonek" unicode="&#x2db;" horiz-adv-x="333" 
d="M110 12h60q-19 -44 -19 -81q0 -32 20 -53t50 -21q38 0 82 23v-58q-57 -30 -107 -30q-48 0 -77.5 29.5t-29.5 78.5q0 40 21 112z" />
    <glyph glyph-name="tilde" unicode="&#x2dc;" horiz-adv-x="333" 
d="M68 489h-65v6q0 46 28 75.5t72 29.5q31 0 74 -23l15 -7q24 -11 39 -11q16 0 24 9.5t11 32.5h64q-2 -53 -27 -82t-68 -29q-33 0 -73 23l-18 10q-23 12 -39 12q-17 0 -27 -11.5t-10 -30.5v-4z" />
    <glyph glyph-name="hungarumlaut" unicode="&#x2dd;" horiz-adv-x="333" 
d="M28 477l60 136h114l-103 -136h-71zM198 477l62 136h113l-101 -136h-74z" />
    <glyph glyph-name="Delta" unicode="&#x394;" horiz-adv-x="608" 
d="M604 0h-578v43l232 657h116l230 -657v-43zM497 75l-167 485q-4 11 -7 21.5t-5.5 21l-3.5 14.5h-3q-4 -18 -15 -56l-168 -486h369z" />
    <glyph glyph-name="Delta" unicode="&#x2206;" horiz-adv-x="608" 
d="M604 0h-578v43l232 657h116l230 -657v-43zM497 75l-167 485q-4 11 -7 21.5t-5.5 21l-3.5 14.5h-3q-4 -18 -15 -56l-168 -486h369z" />
    <glyph glyph-name="_03A9h" unicode="&#x3a9;" horiz-adv-x="710" 
d="M655 0h-234v74q140 126 140 301q0 115 -55 187t-153 72q-95 0 -154 -72.5t-59 -187.5q0 -179 141 -300v-74h-234v74h151q-153 122 -153 316q0 140 86.5 231t222.5 91q142 0 222 -88.5t80 -231.5q0 -106 -44.5 -186t-109.5 -132h153v-74z" />
    <glyph glyph-name="pi" unicode="&#x3c0;" horiz-adv-x="653" 
d="M626 9q-26 -17 -71 -17q-64 0 -93.5 39t-29.5 99v302h-189v-297q0 -77 -14 -135h-90q15 60 15 139v293q-50 0 -96 -23l-24 60q55 31 145 31h443v-68h-101v-292q0 -80 58 -80q10 0 30 8q3 -9 8.5 -29.5t8.5 -29.5z" />
    <glyph glyph-name="endash" unicode="&#x2013;" 
d="M-5 295h511v-89h-511v89z" />
    <glyph glyph-name="emdash" unicode="&#x2014;" horiz-adv-x="1000" 
d="M-6 295h1011v-89h-1011v89z" />
    <glyph glyph-name="quoteleft" unicode="&#x2018;" horiz-adv-x="219" 
d="M118 641l40 -39q-43 -40 -48 -97h55v-111h-111v110q0 31 17.5 69t46.5 68z" />
    <glyph glyph-name="quoteright" unicode="&#x2019;" horiz-adv-x="219" 
d="M52 634h110v-113q0 -34 -18 -71t-47 -63l-39 37q46 48 49 100h-55v110z" />
    <glyph glyph-name="quotesinglbase" unicode="&#x201a;" horiz-adv-x="219" 
d="M99 123l105 -41l-115 -250l-76 30z" />
    <glyph glyph-name="quotedblleft" unicode="&#x201c;" horiz-adv-x="385" 
d="M300 640l39 -38q-44 -46 -49 -99h53v-110h-109v104q0 75 66 143zM111 639l38 -37q-42 -54 -47 -98h54v-112h-110v85q0 50 14.5 86.5t50.5 75.5z" />
    <glyph glyph-name="quotedblright" unicode="&#x201d;" horiz-adv-x="385" 
d="M234 633h109v-109q0 -75 -64 -137l-39 37q45 46 49 98h-55v111zM46 633h110v-100q0 -77 -67 -147l-39 39q46 41 50 97h-54v111z" />
    <glyph glyph-name="quotedblbase" unicode="&#x201e;" horiz-adv-x="385" 
d="M234 113h109v-102q0 -41 -14.5 -73.5t-50.5 -71.5l-38 38q45 46 49 98h-55v111zM45 112h110v-102q0 -81 -66 -144l-39 38q41 42 50 97h-55v111z" />
    <glyph glyph-name="dagger" unicode="&#x2020;" horiz-adv-x="438" 
d="M233 -185h-32q-1 101 -5 153q-5 64 -13 119q-8 61 -8 97q1 49 13 97q11 44 12 83q-28 -1 -64 -13q-35 -12 -55 -12q-18 0 -29.5 11.5t-11.5 29.5q0 41 46 41q18 0 45 -10q31 -12 70 -13q-2 59 -15 117q-11 55 -11 77q0 28 12 43.5t32 15.5q19 0 30.5 -16t11.5 -44
q0 -17 -11 -64q-16 -69 -18 -129q32 1 68 13q36 10 50 10q20 0 32.5 -11.5t12.5 -29.5q0 -17 -12.5 -28.5t-30.5 -11.5q-20 0 -51 11q-36 12 -67 13q1 -32 11 -74q13 -55 14 -105q0 -25 -6 -73q-13 -83 -17 -184z" />
    <glyph glyph-name="daggerdbl" unicode="&#x2021;" horiz-adv-x="438" 
d="M230 475q40 1 78 15q27 9 39 9q19 0 32.5 -12.5t13.5 -30.5t-12.5 -28.5t-32.5 -10.5q-23 0 -55 12q-36 12 -63 13q1 -32 15 -67q13 -31 13 -48q0 -15 -13 -48q-14 -31 -14 -47q0 -15 13 -50q13 -33 13 -52q0 -16 -12 -47q-13 -33 -14 -60q34 1 71 14q30 10 47 10
q19 0 31 -11t12 -29q0 -19 -12 -30.5t-31 -11.5q-20 0 -49 11q-34 12 -70 13q1 -39 15 -78q11 -33 12 -54q-2 -43 -42 -43q-19 0 -31 11.5t-12 30.5q0 20 11 53q15 44 16 81q-30 0 -71 -14q-34 -11 -48 -11q-19 0 -32 11.5t-13 28.5q0 19 12.5 30.5t32.5 11.5t52 -11
q36 -12 66 -13q-1 29 -14 62q-12 30 -12 51q0 19 12 45q14 31 14 52q0 16 -13 45q-14 31 -14 52q0 17 12 49q13 30 15 63q-27 -1 -64 -14q-33 -11 -54 -11q-20 0 -32.5 11.5t-12.5 29.5q0 17 14 29.5t33 12.5q16 0 43 -11q38 -13 74 -14q-1 38 -15 82q-11 36 -11 51
q0 18 12 30t31 12q18 0 30 -12t12 -31q0 -21 -12 -53q-14 -38 -16 -79z" />
    <glyph glyph-name="bullet" unicode="&#x2022;" horiz-adv-x="350" 
d="M51 350q0 52 36.5 88t87.5 36t87.5 -36t36.5 -88q0 -51 -36.5 -87t-87.5 -36t-87.5 36t-36.5 87z" />
    <glyph glyph-name="ellipsis" unicode="&#x2026;" horiz-adv-x="1000" 
d="M166 135q30 0 51 -21t21 -50q0 -30 -21 -51t-51 -21t-50.5 21t-20.5 51q0 29 20.5 50t50.5 21zM500 134q30 0 51 -21t21 -50q0 -30 -21 -51t-51 -21t-51 21t-21 51q0 29 21 50t51 21zM833 134q30 0 51 -20.5t21 -50.5t-21 -50.5t-51 -20.5q-29 0 -50 20.5t-21 50.5
t21 50.5t50 20.5z" />
    <glyph glyph-name="perthousand" unicode="&#x2030;" horiz-adv-x="1156" 
d="M176 353q72 0 72 113q0 111 -72 111q-74 0 -74 -107q0 -117 74 -117zM177 642q64 0 101 -48t37 -131q0 -81 -37 -127.5t-102 -46.5q-64 0 -102 46.5t-38 125.5q0 84 37.5 132.5t103.5 48.5zM560 642h64l-436 -686h-64zM914 19q72 0 72 113q0 112 -72 112q-74 0 -74 -108
q0 -117 74 -117zM915 308q65 0 101.5 -47.5t36.5 -131.5q0 -81 -37 -127t-102 -46q-64 0 -102 46.5t-38 124.5q0 85 37.5 133t103.5 48zM571 19q72 0 72 113q0 112 -72 112q-73 0 -73 -116q0 -51 19.5 -80t53.5 -29zM572 308q65 0 101.5 -47.5t36.5 -131.5q0 -81 -37 -127
t-102 -46q-64 0 -102 46.5t-38 124.5q0 85 37.5 133t103.5 48z" />
    <glyph glyph-name="guilsinglleft" unicode="&#x2039;" horiz-adv-x="271" 
d="M132 501h90l-95 -230l93 -231h-89l-94 229z" />
    <glyph glyph-name="guilsinglright" unicode="&#x203a;" horiz-adv-x="272" 
d="M35 501h91l95 -231l-95 -230h-90l94 231z" />
    <glyph glyph-name="fraction" unicode="&#x2044;" horiz-adv-x="135" 
d="M254 642h64l-436 -686h-65z" />
    <glyph glyph-name="fraction" unicode="&#x2215;" horiz-adv-x="135" 
d="M254 642h64l-436 -686h-65z" />
    <glyph glyph-name="Euro" unicode="&#x20ac;" horiz-adv-x="517" 
d="M481 24q-68 -45 -144 -45q-110 0 -178.5 68t-88.5 180h-52l18 58h28q-2 26 0 52h-42l13 58h36q21 109 88.5 178.5t173.5 69.5q67 0 148 -42v-96q-80 50 -145 50q-72 0 -116 -43t-60 -117h277l-14 -58h-271q-1 -9 -1 -28l1 -24h255l-14 -58h-234q32 -158 184 -158
q63 0 138 52v-97z" />
    <glyph glyph-name="litre" unicode="&#x2113;" horiz-adv-x="493" 
d="M407 51q-65 -65 -133 -65q-56 0 -87 34q-38 38 -38 121v102l-58 -61l-33 42l91 98v225q0 89 34.5 135t93.5 46q52 0 76.5 -33.5t24.5 -75.5q0 -67 -29 -129t-84 -133l-33 -41v-172q0 -92 61 -92q38 0 84 48zM319 608q0 54 -37 54q-50 0 -50 -108v-154q10 12 19 26
q68 98 68 182z" />
    <glyph glyph-name="trademark" unicode="&#x2122;" horiz-adv-x="1000" 
d="M239 318v339h-129v59h325v-59h-130v-339h-66zM480 318v398h98l99 -318h2l96 318h96v-398h-61v334h-2l-100 -334h-60l-105 339h-2v-339h-61z" />
    <glyph glyph-name="Omega" unicode="&#x2126;" horiz-adv-x="710" 
d="M655 0h-234v74q140 126 140 301q0 115 -55 187t-153 72q-95 0 -154 -72.5t-59 -187.5q0 -179 141 -300v-74h-234v74h151q-153 122 -153 316q0 140 86.5 231t222.5 91q142 0 222 -88.5t80 -231.5q0 -106 -44.5 -186t-109.5 -132h153v-74z" />
    <glyph glyph-name="estimated" unicode="&#x212e;" horiz-adv-x="661" 
d="M611 290h-447v-200q64 -64 158 -64q135 0 214 131q10 -5 37 -22q-49 -73 -107 -110t-144 -37q-127 0 -205 87t-78 215q0 130 77.5 216.5t206.5 86.5q131 0 207.5 -86t80.5 -217zM483 328v161q-67 67 -161 67q-95 0 -158 -65v-163h319z" />
    <glyph glyph-name="partialdiff" unicode="&#x2202;" horiz-adv-x="576" 
d="M533 481q0 -93 -24 -192q-33 -126 -105 -213t-175 -87q-82 0 -132.5 53t-50.5 138q0 141 80 229t182 88q47 0 81.5 -20t50.5 -50h2q4 40 4 67q0 81 -35.5 123t-100.5 42q-51 0 -95 -27l-21 62q52 34 129 34q97 0 153.5 -64.5t56.5 -182.5zM430 348q-11 37 -39.5 60
t-72.5 23q-73 0 -128 -74.5t-55 -180.5q0 -53 26 -84.5t70 -31.5q69 0 122 79.5t77 208.5z" />
    <glyph glyph-name="product" unicode="&#x220f;" horiz-adv-x="719" 
d="M636 -230h-91v852h-371v-852h-91v930h553v-930z" />
    <glyph glyph-name="summation" unicode="&#x2211;" horiz-adv-x="631" 
d="M588 -230h-565v44l318 425l-296 411v50h519v-74h-405l278 -385l-296 -397h447v-74z" />
    <glyph glyph-name="minus" unicode="&#x2212;" horiz-adv-x="667" 
d="M68 356h531v-64h-531v64z" />
    <glyph glyph-name="radical" unicode="&#x221a;" horiz-adv-x="513" 
d="M519 729l-189 -741h-73l-135 333l-54 -33l-30 49l124 78l130 -322l161 636h66z" />
    <glyph glyph-name="infinity" unicode="&#x221e;" horiz-adv-x="783" 
d="M733 294q0 -71 -45.5 -119.5t-118.5 -48.5q-55 0 -102 30t-78 79h-2q-75 -109 -177 -109q-73 0 -120 45.5t-47 118.5q0 75 46.5 121t118.5 46q107 0 179 -109h2q73 109 177 109q73 0 120 -45.5t47 -117.5zM659 293q0 43 -24.5 71t-72.5 28q-75 0 -139 -100
q58 -101 139 -101q48 0 72.5 29t24.5 73zM353 292q-27 45 -64 72.5t-76 27.5q-47 0 -72 -29t-25 -73q0 -43 27.5 -71.5t70.5 -28.5q77 0 139 102z" />
    <glyph glyph-name="integral" unicode="&#x222b;" horiz-adv-x="491" 
d="M409 670q-23 9 -44 9q-80 0 -80 -97v-637q0 -81 -41 -127.5t-117 -46.5q-45 0 -73 13q5 22 17 66q24 -8 45 -8q79 0 79 96v637q0 80 41.5 127t118.5 47q47 0 73 -14q-4 -13 -19 -65z" />
    <glyph glyph-name="approxequal" unicode="&#x2248;" horiz-adv-x="667" 
d="M576 421q-60 -85 -140 -85q-54 0 -110 34t-95 34q-53 0 -96 -68l-43 47q29 40 61 62.5t78 22.5q56 0 109 -33q58 -35 96 -35q52 0 97 67zM576 205q-59 -84 -140 -84q-56 0 -110 33q-56 34 -95 34q-53 0 -96 -67l-43 47q60 84 139 84q56 0 109 -33q56 -34 96 -34
q52 0 97 67z" />
    <glyph glyph-name="notequal" unicode="&#x2260;" horiz-adv-x="667" 
d="M558 154h-262l-64 -132h-69l65 132h-119v64h151l74 153h-225v64h257l67 137h68l-67 -137h124v-64h-156l-74 -153h230v-64z" />
    <glyph glyph-name="lessequal" unicode="&#x2264;" horiz-adv-x="667" 
d="M558 0h-449v64h449v-64zM558 133l-449 201v45l449 201v-70l-348 -152v-2l348 -153v-70z" />
    <glyph glyph-name="greaterequal" unicode="&#x2265;" horiz-adv-x="667" 
d="M558 0h-449v64h449v-64zM558 334l-449 -200v69l349 152v3l-349 153v69l449 -201v-45z" />
    <glyph glyph-name="lozenge" unicode="&#x25ca;" horiz-adv-x="559" 
d="M497 350l-203 -350h-45l-203 349l203 351h45zM424 350l-153 264l-153 -264l153 -264z" />
    <glyph glyph-name="uni00AD" horiz-adv-x="333" 
d="M53 243h227v-83h-227v83z" />
    <glyph glyph-name="uni03A9" horiz-adv-x="710" 
d="M655 0h-234v74q140 126 140 301q0 115 -55 187t-153 72q-95 0 -154 -72.5t-59 -187.5q0 -179 141 -300v-74h-234v74h151q-153 122 -153 316q0 140 86.5 231t222.5 91q142 0 222 -88.5t80 -231.5q0 -106 -44.5 -186t-109.5 -132h153v-74z" />
    <glyph glyph-name="uni03BC" horiz-adv-x="556" 
d="M487 518v-518h-78v61h-2q-25 -40 -54 -56.5t-76 -16.5q-40 0 -66.5 14t-53.5 50h-2v-251h-87v717h87v-252q0 -70 7.5 -104t29.5 -58q32 -37 81 -37q47 0 80 28q29 25 38.5 59t9.5 110v254h86z" />
    </font>
</defs>
</svg>
