<?xml version="1.0" standalone="no"?>
<!DOCTYPE svg PUBLIC "-//W3C//DTD SVG 1.1//EN" "http://www.w3.org/Graphics/SVG/1.1/DTD/svg11.dtd" >
<svg>
<metadata>
Created by FontForge 20090622 at Fri Nov  3 14:13:13 2017
 By deploy user
Copyright (c) 1990 Adobe Systems Incorporated. All rights reserved. Digitized data &#194;&#169; 2002 The Monotype Corporation. All rights reserved.
</metadata>
<defs>
<font id="TwCenMTStd-Light" horiz-adv-x="427" >
  <font-face 
    font-family="Tw Cen MT Std Light"
    font-weight="300"
    font-stretch="normal"
    units-per-em="1000"
    panose-1="2 11 3 2 2 1 4 2 6 3"
    ascent="800"
    descent="-200"
    x-height="401"
    cap-height="628"
    bbox="-166 -230 1009 853"
    underline-thickness="50"
    underline-position="-75"
    unicode-range="U+0020-U+FB02"
  />
<missing-glyph horiz-adv-x="500" 
d="M12 0v665h475v-665h-475zM88 618l162 -243l161 243h-323zM60 575v-484l40 61l80 120l41 61zM440 575l-162 -242l162 -243v485zM411 48l-161 242l-162 -242h323z" />
    <glyph glyph-name="fi" unicode="fi" horiz-adv-x="490" 
d="M388 498h-50q-8 50 -33 76.5t-62 26.5t-62 -29.5t-25 -73.5v-100h64v-49h-64v-349h-49v349h-57v49h57v98q0 67 38 110t99 43q83 0 125 -82q13 -27 19 -69zM341 398h49v-398h-49v398z" />
    <glyph glyph-name="fl" unicode="fl" horiz-adv-x="490" 
d="M390 0h-49v470q0 58 -28 94.5t-72 36.5q-37 0 -61 -30.5t-24 -77.5v-95h64v-49h-64v-349h-49v349h-57v49h57v92q0 71 37.5 115t97.5 44q67 0 107.5 -50t40.5 -132v-467z" />
    <glyph glyph-name=".notdef" horiz-adv-x="500" 
d="M12 0v665h475v-665h-475zM88 618l162 -243l161 243h-323zM60 575v-484l40 61l80 120l41 61zM440 575l-162 -242l162 -243v485zM411 48l-161 242l-162 -242h323z" />
    <glyph glyph-name=".notdef" horiz-adv-x="500" 
d="M12 0v665h475v-665h-475zM88 618l162 -243l161 243h-323zM60 575v-484l40 61l80 120l41 61zM440 575l-162 -242l162 -243v485zM411 48l-161 242l-162 -242h323z" />
    <glyph glyph-name=".null" horiz-adv-x="0" 
 />
    <glyph glyph-name="nonmarkingreturn" horiz-adv-x="333" 
 />
    <glyph glyph-name="space" unicode=" " horiz-adv-x="214" 
 />
    <glyph glyph-name="space" unicode="&#xa0;" horiz-adv-x="214" 
 />
    <glyph glyph-name="exclam" unicode="!" horiz-adv-x="271" 
d="M110 646h55v-499h-55v499zM140 85q20 0 34 -14.5t14 -34.5t-14 -34.5t-34 -14.5t-34.5 14.5t-14.5 34.5t14.5 34.5t34.5 14.5z" />
    <glyph glyph-name="quotedbl" unicode="&#x22;" horiz-adv-x="278" 
d="M37 716h73v-116l-15 -133h-43l-15 133v116zM166 716h75v-116l-16 -133h-43l-16 133v116z" />
    <glyph glyph-name="numbersign" unicode="#" horiz-adv-x="668" 
d="M45 469h162l42 200h50l-42 -200h215l42 200h50l-42 -200h100v-51h-110l-40 -190h150v-51h-160l-41 -200h-52l43 200h-216l-41 -200h-51l41 200h-100v51h111l40 190h-151v51zM246 418l-40 -189h216l40 189h-216z" />
    <glyph glyph-name="dollar" unicode="$" horiz-adv-x="490" 
d="M223 380v207q-40 -8 -62 -33t-22 -60q0 -80 84 -114zM270 298v-259q113 25 113 115q0 61 -47 105q-23 22 -66 39zM223 716h47v-73q44 -5 72.5 -26.5t56.5 -69.5l-47 -30q-17 33 -35.5 49.5t-46.5 20.5v-227q75 -33 107 -65q62 -60 62 -143q0 -91 -89 -142
q-31 -17 -80 -27v-133h-46v133q-37 1 -61.5 11t-53.5 33q-32 26 -62 73l45 30q31 -46 61 -67.5t71 -25.5v280q-60 26 -91 57q-50 50 -50 117q0 59 41 105q19 21 39 30t60 16v74z" />
    <glyph glyph-name="percent" unicode="%" horiz-adv-x="792" 
d="M150 604q-36 0 -56 -33t-20 -94t20 -94.5t56 -33.5q34 0 54 31.5t20 86.5q0 137 -74 137zM148 642q52 0 82.5 -44t30.5 -117q0 -80 -29 -125.5t-80 -45.5q-54 0 -85.5 45.5t-31.5 124.5q0 72 31.5 117t81.5 45zM642 257q-34 0 -53.5 -32.5t-19.5 -88.5q0 -64 19.5 -98.5
t55.5 -34.5q74 0 74 125q0 129 -76 129zM645 296q51 0 81.5 -46.5t30.5 -123.5q0 -75 -30.5 -118.5t-82.5 -43.5q-51 0 -82.5 47t-31.5 124q0 74 31 117.5t84 43.5zM599 646h43l-448 -684h-43z" />
    <glyph glyph-name="ampersand" unicode="&#x26;" horiz-adv-x="542" 
d="M200 379l18 14q62 47 62 85q0 23 -18 40t-43 17q-27 0 -47 -18t-20 -43q0 -28 38 -79q2 -4 5 -8.5zM289 182l-97 117q-62 -48 -84 -88q-19 -33 -19 -65q0 -40 31 -71.5t70 -31.5q32 0 64.5 18.5t80.5 64.5zM447 1l-74 83q-56 -52 -93 -74q-44 -27 -87 -27
q-68 0 -114 46.5t-46 115.5q0 59 42 116q27 37 83 83q-38 53 -50 79.5t-12 57.5q0 50 34.5 79.5t92.5 29.5q49 0 82.5 -29t33.5 -73q0 -46 -32 -86q-25 -30 -74 -68q35 -45 51 -64l65 -78l23 -28l79 84l39 -39l-81 -86l109 -122h-71z" />
    <glyph glyph-name="quotesingle" unicode="'" horiz-adv-x="222" 
d="M75 716h72v-117l-13 -131h-44l-15 131v117z" />
    <glyph glyph-name="parenleft" unicode="(" horiz-adv-x="323" 
d="M283 -161h-56q-28 83 -42 167q-21 124 -21 243q0 155 29 291q12 54 33 120h56q-29 -93 -45 -193q-18 -118 -17 -222q0 -139 29 -274q10 -50 34 -132z" />
    <glyph glyph-name="parenright" unicode=")" horiz-adv-x="323" 
d="M35 660h56q28 -85 42 -167q21 -125 21 -244q0 -154 -29 -290q-12 -54 -33 -120h-56q29 95 44 193q18 116 18 222q0 139 -29 274q-10 50 -34 132z" />
    <glyph glyph-name="asterisk" unicode="*" 
d="M198 494l10 6q-1 23 -10 52q-10 30 -10 51q0 35 29 35q11 0 18.5 -10t7.5 -26q0 -10 -11 -52q-10 -39 -10 -50l9 -7q18 9 45 38l4 4q31 31 53 31q11 0 18 -7.5t7 -18.5q0 -15 -13.5 -24.5t-48.5 -18.5q-30 -7 -59 -19v-9q31 -11 59 -19q38 -10 54 -24q8 -9 8 -20
q0 -25 -25 -25q-21 0 -46 25l-15 14l-41 38l-11 -5q4 -35 12 -64q6 -24 6 -39q0 -36 -28 -36q-26 0 -26 35q0 15 10 47q9 30 14 56l-11 6q-23 -18 -54 -47q-31 -30 -48 -30q-11 0 -19 7t-8 17q0 30 53 43q27 6 69 20v13q-31 14 -62 20q-34 8 -51 23q-9 9 -9 20q0 10 7 17.5
t18 7.5q24 0 65 -42q17 -18 40 -33z" />
    <glyph glyph-name="plus" unicode="+" horiz-adv-x="667" 
d="M69 347h237v238h53v-238h238v-52h-238v-236h-53v236h-237v52z" />
    <glyph glyph-name="comma" unicode="," horiz-adv-x="219" 
d="M133 78l46 -22l-95 -175l-34 16z" />
    <glyph glyph-name="hyphen" unicode="-" horiz-adv-x="323" 
d="M66 231h185v-49h-185v49z" />
    <glyph glyph-name="hyphen" unicode="&#xad;" horiz-adv-x="323" 
d="M66 231h185v-49h-185v49z" />
    <glyph glyph-name="period" unicode="." horiz-adv-x="219" 
d="M115 69q17 0 28.5 -11.5t11.5 -28.5t-11.5 -29t-28.5 -12q-16 0 -28 12t-12 29t11.5 28.5t28.5 11.5z" />
    <glyph glyph-name="slash" unicode="/" horiz-adv-x="323" 
d="M277 652h29l-246 -832h-29z" />
    <glyph glyph-name="zero" unicode="0" 
d="M214 645q67 -1 116 -50q78 -78 78 -283q0 -106 -18 -172t-59 -107q-51 -51 -118 -51q-65 0 -115 51q-79 80 -79 286q0 231 107 300q37 26 85 26h3zM214 590q-140 -5 -140 -271q0 -97 14.5 -153.5t49.5 -93.5q35 -35 75 -35q67 0 103.5 70.5t36.5 198.5q0 212 -84 268
q-22 16 -53 16h-2z" />
    <glyph glyph-name="one" unicode="1" 
d="M136 628h106v-628h-50v578h-88z" />
    <glyph glyph-name="two" unicode="2" 
d="M123 50h283v-50h-389l259 303q42 50 56.5 80.5t14.5 71.5q0 59 -37 99t-91 40q-92 0 -129 -88q-13 -32 -16 -90h-50q2 62 15.5 100.5t44.5 71.5q55 57 132 57q76 0 128 -55t52 -135q0 -50 -17.5 -87.5t-69.5 -98.5z" />
    <glyph glyph-name="three" unicode="3" 
d="M82 476l-49 15q18 62 45 94q24 30 57 47q31 15 69 15q69 0 115.5 -46.5t46.5 -115.5q0 -87 -92 -131q46 -17 73 -42q54 -51 54 -128q-1 -85 -58 -143t-139 -58q-68 0 -119 48q-27 26 -39.5 53t-20.5 80h49q12 -66 51 -99q34 -29 79 -29q56 0 99.5 44.5t43.5 101.5
q0 46 -24 80t-68 50q-32 12 -80 12v55q70 0 107 34q30 27 30 70q0 47 -31.5 79t-77.5 32q-53 0 -89 -45q-19 -24 -32 -73z" />
    <glyph glyph-name="four" unicode="4" 
d="M281 492l-181 -278h183v278h-2zM333 651v-437h80v-49h-80v-165h-50v165h-271z" />
    <glyph glyph-name="five" unicode="5" 
d="M175 627h215v-49h-179l-54 -197q37 15 69 15q78 0 130.5 -54.5t52.5 -136.5q0 -91 -57 -157t-135 -66q-69 0 -131 53q-35 29 -76 95l42 31q42 -63 77 -91q40 -32 84 -32q57 0 100 50t43 116q0 59 -37.5 99.5t-92.5 40.5q-61 0 -140 -45z" />
    <glyph glyph-name="six" unicode="6" 
d="M211 301q-54 0 -91 -38.5t-37 -94.5t38.5 -95t93.5 -39q49 0 85 39.5t36 93.5q0 59 -35 96.5t-90 37.5zM276 645l37 -28q-40 -57 -76 -114l-50 -80q-36 -61 -57 -100l2 -2q53 29 93 29q72 0 118 -53t46 -136q0 -74 -51 -129t-120 -55q-81 0 -133.5 55t-52.5 138
q0 59 56 173q40 81 76.5 139.5t111.5 162.5z" />
    <glyph glyph-name="seven" unicode="7" 
d="M26 627h376l-288 -627h-52l265 578h-301v49z" />
    <glyph glyph-name="eight" unicode="8" 
d="M211 590q-45 0 -75.5 -29.5t-30.5 -74.5q0 -43 32 -74t76 -31t75.5 31.5t31.5 75.5q0 43 -32 72.5t-77 29.5zM217 325q-58 0 -100 -43.5t-42 -102.5q0 -61 40.5 -103.5t98.5 -42.5t97 42t39 104q0 58 -40 102t-93 44zM280 355q42 -17 62 -36q62 -59 62 -148
q0 -82 -53.5 -135.5t-136.5 -53.5q-84 0 -139 54.5t-55 137.5q0 87 64 146q23 20 61 35q-49 27 -70.5 60.5t-21.5 80.5q0 62 45.5 105t111.5 43q69 0 115 -42t46 -106q0 -49 -21.5 -82.5t-69.5 -58.5z" />
    <glyph glyph-name="nine" unicode="9" 
d="M214 585q-56 0 -94 -40.5t-38 -100.5q0 -52 36.5 -88t89.5 -36t90 38.5t37 93.5q0 53 -36 93t-85 40zM138 -25l-38 29q39 51 80 114l57 91q25 40 51 88l-2 2q-50 -29 -91 -29q-70 0 -117.5 52.5t-47.5 129.5q0 78 52.5 133.5t126.5 55.5q78 0 127.5 -52.5t49.5 -135.5
q0 -70 -54 -173q-42 -82 -76.5 -135.5t-117.5 -169.5z" />
    <glyph glyph-name="colon" unicode=":" horiz-adv-x="219" 
d="M114 311q21 0 35 -14.5t14 -34.5t-14 -34.5t-35 -14.5q-20 0 -34.5 14.5t-14.5 34.5q1 20 15 34.5t34 14.5zM115 87q20 0 34.5 -14.5t14.5 -34.5t-14.5 -34.5t-34.5 -14.5t-34.5 14.5t-14.5 34.5t14.5 34.5t34.5 14.5z" />
    <glyph glyph-name="semicolon" unicode=";" horiz-adv-x="271" 
d="M153 104l55 -21l-102 -232l-39 15zM159 309q20 0 34.5 -14.5t14.5 -34.5t-14.5 -34.5t-34.5 -14.5t-34.5 14.5t-14.5 34.5t14.5 34.5t34.5 14.5z" />
    <glyph glyph-name="semicolon" unicode="&#x37e;" horiz-adv-x="271" 
d="M153 104l55 -21l-102 -232l-39 15zM159 309q20 0 34.5 -14.5t14.5 -34.5t-14.5 -34.5t-34.5 -14.5t-34.5 14.5t-14.5 34.5t14.5 34.5t34.5 14.5z" />
    <glyph glyph-name="less" unicode="&#x3c;" horiz-adv-x="667" 
d="M597 76l-527 223v47l527 222v-57l-456 -189l456 -189v-57z" />
    <glyph glyph-name="equal" unicode="=" horiz-adv-x="667" 
d="M70 464h527v-53h-527v53zM70 236h527v-53h-527v53z" />
    <glyph glyph-name="greater" unicode="&#x3e;" horiz-adv-x="667" 
d="M70 568l527 -223v-47l-527 -222v57l457 188l-457 189v58z" />
    <glyph glyph-name="question" unicode="?" horiz-adv-x="375" 
d="M261 287h55q0 -47 -8.5 -75t-30.5 -52q-32 -35 -84 -35q-51 0 -85 33t-34 82q0 48 41 87q19 19 69 49q48 30 70 50q25 28 25 64q0 44 -27.5 71t-70.5 27q-92 0 -93 -136h-55q3 107 49 153q38 38 102 38t107 -43t43 -107q0 -65 -41 -107q-21 -21 -81 -58
q-48 -28 -65.5 -47t-17.5 -42q0 -25 18 -42t44 -17q70 0 70 107zM197 85q20 0 34.5 -14.5t14.5 -34.5q0 -21 -14.5 -35.5t-34.5 -14.5t-34.5 14.5t-14.5 35.5q0 20 14.5 34.5t34.5 14.5z" />
    <glyph glyph-name="at" unicode="@" horiz-adv-x="800" 
d="M558 495h61l-83 -392l-4 -22q-2 -16 -2 -17q0 -20 24 -20q44 0 95 48q45 42 70.5 102.5t25.5 123.5q0 81 -29.5 149.5t-81.5 109.5q-81 64 -220 64q-163 0 -269 -110.5t-106 -280.5q0 -169 105.5 -274.5t275.5 -105.5q142 0 238 63q29 18 47 35.5t47 54.5h50
q-30 -45 -51.5 -67.5t-59.5 -48.5q-112 -76 -278 -76q-184 0 -299.5 118t-115.5 305q0 91 31.5 171.5t90.5 139.5q116 116 308 116q162 0 260 -99.5t98 -263.5q0 -121 -78.5 -219.5t-175.5 -98.5q-57 0 -57 54q0 15 4 34l-2 2q-21 -27 -36.5 -40t-42.5 -27q-43 -23 -90 -23
q-71 0 -118 60t-47 150q0 118 74.5 207.5t172.5 89.5q57 0 100 -31q17 -13 27 -25.5t23 -37.5h2zM518 325q0 60 -35 99.5t-88 39.5q-81 0 -131 -74q-59 -87 -59 -185q0 -69 35 -114t88 -45q52 0 98 45.5t72 122.5q11 33 17 75q3 27 3 36z" />
    <glyph glyph-name="A" unicode="A" horiz-adv-x="594" 
d="M297 510l-107 -254h214zM297 647l272 -647h-58l-83 200h-260l-85 -200h-59z" />
    <glyph glyph-name="B" unicode="B" horiz-adv-x="490" 
d="M153 572v-210h57q60 0 99 31t39 78q0 46 -32.5 73.5t-85.5 27.5h-77zM153 306v-250h84q77 0 120.5 34t43.5 93q0 55 -49.5 89t-129.5 34h-69zM97 628h116q88 0 138.5 -42t50.5 -115q0 -47 -18 -77.5t-61 -55.5q53 -18 80 -41q53 -45 53 -119q0 -77 -59 -127.5t-149 -50.5
h-151v628z" />
    <glyph glyph-name="C" unicode="C" horiz-adv-x="646" 
d="M612 571v-86q-29 32 -48 46.5t-48 27.5q-53 25 -114 25q-116 0 -196.5 -78t-80.5 -190q0 -114 81 -193t198 -79q52 0 101 20q29 12 50.5 27t57.5 50v-83q-58 -43 -103 -58q-51 -18 -106 -18q-68 0 -134 27.5t-114 76.5q-91 92 -91 232q0 137 98 232.5t240 95.5
q54 0 111 -21q50 -17 98 -54z" />
    <glyph glyph-name="D" unicode="D" horiz-adv-x="594" 
d="M148 572v-516h52q287 0 287 254q0 129 -74.5 195.5t-219.5 66.5h-45zM92 628h87q90 0 160 -18q57 -15 102 -50q108 -82 108 -249q0 -143 -86 -229q-38 -36 -86 -56q-69 -26 -161 -26h-124v628z" />
    <glyph glyph-name="E" unicode="E" 
d="M89 628h301v-56h-245v-202h245v-56h-245v-258h247v-56h-303v628z" />
    <glyph glyph-name="F" unicode="F" horiz-adv-x="375" 
d="M91 628h249v-56h-193v-202h193v-56h-193v-314h-56v628z" />
    <glyph glyph-name="G" unicode="G" horiz-adv-x="760" 
d="M680 499l-47 -39q-30 39 -50.5 57.5t-52.5 35.5q-59 31 -129 31q-116 0 -192 -76t-76 -191q0 -118 75.5 -196t189.5 -78q109 0 176 65q27 27 38.5 55t17.5 82h-204v57h266v-65q0 -107 -83 -181t-204 -74q-145 0 -239.5 94.5t-94.5 238.5q0 140 93 235.5t229 95.5
q91 0 169 -40q38 -21 61.5 -42t56.5 -65z" />
    <glyph glyph-name="H" unicode="H" horiz-adv-x="646" 
d="M92 628h56v-266h351v266h56v-628h-56v306h-351v-306h-56v628z" />
    <glyph glyph-name="I" unicode="I" horiz-adv-x="219" 
d="M83 628h56v-628h-56v628z" />
    <glyph glyph-name="J" unicode="J" horiz-adv-x="323" 
d="M195 628h56v-497q0 -72 -30.5 -110.5t-86.5 -38.5q-58 0 -116 69l42 34q26 -27 41.5 -36.5t34.5 -9.5q31 0 45 20t14 65v504z" />
    <glyph glyph-name="K" unicode="K" horiz-adv-x="542" 
d="M96 628h56v-250l268 250h79l-303 -282l327 -346h-73l-298 315v-315h-56v628z" />
    <glyph glyph-name="L" unicode="L" horiz-adv-x="323" 
d="M90 628h56v-572h148v-56h-204v628z" />
    <glyph glyph-name="M" unicode="M" horiz-adv-x="760" 
d="M127 651l253 -543l248 541l112 -649h-53l-81 471h-2l-224 -492l-228 493h-2l-79 -472h-54z" />
    <glyph glyph-name="N" unicode="N" horiz-adv-x="760" 
d="M98 650l517 -538v516h56v-650l-517 535v-513h-56v650z" />
    <glyph glyph-name="O" unicode="O" horiz-adv-x="760" 
d="M377 584q-112 0 -185.5 -76t-73.5 -191q0 -119 73.5 -196t188.5 -77q113 0 187.5 76.5t74.5 192.5q0 119 -74 195t-191 76zM376 646q141 0 234 -94t93 -237q0 -144 -91 -238.5t-229 -94.5q-142 0 -234 94.5t-92 239.5q0 142 91 236t228 94z" />
    <glyph glyph-name="P" unicode="P" 
d="M146 572v-213h80q55 0 84 28t29 80q0 51 -28.5 78t-82.5 27h-82zM89 628h133q82 0 127 -43t45 -122q0 -75 -44.5 -117.5t-123.5 -42.5h-81v-303h-56v628z" />
    <glyph glyph-name="Q" unicode="Q" horiz-adv-x="760" 
d="M519 79l-141 178h70l115 -143q36 33 54 72q28 62 28 128q0 118 -75 194.5t-191 76.5q-110 0 -184 -77t-74 -191q0 -119 73.5 -196t185.5 -77q73 0 139 35zM602 64l84 -108h-69l-59 74q-54 -28 -89.5 -37.5t-82.5 -9.5q-142 0 -234 94.5t-92 239.5q0 142 91 235.5
t229 93.5q140 0 233 -94t93 -235q0 -76 -27 -142q-23 -55 -77 -111z" />
    <glyph glyph-name="R" unicode="R" 
d="M146 572v-211l16 -1q22 -1 40 -1q73 0 105 25.5t32 83.5q0 49 -30 76.5t-83 27.5h-80zM90 628h113q191 0 191 -158q0 -114 -85 -150q-32 -14 -87 -16l181 -304h-62l-181 304h-14v-304h-56v628z" />
    <glyph glyph-name="S" unicode="S" horiz-adv-x="490" 
d="M387 557l-43 -44q-37 41 -62 56t-58 15q-39 0 -65 -23t-26 -57q0 -42 36 -80q23 -21 85 -56q46 -25 64.5 -37.5t46.5 -38.5q62 -65 62 -132q0 -73 -56 -125.5t-134 -52.5q-70 0 -122 41q-22 18 -37 34.5t-38 51.5l55 29q33 -51 65.5 -72.5t74.5 -21.5q55 0 92 33.5
t37 82.5q0 45 -32 79.5t-112 78.5q-61 33 -95 64q-54 59 -54 125q0 59 45 99t111 40q53 0 105 -36q22 -15 55 -53z" />
    <glyph glyph-name="T" unicode="T" horiz-adv-x="490" 
d="M53 628h386v-56h-165v-572h-56v572h-165v56z" />
    <glyph glyph-name="U" unicode="U" horiz-adv-x="594" 
d="M80 628h56v-405q0 -91 42 -133q49 -52 120 -52q73 0 116 45.5t43 123.5v421h56v-425q0 -93 -61 -157t-149 -64q-97 0 -160 64.5t-63 162.5v419z" />
    <glyph glyph-name="V" unicode="V" horiz-adv-x="542" 
d="M35 628h57l180 -495h2l176 495h56l-233 -652z" />
    <glyph glyph-name="W" unicode="W" horiz-adv-x="969" 
d="M486 648l201 -521l181 501h57l-236 -650l-203 524l-203 -524l-239 650h56l185 -500z" />
    <glyph glyph-name="X" unicode="X" horiz-adv-x="490" 
d="M49 628h61l135 -244l134 244h59l-163 -300l180 -328h-59l-151 274l-150 -274h-60l180 328z" />
    <glyph glyph-name="Y" unicode="Y" horiz-adv-x="542" 
d="M34 628h63l176 -276l174 276h62l-209 -333v-295h-56v298z" />
    <glyph glyph-name="Z" unicode="Z" horiz-adv-x="542" 
d="M79 628h420l-354 -572h342v-56h-440l357 572h-325v56z" />
    <glyph glyph-name="bracketleft" unicode="[" horiz-adv-x="323" 
d="M158 651h130v-44h-82v-715h86v-44h-134v803z" />
    <glyph glyph-name="backslash" unicode="\" horiz-adv-x="323" 
d="M17 651h29l246 -831h-29z" />
    <glyph glyph-name="bracketright" unicode="]" horiz-adv-x="323" 
d="M30 652h130v-804h-130v44h83v714h-83v46z" />
    <glyph glyph-name="asciicircum" unicode="^" horiz-adv-x="660" 
d="M330 728l219 -262l-32 -27l-187 226l-188 -226l-31 27z" />
    <glyph glyph-name="underscore" unicode="_" horiz-adv-x="500" 
d="M-7 -124v50h514v-50h-514z" />
    <glyph glyph-name="grave" unicode="`" horiz-adv-x="333" 
d="M73 640h86l97 -151h-30z" />
    <glyph glyph-name="a" unicode="a" horiz-adv-x="490" 
d="M224 361q-57 0 -94.5 -45.5t-37.5 -113.5q0 -70 37.5 -115.5t95.5 -45.5q59 0 99.5 46t40.5 113q0 66 -41.5 113.5t-99.5 47.5zM362 320v81h51v-401h-51v76h-2q-67 -88 -144 -88q-73 0 -126 64.5t-53 152.5q0 83 54 145.5t126 62.5q52 0 93 -32q25 -20 50 -61h2z" />
    <glyph glyph-name="b" unicode="b" horiz-adv-x="490" 
d="M270 359q-60 0 -100 -44t-40 -110q0 -74 38 -119t100 -45q58 0 94 44t36 114q0 68 -36.5 114t-91.5 46zM79 646h51v-327h2q28 43 50 60q41 34 91 34q73 0 127 -63t54 -148q0 -88 -52 -151t-123 -63q-55 0 -102 38q-23 18 -45 51h-2v-77h-51v646z" />
    <glyph glyph-name="c" unicode="c" 
d="M387 99v-67q-65 -44 -126 -44q-87 0 -146.5 62.5t-59.5 153.5q0 88 61 148.5t149 60.5q60 0 122 -43v-66q-78 55 -127 55q-61 0 -104.5 -45t-43.5 -109q0 -70 42 -115.5t107 -45.5q31 0 57 11.5t69 43.5z" />
    <glyph glyph-name="d" unicode="d" horiz-adv-x="490" 
d="M228 359q-57 0 -94.5 -44.5t-37.5 -112.5q0 -70 37.5 -116t95.5 -46q59 0 99 46.5t40 115.5q0 66 -40.5 111.5t-99.5 45.5zM363 646h51v-646h-51v75h-2q-31 -48 -63 -67.5t-76 -19.5q-73 0 -127.5 63.5t-54.5 147.5q0 85 53 149.5t123 64.5q77 0 145 -87h2v320z" />
    <glyph glyph-name="e" unicode="e" horiz-adv-x="490" 
d="M104 248h282q-13 54 -50 85.5t-87 31.5q-73 0 -118 -58q-17 -23 -27 -59zM445 197h-348q7 -74 50 -116q46 -44 106 -44q93 0 133 102h49q-15 -69 -65 -110t-118 -41q-86 0 -145.5 64t-59.5 156q0 84 57.5 144.5t136.5 60.5q62 0 112 -34t75 -92q14 -33 17 -90z" />
    <glyph glyph-name="f" unicode="f" horiz-adv-x="271" 
d="M248 648v-54q-24 11 -42 11q-25 0 -34 -14t-9 -52v-138h80v-51h-80v-350h-51v350h-49v51h49v135q0 62 22 90.5t70 28.5q18 0 44 -7z" />
    <glyph glyph-name="g" unicode="g" horiz-adv-x="490" 
d="M222 359q-54 0 -91.5 -44t-37.5 -108q0 -67 37.5 -110.5t95.5 -43.5q57 0 97.5 43.5t40.5 104.5q0 66 -41 112t-101 46zM362 320v81h51v-372q0 -91 -48.5 -151.5t-122.5 -60.5q-87 0 -146 59q-28 28 -51 76l48 26q24 -45 46 -65q41 -40 98 -40q56 0 90.5 43t34.5 113v58
h-2q-68 -88 -145 -88q-71 0 -124 63t-53 146q0 81 54 142.5t126 61.5q50 0 91 -34q25 -20 51 -58h2z" />
    <glyph glyph-name="h" unicode="h" 
d="M79 646h51v-298q55 65 115 65q53 0 84.5 -43t31.5 -116v-254h-51v260q0 49 -21 77.5t-58 28.5q-47 0 -74 -35t-27 -95v-236h-51v646z" />
    <glyph glyph-name="i" unicode="i" horiz-adv-x="219" 
d="M88 401h51v-401h-51v401zM112 587q17 0 30 -12.5t13 -30.5q0 -17 -13 -30t-30 -13q-18 0 -30.5 13t-12.5 30q0 18 12.5 30.5t30.5 12.5z" />
    <glyph glyph-name="j" unicode="j" horiz-adv-x="219" 
d="M86 401h51v-580h-51v580zM112 587q18 0 30 -12.5t12 -30.5q0 -17 -12.5 -29.5t-29.5 -12.5t-29.5 12.5t-12.5 29.5q0 18 12.5 30.5t29.5 12.5z" />
    <glyph glyph-name="k" unicode="k" horiz-adv-x="375" 
d="M68 646h51v-416l169 171h67l-190 -193l203 -208h-65l-184 188v-188h-51v646z" />
    <glyph glyph-name="l" unicode="l" horiz-adv-x="219" 
d="M86 646h50v-646h-50v646z" />
    <glyph glyph-name="m" unicode="m" horiz-adv-x="594" 
d="M125 401v-52h2q24 35 45 49.5t48 14.5q35 0 57.5 -18t38.5 -58q27 41 51.5 58.5t54.5 17.5q48 0 76.5 -39t28.5 -105v-269h-51v263q0 97 -66 97q-34 0 -58.5 -29.5t-24.5 -70.5v-260h-51v264q0 46 -16.5 71.5t-45.5 25.5q-41 0 -65 -28.5t-24 -77.5v-255h-51v401h51z" />
    <glyph glyph-name="n" unicode="n" 
d="M130 401v-52h2q47 64 111 64q50 0 83.5 -40t33.5 -100v-273h-51v246q0 119 -84 119q-37 0 -66 -34.5t-29 -79.5v-251h-51v401h51z" />
    <glyph glyph-name="o" unicode="o" horiz-adv-x="542" 
d="M276 365q-72 0 -120.5 -47t-48.5 -116t49 -117t120 -48q65 0 113 47.5t48 112.5q0 70 -46.5 119t-114.5 49zM274 413q89 0 151 -62t62 -152q0 -88 -62.5 -149.5t-151.5 -61.5q-91 0 -153 62t-62 152q0 91 61.5 151t154.5 60z" />
    <glyph glyph-name="p" unicode="p" horiz-adv-x="490" 
d="M270 361q-60 0 -101 -45.5t-41 -112.5t42 -114.5t102 -47.5q54 0 91.5 46.5t37.5 113.5t-38 113.5t-93 46.5zM131 401v-75h2q22 29 37 43t39 26q36 18 70 18q71 0 123.5 -64t52.5 -151q0 -85 -53.5 -147.5t-126.5 -62.5q-51 0 -94 36q-27 21 -48 57h-2v-260h-51v580h51z
" />
    <glyph glyph-name="q" unicode="q" horiz-adv-x="490" 
d="M226 360q-56 0 -94.5 -44.5t-38.5 -111.5q0 -70 38 -116.5t96 -46.5q57 0 97 46.5t40 113.5t-40 113t-98 46zM362 324v77h51v-580h-51v265h-2q-20 -39 -44 -61q-41 -37 -94 -37q-74 0 -129 62t-55 144q0 91 52.5 155t126.5 64q81 0 143 -89h2z" />
    <glyph glyph-name="r" unicode="r" horiz-adv-x="323" 
d="M139 401v-64h2q49 77 108 77q20 0 53 -17l-29 -49q-29 12 -45 12q-38 0 -63.5 -35t-25.5 -86v-239h-50v401h50z" />
    <glyph glyph-name="s" unicode="s" horiz-adv-x="323" 
d="M30 50l32 39q47 -51 93 -51q34 0 59.5 18.5t25.5 43.5q0 24 -20 43t-67 40t-74 45q-32 35 -32 73q0 47 33.5 79.5t81.5 32.5q65 0 124 -65l-34 -36q-45 52 -89 52q-27 0 -46.5 -17.5t-19.5 -41.5t14 -38.5t55 -33.5q56 -26 89 -55q35 -38 35 -75q0 -46 -38 -80.5
t-90 -34.5q-76 0 -132 62z" />
    <glyph glyph-name="t" unicode="t" horiz-adv-x="271" 
d="M111 545h52v-144h77v-51h-77v-350h-51v350h-64v51h63v144z" />
    <glyph glyph-name="u" unicode="u" 
d="M68 401h51v-265q0 -46 26.5 -72t72.5 -26q43 0 69.5 27t26.5 70v266h51v-271q0 -61 -42 -101.5t-106 -40.5t-106.5 40.5t-42.5 101.5v271z" />
    <glyph glyph-name="v" unicode="v" 
d="M37 401h50l130 -299l129 299h51l-180 -417z" />
    <glyph glyph-name="w" unicode="w" horiz-adv-x="646" 
d="M322 414l135 -313l128 300h50l-177 -418l-135 311l-133 -314l-181 421h51l130 -300z" />
    <glyph glyph-name="x" unicode="x" 
d="M40 401h58l116 -149l116 149h61l-146 -188l166 -213h-59l-136 176l-137 -176h-60l167 215z" />
    <glyph glyph-name="y" unicode="y" 
d="M12 401h51l151 -334l151 334h51l-262 -580h-53l87 190z" />
    <glyph glyph-name="z" unicode="z" 
d="M43 401h367l-287 -350h282v-51h-386l290 350h-266v51z" />
    <glyph glyph-name="braceleft" unicode="{" horiz-adv-x="333" 
d="M286 718v-55q-38 -1 -54 -8.5t-23 -26.5q-11 -32 -11 -132v-11q0 -83 -5 -114t-24 -63q-13 -22 -26.5 -34t-41.5 -25q30 -14 44 -25.5t25 -32.5q18 -33 23 -62.5t5 -103.5v-23v-20q0 -54 1.5 -78.5t12 -42t25.5 -21t49 -5.5v-55h-14q-42 0 -69 16q-34 19 -47 54t-13 102
v97q0 61 -7 93t-26 52q-20 22 -61 23v64q37 1 57 23q22 23 29.5 52.5t7.5 93.5v52q0 97 11 134q11 40 47 63q29 20 68 20q11 0 17 -1z" />
    <glyph glyph-name="bar" unicode="|" horiz-adv-x="510" 
d="M228 696h54v-831h-54v831z" />
    <glyph glyph-name="braceright" unicode="}" horiz-adv-x="333" 
d="M47 -220v56q38 1 54 8t23 26q11 29 11 133v11q0 83 5 114t24 63q13 22 26.5 34t41.5 25q-29 13 -43.5 25t-25.5 33q-18 33 -23 62.5t-5 103.5v23v20q0 54 -1.5 78.5t-12 42t-25.5 21t-49 5.5v55h14q42 0 69 -16q34 -19 47 -54t13 -102v-97q0 -61 7 -93t26 -52
q22 -23 61 -23v-64q-37 -1 -57 -23q-22 -23 -29.5 -53t-7.5 -93v-52q0 -98 -11 -135q-11 -38 -47 -62q-29 -20 -68 -20h-17z" />
    <glyph glyph-name="asciitilde" unicode="~" horiz-adv-x="656" 
d="M590 406v-60q-78 -61 -135 -61q-31 0 -59.5 9.5t-98.5 42.5q-60 28 -90 28q-58 0 -141 -66v59q75 59 143 59q44 0 140 -46q70 -33 101 -33q60 0 140 68z" />
    <glyph glyph-name="exclamdown" unicode="&#xa1;" horiz-adv-x="271" 
d="M136 549q20 0 34.5 -14t14.5 -34t-14.5 -34.5t-34.5 -14.5t-34 14.5t-14 34.5t14 34t34 14zM111 390h54v-499h-54v499z" />
    <glyph glyph-name="cent" unicode="&#xa2;" 
d="M183 70l92 287q-74 -1 -117.5 -42.5t-43.5 -112.5q0 -88 69 -132zM347 584h28l-56 -178q37 -13 69 -35v-68q-53 37 -88 48l-93 -294q27 -11 46 -11q36 0 65.5 12t68.5 44v-68q-66 -46 -127 -46q-22 0 -71 13l-59 -183h-28l63 195q-41 28 -61 53q-47 58 -47 131
q0 91 58.5 153t143.5 62q21 0 33 -1z" />
    <glyph glyph-name="sterling" unicode="&#xa3;" 
d="M147 76q-25 21 -49 21q-15 0 -24 -9t-9 -25q0 -15 9.5 -24.5t23.5 -9.5q32 0 49 47zM377 479h-55q-2 57 -20.5 83.5t-55.5 26.5t-58 -25.5t-21 -71.5q0 -51 26 -143h116v-47h-104q14 -66 14 -120q0 -41 -11 -83q70 -62 102 -62q26 0 37 22.5t13 78.5h51v-5
q0 -100 -37 -132q-24 -24 -59 -24q-25 0 -45.5 9.5t-59.5 39.5l-11 8l-12 8q-36 -64 -91 -64q-34 0 -57 25t-23 62q0 36 23.5 60.5t58.5 24.5q24 0 62 -19q4 25 4 39q0 66 -18 132h-110v47h98q-24 93 -24 139q0 69 38 111.5t100 42.5q84 0 115 -80q13 -31 14 -83z" />
    <glyph glyph-name="currency" unicode="&#xa4;" horiz-adv-x="667" 
d="M100 518l36 37l63 -62q37 29 63.5 38t76.5 9q41 0 67 -9.5t63 -37.5l61 62l36 -37l-61 -61q29 -40 38 -67t9 -72q0 -44 -9 -70t-38 -61l61 -62l-36 -36l-61 62q-38 -29 -65 -38.5t-71 -9.5q-46 0 -72 9.5t-62 38.5l-63 -62l-36 36l62 62q-28 43 -37 69.5t-9 68.5t9 68
t37 64zM168 322q0 -70 48 -118.5t116 -48.5q70 0 119 48.5t49 117.5q0 70 -48.5 118.5t-116.5 48.5q-69 0 -118 -48.5t-49 -117.5z" />
    <glyph glyph-name="yen" unicode="&#xa5;" horiz-adv-x="542" 
d="M195 483h169l90 142h62l-90 -142h78v-39h-103l-69 -112h172v-39h-197v-293h-55v293h-200v39h176l-71 112h-105v39h81l-92 142h63zM339 444h-119l60 -95z" />
    <glyph glyph-name="brokenbar" unicode="&#xa6;" horiz-adv-x="510" 
d="M228 217h54v-352h-54v352zM228 696h54v-353h-54v353z" />
    <glyph glyph-name="section" unicode="&#xa7;" 
d="M212 356l-11 9q-101 -36 -101 -107q0 -29 20 -56.5t71 -69.5l30 -25q101 36 101 104q0 33 -20.5 61t-79.5 75q-1 1 -4.5 4t-5.5 5zM344 508h-49q-4 92 -84 92q-37 0 -61.5 -19.5t-24.5 -48.5q0 -25 16 -44t76 -70q88 -73 116 -104q38 -44 38 -98q0 -65 -45 -104
q-21 -20 -68 -37l16 -14q42 -36 57.5 -62t15.5 -60q0 -50 -39.5 -84t-97.5 -34q-60 0 -97 40q-18 19 -25.5 40.5t-8.5 61.5h50v-4q0 -88 87 -88q34 0 58 19.5t24 46.5q0 26 -16 46t-73 68q-93 76 -120 108q-38 46 -38 102q0 61 48 101q22 20 67 35q-49 38 -69.5 68.5
t-20.5 65.5q0 52 39 86t98 34q41 0 72.5 -20.5t47.5 -57.5q10 -24 11 -65z" />
    <glyph glyph-name="dieresis" unicode="&#xa8;" horiz-adv-x="333" 
d="M78 563q16 0 27.5 -10.5t11.5 -25.5q0 -18 -11 -30t-27 -12q-17 0 -28.5 12t-11.5 29q0 15 11.5 26t27.5 11zM256 563q16 0 27.5 -11.5t11.5 -27.5t-11 -27.5t-27 -11.5q-17 0 -29 12t-12 28t11.5 27t28.5 11z" />
    <glyph glyph-name="copyright" unicode="&#xa9;" horiz-adv-x="800" 
d="M562 451l-47 -14q-35 81 -109 81q-63 0 -100.5 -44t-37.5 -117q0 -76 37 -123.5t96 -47.5q44 0 71.5 23t49.5 77l44 -16q-21 -62 -56 -90q-44 -38 -108 -38q-79 0 -133 61t-54 150q0 91 53 148.5t137 57.5q55 0 96 -31q22 -16 33.5 -31t27.5 -46zM773 355
q0 -155 -109.5 -264t-263.5 -109t-263.5 109t-109.5 264t109.5 264t263.5 109t263.5 -109t109.5 -264zM728 355q0 136 -96 232t-232 96t-231.5 -96t-95.5 -232t95.5 -231.5t231.5 -95.5t232 95.5t96 231.5z" />
    <glyph glyph-name="ordfeminine" unicode="&#xaa;" horiz-adv-x="323" 
d="M156 612q-37 0 -61 -29.5t-24 -75.5q0 -45 24.5 -74.5t62.5 -29.5t64.5 30t26.5 74t-27 74.5t-66 30.5zM247 377v50h-2q-42 -58 -91 -58q-50 0 -84.5 41.5t-34.5 100.5q0 55 35.5 95t84.5 40q55 0 90 -63h2v56h32v-262h-32z" />
    <glyph glyph-name="guillemotleft" unicode="&#xab;" 
d="M119 498h53l-93 -230l94 -230h-52l-95 229zM345 497h51l-93 -229l93 -230h-53l-92 229z" />
    <glyph glyph-name="logicalnot" unicode="&#xac;" horiz-adv-x="667" 
d="M69 468h528v-291h-52v238h-476v53z" />
    <glyph glyph-name="registered" unicode="&#xae;" horiz-adv-x="800" 
d="M773 355q0 -155 -109.5 -264t-263.5 -109t-263.5 109t-109.5 264t109.5 264t263.5 109t263.5 -109t109.5 -264zM728 355q0 136 -96 232t-232 96t-231.5 -96t-95.5 -232t95.5 -231.5t231.5 -95.5t232 95.5t96 231.5zM249 547h163q62 0 97.5 -28t35.5 -77q0 -93 -116 -109
v-2q37 -12 56 -34q27 -33 75 -142h-59q-9 18 -11 23q-43 95 -72.5 121t-96.5 26h-23v-170h-49v392zM298 366h65q68 0 96.5 16.5t28.5 56.5q0 39 -25.5 53.5t-91.5 14.5h-73v-141z" />
    <glyph glyph-name="macron" unicode="&#xaf;" horiz-adv-x="333" 
d="M19 563h295v-54h-295v54z" />
    <glyph glyph-name="macron" unicode="&#x2c9;" horiz-adv-x="333" 
d="M19 563h295v-54h-295v54z" />
    <glyph glyph-name="degree" unicode="&#xb0;" horiz-adv-x="400" 
d="M341 587q0 -57 -41 -97.5t-99 -40.5t-99.5 40.5t-41.5 97.5q0 58 41 99.5t99 41.5t99.5 -41t41.5 -100zM300 588q0 41 -29.5 70.5t-70.5 29.5t-70.5 -29.5t-29.5 -70.5t29.5 -70t70.5 -29t70.5 29t29.5 70z" />
    <glyph glyph-name="plusminus" unicode="&#xb1;" horiz-adv-x="667" 
d="M69 427h237v238h53v-238h238v-52h-238v-237h-53v237h-237v52zM69 33h528v-53h-528v53z" />
    <glyph glyph-name="twosuperior" unicode="&#xb2;" horiz-adv-x="323" 
d="M110 280h184v-37h-267l156 169q35 38 49 65t14 58q0 34 -24.5 55t-62.5 21q-85 0 -88 -97h-38q3 72 35 104q33 33 92 33q54 0 90.5 -33.5t36.5 -82.5q0 -63 -56 -124z" />
    <glyph glyph-name="threesuperior" unicode="&#xb3;" horiz-adv-x="323" 
d="M71 547h-37q12 104 121 104q49 0 80.5 -27.5t31.5 -70.5q0 -67 -63 -89v-2q39 -7 61.5 -34.5t22.5 -67.5q0 -56 -37 -91.5t-97 -35.5q-61 0 -90.5 24.5t-36.5 80.5h35q13 -67 94 -67q40 0 65.5 23.5t25.5 60.5q0 85 -110 88v41q3 0 8 -0.5t7 -0.5q34 0 55 18t21 46
q0 29 -20.5 47t-54.5 18q-70 0 -82 -65z" />
    <glyph glyph-name="acute" unicode="&#xb4;" horiz-adv-x="333" 
d="M188 639h86l-154 -149h-30z" />
    <glyph glyph-name="mu" unicode="&#xb5;" horiz-adv-x="556" 
d="M80 518h60v-215v-30q1 -88 8.5 -122t32.5 -65q39 -46 97 -46q64 0 99 39q26 31 34.5 66t9.5 123v34v216h63v-518h-63v58h-2q-54 -70 -136 -70q-46 0 -77.5 15.5t-65.5 54.5v-262h-60v722z" />
    <glyph glyph-name="mu" unicode="&#x3bc;" horiz-adv-x="556" 
d="M80 518h60v-215v-30q1 -88 8.5 -122t32.5 -65q39 -46 97 -46q64 0 99 39q26 31 34.5 66t9.5 123v34v216h63v-518h-63v58h-2q-54 -70 -136 -70q-46 0 -77.5 15.5t-65.5 54.5v-262h-60v722z" />
    <glyph glyph-name="paragraph" unicode="&#xb6;" horiz-adv-x="650" 
d="M621 716v-68h-96v-848h-62v848h-130v-848h-64v505h-5q-98 0 -156.5 56.5t-58.5 150.5q0 93 63.5 148.5t170.5 55.5h338z" />
    <glyph glyph-name="periodcentered" unicode="&#xb7;" horiz-adv-x="219" 
d="M112 355q17 0 29 -12t12 -29t-12 -29t-29 -12q-17 1 -29 13t-12 28q0 17 12 29t29 12z" />
    <glyph glyph-name="periodcentered" unicode="&#x2219;" horiz-adv-x="219" 
d="M112 355q17 0 29 -12t12 -29t-12 -29t-29 -12q-17 1 -29 13t-12 28q0 17 12 29t29 12z" />
    <glyph glyph-name="cedilla" unicode="&#xb8;" horiz-adv-x="333" 
d="M48 -188l4 30q32 -2 33 -2q104 0 104 49q0 17 -14 28t-37 11q-8 0 -29 -3l25 84h37l-17 -61q7 1 14 1q33 0 53 -17t20 -44q0 -36 -39 -58.5t-101 -22.5q-27 0 -53 5z" />
    <glyph glyph-name="onesuperior" unicode="&#xb9;" horiz-adv-x="323" 
d="M102 642h79v-399h-36v363h-67z" />
    <glyph glyph-name="ordmasculine" unicode="&#xba;" horiz-adv-x="354" 
d="M181 614q-46 0 -78 -30.5t-32 -74.5q0 -46 31 -77.5t76 -31.5t76.5 30.5t31.5 73.5q0 45 -31 77.5t-74 32.5zM180 646q57 0 97 -41t40 -99t-40 -98.5t-98 -40.5q-59 0 -100 41t-41 101q0 57 41.5 97t100.5 40z" />
    <glyph glyph-name="guillemotright" unicode="&#xbb;" 
d="M248 495h51l96 -229l-93 -230h-52l92 230zM24 495h53l93 -231l-92 -229h-53l93 230z" />
    <glyph glyph-name="onequarter" unicode="&#xbc;" horiz-adv-x="802" 
d="M659 290l-115 -163h117v163h-2zM697 400v-273h53v-37h-53v-99h-36v100h-187zM78 642h78v-399h-34v363h-68zM582 651h40l-451 -669h-40z" />
    <glyph glyph-name="onehalf" unicode="&#xbd;" horiz-adv-x="802" 
d="M77 642h79v-399h-35v363h-68zM561 30h184v-37h-267l155 169q35 38 49 65.5t14 58.5q0 33 -24.5 54t-62.5 21q-83 0 -88 -96h-38q3 71 35 103q33 33 93 33q54 0 90 -33t36 -83q0 -65 -56 -124zM574 651h40l-451 -669h-40z" />
    <glyph glyph-name="threequarters" unicode="&#xbe;" horiz-adv-x="802" 
d="M687 290l-114 -163h116v163h-2zM725 400h1v-273h53v-37h-54v-99h-36v100h-187zM75 547h-37q14 104 122 104q49 0 80.5 -27.5t31.5 -70.5q0 -67 -64 -89v-2q40 -7 62.5 -34.5t22.5 -67.5q0 -56 -37.5 -91.5t-96.5 -35.5q-61 0 -91 24.5t-37 80.5h35q15 -67 94 -67
q40 0 65.5 23.5t25.5 60.5q0 85 -109 88v41q3 0 7.5 -0.5t6.5 -0.5q34 0 55 18t21 46q0 29 -20.5 47t-54.5 18q-70 0 -82 -65zM637 651h40l-451 -669h-40z" />
    <glyph glyph-name="questiondown" unicode="&#xbf;" horiz-adv-x="375" 
d="M116 249h-56q3 90 41 128q32 32 83 32t84.5 -32.5t33.5 -82.5q0 -46 -37 -83q-21 -21 -76 -55q-45 -27 -66 -46q-25 -28 -25 -67q0 -42 27 -69t69 -27q48 0 70.5 32.5t23.5 102.5h55q-1 -104 -47 -151q-39 -39 -103 -39q-66 0 -108.5 43.5t-42.5 111.5q0 59 44 103
q23 23 79 57q49 29 66 47.5t17 42.5q0 23 -17.5 40.5t-40.5 17.5q-40 0 -57 -25t-17 -81zM180 547q20 0 34 -14t14 -34q0 -19 -14 -33.5t-34 -14.5t-34 14t-14 34t14 34t34 14z" />
    <glyph glyph-name="Agrave" unicode="&#xc0;" horiz-adv-x="594" 
d="M297 510l-107 -254h214zM297 647l272 -647h-58l-83 200h-260l-85 -200h-59zM204 842h86l97 -151h-30z" />
    <glyph glyph-name="Aacute" unicode="&#xc1;" horiz-adv-x="594" 
d="M297 510l-107 -254h214zM297 647l272 -647h-58l-83 200h-260l-85 -200h-59zM319 841h86l-154 -149h-30z" />
    <glyph glyph-name="Acircumflex" unicode="&#xc2;" horiz-adv-x="594" 
d="M297 510l-107 -254h214zM297 647l272 -647h-58l-83 200h-260l-85 -200h-59zM277 845h57l89 -157h-34l-84 106l-83 -105h-34z" />
    <glyph glyph-name="Atilde" unicode="&#xc3;" horiz-adv-x="594" 
d="M297 510l-107 -254h214zM297 647l272 -647h-58l-83 200h-260l-85 -200h-59zM183 692h-28v4q0 42 20.5 65t57.5 23q28 0 85 -25q46 -21 67 -21q39 0 41 46h29v-12q0 -35 -21.5 -57t-55.5 -22q-31 0 -87 25q-45 20 -67 20q-39 0 -41 -46z" />
    <glyph glyph-name="Adieresis" unicode="&#xc4;" horiz-adv-x="594" 
d="M297 510l-107 -254h214zM297 647l272 -647h-58l-83 200h-260l-85 -200h-59zM209 765q16 0 27.5 -10.5t11.5 -25.5q0 -18 -11 -30t-27 -12q-17 0 -28.5 12t-11.5 29q0 15 11.5 26t27.5 11zM387 765q16 0 27.5 -11.5t11.5 -27.5t-11 -27.5t-27 -11.5q-17 0 -29 12t-12 28
t11.5 27t28.5 11z" />
    <glyph glyph-name="Aring" unicode="&#xc5;" horiz-adv-x="594" 
d="M297 510l-107 -254h214zM297 647l272 -647h-58l-83 200h-260l-85 -200h-59zM305 853q37 0 63 -26.5t26 -63.5t-26 -63t-63 -26t-63.5 26t-26.5 63t26 63.5t64 26.5zM304 820q-23 0 -40 -17t-17 -40q0 -24 17 -40.5t40 -16.5q24 0 40.5 16.5t16.5 40.5q0 23 -16.5 40
t-40.5 17z" />
    <glyph glyph-name="AE" unicode="&#xc6;" horiz-adv-x="760" 
d="M408 570l-171 -313h173v313h-2zM381 628h326v-56h-241v-204h241v-55h-241v-257h241v-56h-297v200h-204l-111 -200h-63z" />
    <glyph glyph-name="Ccedilla" unicode="&#xc7;" horiz-adv-x="646" 
d="M612 571v-86q-29 32 -48 46.5t-48 27.5q-53 25 -114 25q-116 0 -196.5 -78t-80.5 -190q0 -114 81 -193t198 -79q52 0 101 20q29 12 50.5 27t57.5 50v-83q-58 -43 -103 -58q-51 -18 -106 -18q-68 0 -134 27.5t-114 76.5q-91 92 -91 232q0 137 98 232.5t240 95.5
q54 0 111 -21q50 -17 98 -54zM205 -188l4 30q32 -2 33 -2q104 0 104 49q0 17 -14 28t-37 11q-8 0 -29 -3l25 84h37l-17 -61q7 1 14 1q33 0 53 -17t20 -44q0 -36 -39 -58.5t-101 -22.5q-27 0 -53 5z" />
    <glyph glyph-name="Egrave" unicode="&#xc8;" 
d="M89 628h301v-56h-245v-202h245v-56h-245v-258h247v-56h-303v628zM120 842h86l97 -151h-30z" />
    <glyph glyph-name="Eacute" unicode="&#xc9;" 
d="M89 628h301v-56h-245v-202h245v-56h-245v-258h247v-56h-303v628zM235 841h86l-154 -149h-30z" />
    <glyph glyph-name="Ecircumflex" unicode="&#xca;" 
d="M89 628h301v-56h-245v-202h245v-56h-245v-258h247v-56h-303v628zM193 845h57l89 -157h-34l-84 106l-83 -105h-34z" />
    <glyph glyph-name="Edieresis" unicode="&#xcb;" 
d="M89 628h301v-56h-245v-202h245v-56h-245v-258h247v-56h-303v628zM125 765q16 0 27.5 -10.5t11.5 -25.5q0 -18 -11 -30t-27 -12q-17 0 -28.5 12t-11.5 29q0 15 11.5 26t27.5 11zM303 765q16 0 27.5 -11.5t11.5 -27.5t-11 -27.5t-27 -11.5q-17 0 -29 12t-12 28t11.5 27
t28.5 11z" />
    <glyph glyph-name="Igrave" unicode="&#xcc;" horiz-adv-x="219" 
d="M83 628h56v-628h-56v628zM16 842h86l97 -151h-30z" />
    <glyph glyph-name="Iacute" unicode="&#xcd;" horiz-adv-x="219" 
d="M83 628h56v-628h-56v628zM131 841h86l-154 -149h-30z" />
    <glyph glyph-name="Icircumflex" unicode="&#xce;" horiz-adv-x="219" 
d="M83 628h56v-628h-56v628zM89 845h57l89 -157h-34l-84 106l-83 -105h-34z" />
    <glyph glyph-name="Idieresis" unicode="&#xcf;" horiz-adv-x="219" 
d="M83 628h56v-628h-56v628zM21 765q16 0 27.5 -10.5t11.5 -25.5q0 -18 -11 -30t-27 -12q-17 0 -28.5 12t-11.5 29q0 15 11.5 26t27.5 11zM199 765q16 0 27.5 -11.5t11.5 -27.5t-11 -27.5t-27 -11.5q-17 0 -29 12t-12 28t11.5 27t28.5 11z" />
    <glyph glyph-name="Eth" unicode="&#xd0;" horiz-adv-x="594" 
d="M156 571v-231h137v-53h-137v-232h56q138 0 210.5 65t72.5 189q0 129 -74 195.5t-217 66.5h-48zM100 628h60q125 0 196.5 -21.5t120.5 -73.5q80 -81 80 -227q0 -138 -86 -222q-46 -46 -107 -65t-160 -19h-104v287h-80v53h80v288z" />
    <glyph glyph-name="Ntilde" unicode="&#xd1;" horiz-adv-x="760" 
d="M98 650l517 -538v516h56v-650l-517 535v-513h-56v650zM266 692h-28v4q0 42 20.5 65t57.5 23q28 0 85 -25q46 -21 67 -21q39 0 41 46h29v-12q0 -35 -21.5 -57t-55.5 -22q-31 0 -87 25q-45 20 -67 20q-39 0 -41 -46z" />
    <glyph glyph-name="Ograve" unicode="&#xd2;" horiz-adv-x="760" 
d="M377 584q-112 0 -185.5 -76t-73.5 -191q0 -119 73.5 -196t188.5 -77q113 0 187.5 76.5t74.5 192.5q0 119 -74 195t-191 76zM376 646q141 0 234 -94t93 -237q0 -144 -91 -238.5t-229 -94.5q-142 0 -234 94.5t-92 239.5q0 142 91 236t228 94zM287 842h86l97 -151h-30z" />
    <glyph glyph-name="Oacute" unicode="&#xd3;" horiz-adv-x="760" 
d="M377 584q-112 0 -185.5 -76t-73.5 -191q0 -119 73.5 -196t188.5 -77q113 0 187.5 76.5t74.5 192.5q0 119 -74 195t-191 76zM376 646q141 0 234 -94t93 -237q0 -144 -91 -238.5t-229 -94.5q-142 0 -234 94.5t-92 239.5q0 142 91 236t228 94zM402 841h86l-154 -149h-30z
" />
    <glyph glyph-name="Ocircumflex" unicode="&#xd4;" horiz-adv-x="760" 
d="M377 584q-112 0 -185.5 -76t-73.5 -191q0 -119 73.5 -196t188.5 -77q113 0 187.5 76.5t74.5 192.5q0 119 -74 195t-191 76zM376 646q141 0 234 -94t93 -237q0 -144 -91 -238.5t-229 -94.5q-142 0 -234 94.5t-92 239.5q0 142 91 236t228 94zM360 845h57l89 -157h-34
l-84 106l-83 -105h-34z" />
    <glyph glyph-name="Otilde" unicode="&#xd5;" horiz-adv-x="760" 
d="M377 584q-112 0 -185.5 -76t-73.5 -191q0 -119 73.5 -196t188.5 -77q113 0 187.5 76.5t74.5 192.5q0 119 -74 195t-191 76zM376 646q141 0 234 -94t93 -237q0 -144 -91 -238.5t-229 -94.5q-142 0 -234 94.5t-92 239.5q0 142 91 236t228 94zM266 692h-28v4q0 42 20.5 65
t57.5 23q28 0 85 -25q46 -21 67 -21q39 0 41 46h29v-12q0 -35 -21.5 -57t-55.5 -22q-31 0 -87 25q-45 20 -67 20q-39 0 -41 -46z" />
    <glyph glyph-name="Odieresis" unicode="&#xd6;" horiz-adv-x="760" 
d="M377 584q-112 0 -185.5 -76t-73.5 -191q0 -119 73.5 -196t188.5 -77q113 0 187.5 76.5t74.5 192.5q0 119 -74 195t-191 76zM376 646q141 0 234 -94t93 -237q0 -144 -91 -238.5t-229 -94.5q-142 0 -234 94.5t-92 239.5q0 142 91 236t228 94zM292 765q16 0 27.5 -10.5
t11.5 -25.5q0 -18 -11 -30t-27 -12q-17 0 -28.5 12t-11.5 29q0 15 11.5 26t27.5 11zM470 765q16 0 27.5 -11.5t11.5 -27.5t-11 -27.5t-27 -11.5q-17 0 -29 12t-12 28t11.5 27t28.5 11z" />
    <glyph glyph-name="multiply" unicode="&#xd7;" horiz-adv-x="667" 
d="M94 525l36 38l204 -205l204 205l37 -38l-204 -204l202 -202l-37 -37l-201 202l-204 -202l-37 37l203 202z" />
    <glyph glyph-name="Oslash" unicode="&#xd8;" horiz-adv-x="760" 
d="M188 130l353 402q-43 30 -78 41.5t-83 11.5q-112 0 -185 -77t-73 -195q0 -54 20 -108q14 -37 46 -75zM577 498l-351 -402q71 -49 157 -49q114 0 186 76.5t72 196.5q0 56 -21 109q-15 38 -43 69zM645 651l38 -32l-65 -74q26 -31 38 -51t24 -53q23 -63 23 -127
q0 -141 -90.5 -235t-225.5 -94q-63 0 -115 17q-44 15 -88 46l-64 -73l-39 33l66 74q-43 51 -63 100q-24 61 -24 133q0 143 90.5 237t227.5 94q59 0 113 -18q44 -15 91 -49z" />
    <glyph glyph-name="Ugrave" unicode="&#xd9;" horiz-adv-x="594" 
d="M80 628h56v-405q0 -91 42 -133q49 -52 120 -52q73 0 116 45.5t43 123.5v421h56v-425q0 -93 -61 -157t-149 -64q-97 0 -160 64.5t-63 162.5v419zM204 842h86l97 -151h-30z" />
    <glyph glyph-name="Uacute" unicode="&#xda;" horiz-adv-x="594" 
d="M80 628h56v-405q0 -91 42 -133q49 -52 120 -52q73 0 116 45.5t43 123.5v421h56v-425q0 -93 -61 -157t-149 -64q-97 0 -160 64.5t-63 162.5v419zM319 841h86l-154 -149h-30z" />
    <glyph glyph-name="Ucircumflex" unicode="&#xdb;" horiz-adv-x="594" 
d="M80 628h56v-405q0 -91 42 -133q49 -52 120 -52q73 0 116 45.5t43 123.5v421h56v-425q0 -93 -61 -157t-149 -64q-97 0 -160 64.5t-63 162.5v419zM277 845h57l89 -157h-34l-84 106l-83 -105h-34z" />
    <glyph glyph-name="Udieresis" unicode="&#xdc;" horiz-adv-x="594" 
d="M80 628h56v-405q0 -91 42 -133q49 -52 120 -52q73 0 116 45.5t43 123.5v421h56v-425q0 -93 -61 -157t-149 -64q-97 0 -160 64.5t-63 162.5v419zM209 765q16 0 27.5 -10.5t11.5 -25.5q0 -18 -11 -30t-27 -12q-17 0 -28.5 12t-11.5 29q0 15 11.5 26t27.5 11zM387 765
q16 0 27.5 -11.5t11.5 -27.5t-11 -27.5t-27 -11.5q-17 0 -29 12t-12 28t11.5 27t28.5 11z" />
    <glyph glyph-name="Yacute" unicode="&#xdd;" horiz-adv-x="542" 
d="M34 628h63l176 -276l174 276h62l-209 -333v-295h-56v298zM293 841h86l-154 -149h-30z" />
    <glyph glyph-name="Thorn" unicode="&#xde;" 
d="M155 419v-213h78q116 0 116 110q0 103 -116 103h-78zM155 628v-153h67q89 0 134.5 -41.5t45.5 -121.5q0 -77 -44.5 -119t-125.5 -42h-77v-151h-55v628h55z" />
    <glyph glyph-name="germandbls" unicode="&#xdf;" horiz-adv-x="490" 
d="M95 1v475q0 73 50 124t121 51q72 0 119.5 -46.5t47.5 -116.5q0 -89 -75 -130q-27 -14 -67 -20v-2q47 -6 74.5 -18t48.5 -36q37 -40 37 -110q0 -77 -49.5 -130.5t-120.5 -53.5q-30 0 -83 20v46q46 -17 73 -17q58 0 92 39t34 106q0 84 -77 115q-31 13 -86 13v47
q79 3 114 38q32 33 32 94q0 48 -33 81t-81 33q-55 0 -89 -38.5t-34 -100.5v-463h-48z" />
    <glyph glyph-name="agrave" unicode="&#xe0;" horiz-adv-x="490" 
d="M224 361q-57 0 -94.5 -45.5t-37.5 -113.5q0 -70 37.5 -115.5t95.5 -45.5q59 0 99.5 46t40.5 113q0 66 -41.5 113.5t-99.5 47.5zM362 320v81h51v-401h-51v76h-2q-67 -88 -144 -88q-73 0 -126 64.5t-53 152.5q0 83 54 145.5t126 62.5q52 0 93 -32q25 -20 50 -61h2zM152 640
h86l97 -151h-30z" />
    <glyph glyph-name="aacute" unicode="&#xe1;" horiz-adv-x="490" 
d="M224 361q-57 0 -94.5 -45.5t-37.5 -113.5q0 -70 37.5 -115.5t95.5 -45.5q59 0 99.5 46t40.5 113q0 66 -41.5 113.5t-99.5 47.5zM362 320v81h51v-401h-51v76h-2q-67 -88 -144 -88q-73 0 -126 64.5t-53 152.5q0 83 54 145.5t126 62.5q52 0 93 -32q25 -20 50 -61h2zM267 639
h86l-154 -149h-30z" />
    <glyph glyph-name="acircumflex" unicode="&#xe2;" horiz-adv-x="490" 
d="M224 361q-57 0 -94.5 -45.5t-37.5 -113.5q0 -70 37.5 -115.5t95.5 -45.5q59 0 99.5 46t40.5 113q0 66 -41.5 113.5t-99.5 47.5zM362 320v81h51v-401h-51v76h-2q-67 -88 -144 -88q-73 0 -126 64.5t-53 152.5q0 83 54 145.5t126 62.5q52 0 93 -32q25 -20 50 -61h2zM225 643
h57l89 -157h-34l-84 106l-83 -105h-34z" />
    <glyph glyph-name="atilde" unicode="&#xe3;" horiz-adv-x="490" 
d="M224 361q-57 0 -94.5 -45.5t-37.5 -113.5q0 -70 37.5 -115.5t95.5 -45.5q59 0 99.5 46t40.5 113q0 66 -41.5 113.5t-99.5 47.5zM362 320v81h51v-401h-51v76h-2q-67 -88 -144 -88q-73 0 -126 64.5t-53 152.5q0 83 54 145.5t126 62.5q52 0 93 -32q25 -20 50 -61h2zM131 490
h-28v4q0 42 20.5 65t57.5 23q28 0 85 -25q46 -21 67 -21q39 0 41 46h29v-12q0 -35 -21.5 -57t-55.5 -22q-31 0 -87 25q-45 20 -67 20q-39 0 -41 -46z" />
    <glyph glyph-name="adieresis" unicode="&#xe4;" horiz-adv-x="490" 
d="M224 361q-57 0 -94.5 -45.5t-37.5 -113.5q0 -70 37.5 -115.5t95.5 -45.5q59 0 99.5 46t40.5 113q0 66 -41.5 113.5t-99.5 47.5zM362 320v81h51v-401h-51v76h-2q-67 -88 -144 -88q-73 0 -126 64.5t-53 152.5q0 83 54 145.5t126 62.5q52 0 93 -32q25 -20 50 -61h2zM157 563
q16 0 27.5 -10.5t11.5 -25.5q0 -18 -11 -30t-27 -12q-17 0 -28.5 12t-11.5 29q0 15 11.5 26t27.5 11zM335 563q16 0 27.5 -11.5t11.5 -27.5t-11 -27.5t-27 -11.5q-17 0 -29 12t-12 28t11.5 27t28.5 11z" />
    <glyph glyph-name="aring" unicode="&#xe5;" horiz-adv-x="490" 
d="M224 361q-57 0 -94.5 -45.5t-37.5 -113.5q0 -70 37.5 -115.5t95.5 -45.5q59 0 99.5 46t40.5 113q0 66 -41.5 113.5t-99.5 47.5zM362 320v81h51v-401h-51v76h-2q-67 -88 -144 -88q-73 0 -126 64.5t-53 152.5q0 83 54 145.5t126 62.5q52 0 93 -32q25 -20 50 -61h2zM253 651
q37 0 63 -26.5t26 -63.5t-26 -63t-63 -26t-63.5 26t-26.5 63t26 63.5t64 26.5zM252 618q-23 0 -40 -17t-17 -40q0 -24 17 -40.5t40 -16.5q24 0 40.5 16.5t16.5 40.5q0 23 -16.5 40t-40.5 17z" />
    <glyph glyph-name="ae" unicode="&#xe6;" horiz-adv-x="760" 
d="M404 241h260q-13 57 -46 87t-83 30q-47 0 -84 -33q-20 -16 -29.5 -33t-17.5 -51zM213 355q-52 0 -85.5 -44.5t-33.5 -113.5q0 -71 35 -115.5t90 -44.5t93 45t38 109q0 68 -40 116t-97 48zM397 395v-54q58 67 139 67q72 0 124 -54q30 -29 42.5 -62.5t18.5 -99.5h-323
q4 -68 44.5 -113.5t97.5 -45.5q81 0 125 102h48q-15 -55 -40 -86q-53 -65 -135 -65q-44 0 -75 16.5t-63 57.5h-2v-62h-50v77h-2q-43 -53 -70.5 -71t-66.5 -18q-69 0 -120 62.5t-51 146.5q0 89 50.5 151.5t121.5 62.5q82 0 135 -95h2v83h50z" />
    <glyph glyph-name="ccedilla" unicode="&#xe7;" 
d="M387 99v-67q-65 -44 -126 -44q-87 0 -146.5 62.5t-59.5 153.5q0 88 61 148.5t149 60.5q60 0 122 -43v-66q-78 55 -127 55q-61 0 -104.5 -45t-43.5 -109q0 -70 42 -115.5t107 -45.5q31 0 57 11.5t69 43.5zM95 -188l4 30q32 -2 33 -2q104 0 104 49q0 17 -14 28t-37 11
q-8 0 -29 -3l25 84h37l-17 -61q7 1 14 1q33 0 53 -17t20 -44q0 -36 -39 -58.5t-101 -22.5q-27 0 -53 5z" />
    <glyph glyph-name="egrave" unicode="&#xe8;" horiz-adv-x="490" 
d="M104 248h282q-13 54 -50 85.5t-87 31.5q-73 0 -118 -58q-17 -23 -27 -59zM445 197h-348q7 -74 50 -116q46 -44 106 -44q93 0 133 102h49q-15 -69 -65 -110t-118 -41q-86 0 -145.5 64t-59.5 156q0 84 57.5 144.5t136.5 60.5q62 0 112 -34t75 -92q14 -33 17 -90zM152 640
h86l97 -151h-30z" />
    <glyph glyph-name="eacute" unicode="&#xe9;" horiz-adv-x="490" 
d="M104 248h282q-13 54 -50 85.5t-87 31.5q-73 0 -118 -58q-17 -23 -27 -59zM445 197h-348q7 -74 50 -116q46 -44 106 -44q93 0 133 102h49q-15 -69 -65 -110t-118 -41q-86 0 -145.5 64t-59.5 156q0 84 57.5 144.5t136.5 60.5q62 0 112 -34t75 -92q14 -33 17 -90zM267 639
h86l-154 -149h-30z" />
    <glyph glyph-name="ecircumflex" unicode="&#xea;" horiz-adv-x="490" 
d="M104 248h282q-13 54 -50 85.5t-87 31.5q-73 0 -118 -58q-17 -23 -27 -59zM445 197h-348q7 -74 50 -116q46 -44 106 -44q93 0 133 102h49q-15 -69 -65 -110t-118 -41q-86 0 -145.5 64t-59.5 156q0 84 57.5 144.5t136.5 60.5q62 0 112 -34t75 -92q14 -33 17 -90zM225 643
h57l89 -157h-34l-84 106l-83 -105h-34z" />
    <glyph glyph-name="edieresis" unicode="&#xeb;" horiz-adv-x="490" 
d="M104 248h282q-13 54 -50 85.5t-87 31.5q-73 0 -118 -58q-17 -23 -27 -59zM445 197h-348q7 -74 50 -116q46 -44 106 -44q93 0 133 102h49q-15 -69 -65 -110t-118 -41q-86 0 -145.5 64t-59.5 156q0 84 57.5 144.5t136.5 60.5q62 0 112 -34t75 -92q14 -33 17 -90zM157 563
q16 0 27.5 -10.5t11.5 -25.5q0 -18 -11 -30t-27 -12q-17 0 -28.5 12t-11.5 29q0 15 11.5 26t27.5 11zM335 563q16 0 27.5 -11.5t11.5 -27.5t-11 -27.5t-27 -11.5q-17 0 -29 12t-12 28t11.5 27t28.5 11z" />
    <glyph glyph-name="igrave" unicode="&#xec;" horiz-adv-x="219" 
d="M88 401h51v-401h-51v401zM16 640h86l97 -151h-30z" />
    <glyph glyph-name="iacute" unicode="&#xed;" horiz-adv-x="219" 
d="M88 401h51v-401h-51v401zM131 639h86l-154 -149h-30z" />
    <glyph glyph-name="icircumflex" unicode="&#xee;" horiz-adv-x="219" 
d="M88 401h51v-401h-51v401zM89 643h57l89 -157h-34l-84 106l-83 -105h-34z" />
    <glyph glyph-name="idieresis" unicode="&#xef;" horiz-adv-x="219" 
d="M88 401h51v-401h-51v401zM21 563q16 0 27.5 -10.5t11.5 -25.5q0 -18 -11 -30t-27 -12q-17 0 -28.5 12t-11.5 29q0 15 11.5 26t27.5 11zM199 563q16 0 27.5 -11.5t11.5 -27.5t-11 -27.5t-27 -11.5q-17 0 -29 12t-12 28t11.5 27t28.5 11z" />
    <glyph glyph-name="eth" unicode="&#xf0;" horiz-adv-x="542" 
d="M284 364q-71 0 -117.5 -47.5t-46.5 -120.5q0 -66 47 -112t114 -46q68 0 114.5 47t46.5 117q0 67 -46.5 114.5t-111.5 47.5zM148 619l23 34q57 -15 119 -49l95 48l18 -35l-74 -38q49 -38 72.5 -63.5t45.5 -67.5q48 -93 48 -217q0 -109 -59.5 -175.5t-155.5 -66.5
q-89 0 -150 62t-61 153q0 85 63 147t149 62q95 0 150 -72l2 2q-14 55 -30 87.5t-45 64.5q-26 29 -73 62l-151 -78l-18 36l127 65q-33 16 -79 33z" />
    <glyph glyph-name="ntilde" unicode="&#xf1;" 
d="M130 401v-52h2q47 64 111 64q50 0 83.5 -40t33.5 -100v-273h-51v246q0 119 -84 119q-37 0 -66 -34.5t-29 -79.5v-251h-51v401h51zM99 490h-28v4q0 42 20.5 65t57.5 23q28 0 85 -25q46 -21 67 -21q39 0 41 46h29v-12q0 -35 -21.5 -57t-55.5 -22q-31 0 -87 25
q-45 20 -67 20q-39 0 -41 -46z" />
    <glyph glyph-name="ograve" unicode="&#xf2;" horiz-adv-x="542" 
d="M276 365q-72 0 -120.5 -47t-48.5 -116t49 -117t120 -48q65 0 113 47.5t48 112.5q0 70 -46.5 119t-114.5 49zM274 413q89 0 151 -62t62 -152q0 -88 -62.5 -149.5t-151.5 -61.5q-91 0 -153 62t-62 152q0 91 61.5 151t154.5 60zM178 640h86l97 -151h-30z" />
    <glyph glyph-name="oacute" unicode="&#xf3;" horiz-adv-x="542" 
d="M276 365q-72 0 -120.5 -47t-48.5 -116t49 -117t120 -48q65 0 113 47.5t48 112.5q0 70 -46.5 119t-114.5 49zM274 413q89 0 151 -62t62 -152q0 -88 -62.5 -149.5t-151.5 -61.5q-91 0 -153 62t-62 152q0 91 61.5 151t154.5 60zM293 639h86l-154 -149h-30z" />
    <glyph glyph-name="ocircumflex" unicode="&#xf4;" horiz-adv-x="542" 
d="M276 365q-72 0 -120.5 -47t-48.5 -116t49 -117t120 -48q65 0 113 47.5t48 112.5q0 70 -46.5 119t-114.5 49zM274 413q89 0 151 -62t62 -152q0 -88 -62.5 -149.5t-151.5 -61.5q-91 0 -153 62t-62 152q0 91 61.5 151t154.5 60zM251 643h57l89 -157h-34l-84 106l-83 -105
h-34z" />
    <glyph glyph-name="otilde" unicode="&#xf5;" horiz-adv-x="542" 
d="M276 365q-72 0 -120.5 -47t-48.5 -116t49 -117t120 -48q65 0 113 47.5t48 112.5q0 70 -46.5 119t-114.5 49zM274 413q89 0 151 -62t62 -152q0 -88 -62.5 -149.5t-151.5 -61.5q-91 0 -153 62t-62 152q0 91 61.5 151t154.5 60zM157 490h-28v4q0 42 20.5 65t57.5 23
q28 0 85 -25q46 -21 67 -21q39 0 41 46h29v-12q0 -35 -21.5 -57t-55.5 -22q-31 0 -87 25q-45 20 -67 20q-39 0 -41 -46z" />
    <glyph glyph-name="odieresis" unicode="&#xf6;" horiz-adv-x="542" 
d="M276 365q-72 0 -120.5 -47t-48.5 -116t49 -117t120 -48q65 0 113 47.5t48 112.5q0 70 -46.5 119t-114.5 49zM274 413q89 0 151 -62t62 -152q0 -88 -62.5 -149.5t-151.5 -61.5q-91 0 -153 62t-62 152q0 91 61.5 151t154.5 60zM183 563q16 0 27.5 -10.5t11.5 -25.5
q0 -18 -11 -30t-27 -12q-17 0 -28.5 12t-11.5 29q0 15 11.5 26t27.5 11zM361 563q16 0 27.5 -11.5t11.5 -27.5t-11 -27.5t-27 -11.5q-17 0 -29 12t-12 28t11.5 27t28.5 11z" />
    <glyph glyph-name="divide" unicode="&#xf7;" horiz-adv-x="667" 
d="M297 527q1 13 11.5 22.5t24.5 9.5t24.5 -10t10.5 -24q0 -15 -10.5 -25.5t-24.5 -10.5q-15 0 -25.5 11t-10.5 27zM297 122q0 15 10.5 25t25.5 10t25 -10t10 -25q0 -14 -10 -24.5t-25 -10.5t-25.5 10.5t-10.5 24.5zM70 347h528v-51h-528v51z" />
    <glyph glyph-name="oslash" unicode="&#xf8;" horiz-adv-x="542" 
d="M149 92l213 245q-45 27 -90 27q-68 0 -116 -47.5t-48 -114.5q0 -57 41 -110zM394 309l-213 -245q49 -26 89 -26q68 0 116 46.5t48 113.5q0 34 -7.5 55t-32.5 56zM451 438l32 -27l-57 -65q32 -37 44.5 -69.5t12.5 -76.5q0 -88 -61.5 -149.5t-149.5 -61.5q-55 0 -124 37
l-57 -66l-33 28l59 67q-33 39 -45.5 72t-12.5 78q0 85 62 146.5t148 61.5q57 0 126 -38z" />
    <glyph glyph-name="ugrave" unicode="&#xf9;" 
d="M68 401h51v-265q0 -46 26.5 -72t72.5 -26q43 0 69.5 27t26.5 70v266h51v-271q0 -61 -42 -101.5t-106 -40.5t-106.5 40.5t-42.5 101.5v271zM120 640h86l97 -151h-30z" />
    <glyph glyph-name="uacute" unicode="&#xfa;" 
d="M68 401h51v-265q0 -46 26.5 -72t72.5 -26q43 0 69.5 27t26.5 70v266h51v-271q0 -61 -42 -101.5t-106 -40.5t-106.5 40.5t-42.5 101.5v271zM235 639h86l-154 -149h-30z" />
    <glyph glyph-name="ucircumflex" unicode="&#xfb;" 
d="M68 401h51v-265q0 -46 26.5 -72t72.5 -26q43 0 69.5 27t26.5 70v266h51v-271q0 -61 -42 -101.5t-106 -40.5t-106.5 40.5t-42.5 101.5v271zM193 643h57l89 -157h-34l-84 106l-83 -105h-34z" />
    <glyph glyph-name="udieresis" unicode="&#xfc;" 
d="M68 401h51v-265q0 -46 26.5 -72t72.5 -26q43 0 69.5 27t26.5 70v266h51v-271q0 -61 -42 -101.5t-106 -40.5t-106.5 40.5t-42.5 101.5v271zM125 563q16 0 27.5 -10.5t11.5 -25.5q0 -18 -11 -30t-27 -12q-17 0 -28.5 12t-11.5 29q0 15 11.5 26t27.5 11zM303 563
q16 0 27.5 -11.5t11.5 -27.5t-11 -27.5t-27 -11.5q-17 0 -29 12t-12 28t11.5 27t28.5 11z" />
    <glyph glyph-name="yacute" unicode="&#xfd;" 
d="M12 401h51l151 -334l151 334h51l-262 -580h-53l87 190zM235 639h86l-154 -149h-30z" />
    <glyph glyph-name="thorn" unicode="&#xfe;" horiz-adv-x="490" 
d="M276 360q-58 0 -99 -46.5t-41 -113.5q0 -68 41 -114.5t101 -46.5q55 0 92.5 46.5t37.5 113.5t-38.5 114t-93.5 47zM139 651v-328h2q20 29 35 43t38 27q38 19 72 19q70 0 123.5 -64.5t53.5 -150.5q0 -84 -54 -147.5t-127 -63.5q-82 0 -141 93h-2v-261h-50v833h50z" />
    <glyph glyph-name="ydieresis" unicode="&#xff;" 
d="M12 401h51l151 -334l151 334h51l-262 -580h-53l87 190zM125 563q16 0 27.5 -10.5t11.5 -25.5q0 -18 -11 -30t-27 -12q-17 0 -28.5 12t-11.5 29q0 15 11.5 26t27.5 11zM303 563q16 0 27.5 -11.5t11.5 -27.5t-11 -27.5t-27 -11.5q-17 0 -29 12t-12 28t11.5 27t28.5 11z" />
    <glyph glyph-name="dotlessi" unicode="&#x131;" horiz-adv-x="219" 
d="M88 401h51v-401h-51v401z" />
    <glyph glyph-name="Lslash" unicode="&#x141;" horiz-adv-x="323" 
d="M98 627h54v-256l83 70v-65l-83 -71v-250h149v-55h-204v260l-59 -51v66l60 50v302z" />
    <glyph glyph-name="lslash" unicode="&#x142;" horiz-adv-x="219" 
d="M94 648h50v-275l68 56v-57l-68 -57v-315h-50v272l-69 -57v56l69 58v319z" />
    <glyph glyph-name="OE" unicode="&#x152;" horiz-adv-x="760" 
d="M422 56v518q-80 -1 -123 -11q-69 -14 -118 -62q-70 -70 -70 -186q0 -83 37.5 -143.5t106.5 -89.5q58 -25 167 -26zM718 628v-56h-242v-202h241v-56h-241v-259h240v-55h-238q-104 0 -159.5 6.5t-94.5 23.5q-48 20 -87 58q-87 86 -87 228q0 143 89 227.5t239 84.5h340z" />
    <glyph glyph-name="oe" unicode="&#x153;" horiz-adv-x="760" 
d="M427 242h240q-5 53 -38.5 85.5t-82.5 32.5q-96 0 -119 -118zM232 360q-60 0 -100.5 -47.5t-40.5 -117.5q0 -69 41 -114.5t103 -45.5q58 0 100 46t42 110q0 73 -41 121t-104 48zM663 134h49q-16 -59 -39 -88q-48 -61 -118 -61q-61 0 -105 37q-23 20 -50 67
q-26 -42 -51 -63q-47 -40 -115 -40q-80 0 -136.5 61t-56.5 148q0 91 55.5 152t137.5 61q73 0 125 -49q21 -21 38 -53q44 102 149 102q55 0 98.5 -32t64.5 -88q14 -35 15 -95h-300q4 -79 49 -125q33 -35 78 -35q39 0 69 26.5t43 74.5z" />
    <glyph glyph-name="Scaron" unicode="&#x160;" horiz-adv-x="490" 
d="M387 557l-43 -44q-37 41 -62 56t-58 15q-39 0 -65 -23t-26 -57q0 -42 36 -80q23 -21 85 -56q46 -25 64.5 -37.5t46.5 -38.5q62 -65 62 -132q0 -73 -56 -125.5t-134 -52.5q-70 0 -122 41q-22 18 -37 34.5t-38 51.5l55 29q33 -51 65.5 -72.5t74.5 -21.5q55 0 92 33.5
t37 82.5q0 45 -32 79.5t-112 78.5q-61 33 -95 64q-54 59 -54 125q0 59 45 99t111 40q53 0 105 -36q22 -15 55 -53zM351 845h35l-103 -157h-60l-103 156h34l99 -105z" />
    <glyph glyph-name="scaron" unicode="&#x161;" horiz-adv-x="323" 
d="M30 50l32 39q47 -51 93 -51q34 0 59.5 18.5t25.5 43.5q0 24 -20 43t-67 40t-74 45q-32 35 -32 73q0 47 33.5 79.5t81.5 32.5q65 0 124 -65l-34 -36q-45 52 -89 52q-27 0 -46.5 -17.5t-19.5 -41.5t14 -38.5t55 -33.5q56 -26 89 -55q35 -38 35 -75q0 -46 -38 -80.5
t-90 -34.5q-76 0 -132 62zM267 643h35l-103 -157h-60l-103 156h34l99 -105z" />
    <glyph glyph-name="Ydieresis" unicode="&#x178;" horiz-adv-x="542" 
d="M34 628h63l176 -276l174 276h62l-209 -333v-295h-56v298zM183 765q16 0 27.5 -10.5t11.5 -25.5q0 -18 -11 -30t-27 -12q-17 0 -28.5 12t-11.5 29q0 15 11.5 26t27.5 11zM361 765q16 0 27.5 -11.5t11.5 -27.5t-11 -27.5t-27 -11.5q-17 0 -29 12t-12 28t11.5 27t28.5 11z
" />
    <glyph glyph-name="Zcaron" unicode="&#x17d;" horiz-adv-x="542" 
d="M79 628h420l-354 -572h342v-56h-440l357 572h-325v56zM377 845h35l-103 -157h-60l-103 156h34l99 -105z" />
    <glyph glyph-name="zcaron" unicode="&#x17e;" 
d="M43 401h367l-287 -350h282v-51h-386l290 350h-266v51zM319 643h35l-103 -157h-60l-103 156h34l99 -105z" />
    <glyph glyph-name="florin" unicode="&#x192;" horiz-adv-x="556" 
d="M359 518h109l-11 -44h-107l-121 -557q-13 -59 -34 -87q-32 -40 -99 -40q-40 0 -89 15l11 49q43 -11 70 -11q63 0 74 49l18 81l6 27l102 474h-82l9 44h82l13 52q3 15 6 28q13 55 29.5 80.5t47.5 38.5q27 11 56 11q31 0 90 -16l-10 -48q-40 10 -74 10t-49 -15.5t-28 -63.5
l-7 -23z" />
    <glyph glyph-name="circumflex" unicode="&#x2c6;" horiz-adv-x="333" 
d="M146 643h57l89 -157h-34l-84 106l-83 -105h-34z" />
    <glyph glyph-name="caron" unicode="&#x2c7;" horiz-adv-x="333" 
d="M272 643h35l-103 -157h-60l-103 156h34l99 -105z" />
    <glyph glyph-name="breve" unicode="&#x2d8;" horiz-adv-x="333" 
d="M43 617h38q29 -67 92 -67q65 0 95 66h37q-20 -46 -43 -69q-38 -39 -87 -39q-54 0 -94 43q-22 24 -38 66z" />
    <glyph glyph-name="dotaccent" unicode="&#x2d9;" horiz-adv-x="333" 
d="M163 578q21 0 36.5 -14t15.5 -33q0 -20 -13.5 -34t-32.5 -14q-21 0 -35.5 13.5t-14.5 32.5q0 20 12.5 34.5t31.5 14.5z" />
    <glyph glyph-name="ring" unicode="&#x2da;" horiz-adv-x="333" 
d="M174 651q37 0 63 -26.5t26 -63.5t-26 -63t-63 -26t-63.5 26t-26.5 63t26 63.5t64 26.5zM173 618q-23 0 -40 -17t-17 -40q0 -24 17 -40.5t40 -16.5q24 0 40.5 16.5t16.5 40.5q0 23 -16.5 40t-40.5 17z" />
    <glyph glyph-name="ogonek" unicode="&#x2db;" horiz-adv-x="333" 
d="M120 10h45q-16 -51 -16 -79q0 -37 19 -57.5t53 -20.5q31 0 74 17v-42q-52 -25 -101 -25q-43 0 -68.5 29.5t-25.5 78.5q0 34 20 99z" />
    <glyph glyph-name="tilde" unicode="&#x2dc;" horiz-adv-x="333" 
d="M52 490h-28v4q0 42 20.5 65t57.5 23q28 0 85 -25q46 -21 67 -21q39 0 41 46h29v-12q0 -35 -21.5 -57t-55.5 -22q-31 0 -87 25q-45 20 -67 20q-39 0 -41 -46z" />
    <glyph glyph-name="hungarumlaut" unicode="&#x2dd;" horiz-adv-x="333" 
d="M29 639h86l-154 -149h-30zM174 639h86l-154 -149h-30z" />
    <glyph glyph-name="Delta" unicode="&#x394;" horiz-adv-x="489" 
d="M482 0h-470v32l208 668h58l204 -668v-32zM419 47l-158 529q-4 13 -8 31.5t-5 22.5h-2q-7 -32 -13 -53l-159 -530h345z" />
    <glyph glyph-name="Delta" unicode="&#x2206;" horiz-adv-x="489" 
d="M482 0h-470v32l208 668h58l204 -668v-32zM419 47l-158 529q-4 13 -8 31.5t-5 22.5h-2q-7 -32 -13 -53l-159 -530h345z" />
    <glyph glyph-name="Omega" unicode="&#x3a9;" horiz-adv-x="614" 
d="M559 0h-186v47q129 129 129 330q0 128 -51.5 207.5t-143.5 79.5q-93 0 -147.5 -81t-54.5 -205q0 -201 132 -331v-47h-186v47h131q-133 128 -133 335q0 141 72 235.5t187 94.5q116 0 183 -89.5t67 -238.5q0 -110 -38 -197t-93 -140h132v-47z" />
    <glyph glyph-name="Omega" unicode="&#x2126;" horiz-adv-x="614" 
d="M559 0h-186v47q129 129 129 330q0 128 -51.5 207.5t-143.5 79.5q-93 0 -147.5 -81t-54.5 -205q0 -201 132 -331v-47h-186v47h131q-133 128 -133 335q0 141 72 235.5t187 94.5q116 0 183 -89.5t67 -238.5q0 -110 -38 -197t-93 -140h132v-47z" />
    <glyph glyph-name="pi" unicode="&#x3c0;" horiz-adv-x="498" 
d="M493 5q-19 -11 -53 -11q-54 0 -78.5 34.5t-24.5 86.5v336h-167v-322q0 -78 -12 -129h-61q13 48 13 130v321q-41 0 -85 -18l-17 44q42 23 119 23h364v-49h-94v-331q0 -77 56 -77q13 0 28 6z" />
    <glyph glyph-name="endash" unicode="&#x2013;" horiz-adv-x="500" 
d="M-9 276h518v-45h-518v45z" />
    <glyph glyph-name="emdash" unicode="&#x2014;" horiz-adv-x="1000" 
d="M-9 276h1018v-45h-1018v45z" />
    <glyph glyph-name="quoteleft" unicode="&#x2018;" horiz-adv-x="219" 
d="M115 631l33 -12q-26 -47 -32 -102h31v-117h-67v110q0 44 35 121z" />
    <glyph glyph-name="quoteright" unicode="&#x2019;" horiz-adv-x="219" 
d="M79 626h69v-103q0 -51 -35 -127l-33 12q27 57 30 100l-31 1v117z" />
    <glyph glyph-name="quotesinglbase" unicode="&#x201a;" horiz-adv-x="219" 
d="M133 78l46 -22l-95 -175l-34 16z" />
    <glyph glyph-name="quotedblleft" unicode="&#x201c;" horiz-adv-x="375" 
d="M109 628l31 -15q-26 -58 -29 -98h30v-118h-67v82q0 78 35 149zM273 628l31 -15q-25 -55 -29 -99h29v-117h-66v104q0 62 35 127z" />
    <glyph glyph-name="quotedblright" unicode="&#x201d;" horiz-adv-x="375" 
d="M74 628h66v-103q0 -67 -36 -128l-30 15q25 51 29 98h-29v118zM237 628h67v-81q0 -77 -35 -151l-32 16q27 57 30 98h-30v118z" />
    <glyph glyph-name="quotedblbase" unicode="&#x201e;" horiz-adv-x="375" 
d="M234 119h69v-94q0 -73 -37 -138l-30 16q26 50 29 98h-31v118zM71 119h68v-96q0 -74 -37 -136l-31 16q26 50 30 98h-30v118z" />
    <glyph glyph-name="dagger" unicode="&#x2020;" 
d="M223 -124h-18q-6 201 -17 313q-7 59 -7 98v3q0 36 16 83q7 19 8 35q-28 -1 -62 -11q-27 -6 -34 -6q-18 0 -29 7.5t-11 19.5q0 28 39 28q19 0 47 -9q31 -8 51 -9q-2 48 -15 104q-10 43 -10 58q0 19 9 32t23 13q16 0 25 -12.5t9 -33.5q0 -20 -11 -67q-12 -47 -13 -94
q22 1 54 10q29 7 43 7q16 0 27.5 -8t11.5 -19q0 -12 -11 -19.5t-28 -7.5q-19 0 -46 7q-30 8 -51 8q1 -13 8 -34q16 -53 16 -85q0 -36 -7 -95q-11 -112 -17 -316z" />
    <glyph glyph-name="daggerdbl" unicode="&#x2021;" 
d="M239 457l-16 2q1 -9 9 -30q14 -33 14 -49q0 -15 -10 -46q-14 -46 -14 -79q0 -27 14 -76q10 -31 10 -43q0 -14 -12 -44q-9 -21 -10 -34q20 1 48 8q26 8 46 9q40 -2 40 -28q0 -12 -10.5 -19.5t-27.5 -7.5q-20 0 -51 9q-27 8 -46 9q2 -38 14 -78q8 -29 8 -42q0 -16 -9 -27.5
t-23 -11.5t-23 10.5t-9 27.5q0 16 9 49q12 41 13 72q-29 -4 -57 -11q-27 -8 -40 -8q-17 0 -27.5 8t-10.5 21q0 28 39 28q15 0 46 -10q28 -9 49 -10q-1 13 -9 35q-12 28 -12 46q0 13 9 43q14 50 14 81q0 32 -14 75q-9 31 -9 46q0 18 12 45q8 21 9 32q-25 -1 -59 -11
q-29 -6 -36 -6q-16 0 -27.5 7.5t-11.5 18.5q0 30 39 30q17 0 47 -9q28 -8 50 -9q-1 25 -14 74q-9 33 -9 45q0 17 9.5 28.5t23.5 11.5t23.5 -11t9.5 -27t-11 -52q-12 -37 -13 -70l14 1l76 17q1 1 6 1h1q38 0 38 -28q0 -29 -37 -29h-1h-7z" />
    <glyph glyph-name="bullet" unicode="&#x2022;" horiz-adv-x="500" 
d="M372 349q0 -50 -36 -86t-86 -36t-86 36.5t-36 87.5q0 50 36 85.5t86 35.5t86 -36t36 -87z" />
    <glyph glyph-name="ellipsis" unicode="&#x2026;" horiz-adv-x="1000" 
d="M167 68q17 0 29 -12t12 -29t-12 -29t-29 -12t-28.5 12t-11.5 29t12 29t28 12zM500 70q17 0 29 -12t12 -29t-12.5 -29t-28.5 -12q-17 0 -29 12t-12 29t12 29t29 12zM833 71q17 0 29 -12t12 -28q0 -17 -12 -29t-29 -12t-29 12t-12 29t12 28.5t29 11.5z" />
    <glyph glyph-name="perthousand" unicode="&#x2030;" horiz-adv-x="833" 
d="M674 257q-36 0 -55.5 -32.5t-19.5 -93.5t20.5 -94.5t56.5 -33.5q33 0 53 32.5t20 86.5q0 135 -75 135zM673 296q52 0 82.5 -44t30.5 -118q0 -80 -28.5 -125t-80.5 -45q-55 0 -85.5 44.5t-30.5 125.5q0 73 31 117.5t81 44.5zM425 257q-36 0 -55.5 -32.5t-19.5 -93.5
t20.5 -94.5t56.5 -33.5q33 0 53 32.5t20 86.5q0 135 -75 135zM424 296q52 0 82.5 -43.5t30.5 -117.5q0 -80 -29 -125.5t-80 -45.5q-55 0 -85.5 44.5t-30.5 125.5q0 73 31 117.5t81 44.5zM157 604q-75 -2 -75 -127q0 -61 20 -94.5t56 -33.5q33 0 53 32.5t20 86.5
q0 136 -74 136zM156 642q51 0 82 -44t31 -117q0 -80 -29 -125.5t-80 -45.5q-55 0 -86 45t-31 125q0 73 31 117.5t82 44.5zM495 645h43l-449 -683h-43z" />
    <glyph glyph-name="guilsinglleft" unicode="&#x2039;" horiz-adv-x="219" 
d="M127 499h53l-96 -228l94 -230h-54l-93 230z" />
    <glyph glyph-name="guilsinglright" unicode="&#x203a;" horiz-adv-x="219" 
d="M33 499h53l94 -230l-95 -229h-53l94 229z" />
    <glyph glyph-name="fraction" unicode="&#x2044;" horiz-adv-x="156" 
d="M285 651h39l-450 -669h-40z" />
    <glyph glyph-name="fraction" unicode="&#x2215;" horiz-adv-x="156" 
d="M285 651h39l-450 -669h-40z" />
    <glyph glyph-name="Euro" unicode="&#x20ac;" horiz-adv-x="450" 
d="M417 39q-57 -57 -130 -57q-96 0 -152 73t-63 192h-55l11 47h41v24v24h-53l12 47h44q12 129 71.5 193t142.5 64q37 0 75 -22t55 -45v-71q-6 9 -14.5 19.5t-25.5 26.5t-41 26t-49 10q-71 0 -112.5 -51.5t-47.5 -149.5h245l-11 -47h-235q-1 -9 -1 -26v-22h224l-11 -47h-211
q19 -209 161 -209q67 0 130 72v-71z" />
    <glyph glyph-name="litre" unicode="&#x2113;" horiz-adv-x="458" 
d="M376 54q-57 -66 -121 -66q-46 0 -71 27q-35 37 -35 114v129l-59 -68l-15.5 15t-15.5 16l90 105v240q0 80 28.5 121t78.5 41q43 0 65 -30.5t22 -68.5q0 -116 -108 -268l-15 -19.5l-15 -19.5v-199q0 -45 17 -66.5t43 -21.5q41 0 85 52zM294 624q0 56 -37 56q-52 0 -52 -116
v-169q8 11 17 25q72 112 72 204z" />
    <glyph glyph-name="trademark" unicode="&#x2122;" horiz-adv-x="940" 
d="M100 716h310v-43h-131v-356h-49v356h-130v43zM456 716h75l99 -319h2l103 319h75v-399h-44v356h-2l-117 -356h-34l-110 356h-2v-356h-45v399z" />
    <glyph glyph-name="estimated" unicode="&#x212e;" horiz-adv-x="633" 
d="M592 280h-432v-193q62 -62 153 -62q131 0 206 127l36 -21q-48 -71 -104 -107t-138 -36q-123 0 -198 83.5t-75 208.5t74.5 208.5t198.5 83.5q126 0 200 -82.5t79 -209.5zM468 317v154q-65 65 -155 65q-91 0 -153 -63v-156h308z" />
    <glyph glyph-name="partialdiff" unicode="&#x2202;" horiz-adv-x="481" 
d="M444 513q0 -93 -25 -203q-12 -57 -31.5 -109t-49 -101.5t-73 -79t-94.5 -29.5q-63 0 -100.5 46t-37.5 122q0 136 70 239t170 103q74 0 109 -67h2q5 58 5 81q0 88 -30 126t-87 38q-36 0 -73 -21l-15 42q42 26 94 26q166 0 166 -213zM375 372q-24 83 -104 83
q-75 0 -129 -92t-54 -206q0 -58 24.5 -89t61.5 -31q67 0 119 87t82 248z" />
    <glyph glyph-name="product" unicode="&#x220f;" horiz-adv-x="596" 
d="M520 -230h-55v882h-333v-882h-55v930h443v-930z" />
    <glyph glyph-name="summation" unicode="&#x2211;" horiz-adv-x="530" 
d="M497 -230h-473v22l285 447l-261 433v28h425v-47h-357l251 -413l-270 -423h400v-47z" />
    <glyph glyph-name="minus" unicode="&#x2212;" horiz-adv-x="667" 
d="M69 348h528v-52h-528v52z" />
    <glyph glyph-name="radical" unicode="&#x221a;" horiz-adv-x="386" 
d="M411 728l-158 -740h-48l-116 354l-48 -24l-20 39l100 51l106 -328l135 648h49z" />
    <glyph glyph-name="infinity" unicode="&#x221e;" horiz-adv-x="639" 
d="M588 293q0 -60 -36.5 -100t-90.5 -40q-48 0 -85 27.5t-58 67.5h-2q-23 -40 -58.5 -67.5t-75.5 -27.5q-60 0 -97 38t-37 98q0 62 36 101t94 39q52 0 87 -29.5t52 -64.5h2q58 94 138 94q56 0 93.5 -37.5t37.5 -98.5zM536 293q0 39 -21.5 64.5t-59.5 25.5q-34 0 -60.5 -22.5
t-53.5 -69.5q48 -92 112 -92q39 0 61 26.5t22 67.5zM295 292q-20 38 -50.5 64.5t-61.5 26.5q-42 0 -62.5 -26.5t-20.5 -67.5t23.5 -65.5t59.5 -24.5q61 0 112 93z" />
    <glyph glyph-name="integral" unicode="&#x222b;" horiz-adv-x="422" 
d="M346 694q-14 8 -36 8q-35 0 -53.5 -25t-18.5 -71v-678q0 -65 -33 -103.5t-93 -38.5q-29 0 -51 10l12 44q19 -7 36 -7q74 0 74 95v678q0 65 33.5 103.5t93.5 38.5q31 0 49 -9q-2 -7 -6 -22.5t-7 -22.5z" />
    <glyph glyph-name="approxequal" unicode="&#x2248;" horiz-adv-x="667" 
d="M569 420q-57 -82 -134 -82q-55 0 -109 34q-56 34 -94 34q-55 0 -97 -67l-37 38q28 39 59 60.5t75 21.5q54 0 108 -33q53 -35 95 -35q55 0 98 66zM569 209q-57 -82 -134 -82q-52 0 -109 34q-53 34 -94 34q-56 0 -97 -67l-37 39q59 81 134 81q57 0 108 -33q56 -35 95 -35
q55 0 98 67z" />
    <glyph glyph-name="notequal" unicode="&#x2260;" horiz-adv-x="667" 
d="M555 161h-261l-67 -139h-56l68 139h-127v53h153l77 158h-230v53h256l68 141h55l-68 -141h132v-53h-158l-77 -158h235v-53z" />
    <glyph glyph-name="lessequal" unicode="&#x2264;" horiz-adv-x="667" 
d="M555 0h-443v53h443v-53zM555 131l-443 204v31l443 205v-59l-353 -160v-2l353 -161v-58z" />
    <glyph glyph-name="greaterequal" unicode="&#x2265;" horiz-adv-x="667" 
d="M555 0h-443v53h443v-53zM555 336l-443 -205v59l353 159v3l-353 160v59l443 -205v-30z" />
    <glyph glyph-name="lozenge" unicode="&#x25ca;" horiz-adv-x="454" 
d="M398 350l-158 -350h-31l-158 349l158 351h31zM349 350l-125 277l-124 -277l123 -277z" />
    <glyph glyph-name="uni00AD" horiz-adv-x="323" 
d="M66 231h185v-49h-185v49z" />
    <glyph glyph-name="uni03A9" horiz-adv-x="614" 
d="M559 0h-186v47q129 129 129 330q0 128 -51.5 207.5t-143.5 79.5q-93 0 -147.5 -81t-54.5 -205q0 -201 132 -331v-47h-186v47h131q-133 128 -133 335q0 141 72 235.5t187 94.5q116 0 183 -89.5t67 -238.5q0 -110 -38 -197t-93 -140h132v-47z" />
    <glyph glyph-name="uni03BC" horiz-adv-x="556" 
d="M80 518h60v-215v-30q1 -88 8.5 -122t32.5 -65q39 -46 97 -46q64 0 99 39q26 31 34.5 66t9.5 123v34v216h63v-518h-63v58h-2q-54 -70 -136 -70q-46 0 -77.5 15.5t-65.5 54.5v-262h-60v722z" />
    <glyph glyph-name="uni00A0" horiz-adv-x="214" 
 />
    </font>
</defs>
</svg>
